<?xml version="1.0" standalone="no"?>
<!DOCTYPE svg PUBLIC "-//W3C//DTD SVG 20010904//EN"
 "http://www.w3.org/TR/2001/REC-SVG-20010904/DTD/svg10.dtd">
<svg version="1.0" xmlns="http://www.w3.org/2000/svg"
 width="750.000000pt" height="223.000000pt" viewBox="0 0 750.000000 223.000000"
 preserveAspectRatio="xMidYMid meet">

<g transform="translate(0.000000,223.000000) scale(0.100000,-0.100000)"
fill="#000000" stroke="none">
<path d="M360 2113 c-52 -20 -96 -36 -97 -37 -2 -1 13 -42 32 -90 l34 -87 -27
-10 c-15 -6 -51 -20 -79 -31 -29 -11 -53 -21 -53 -22 0 -5 81 -220 86 -228 4
-6 50 9 146 47 12 5 20 -5 36 -47 11 -29 23 -60 26 -68 4 -11 -14 -31 -59 -65
-147 -111 -275 -346 -275 -505 0 -40 -4 -48 -26 -58 -42 -20 -54 -66 -54 -217
0 -150 9 -187 55 -223 31 -24 93 -29 128 -10 19 10 24 7 41 -18 11 -16 53 -61
93 -101 159 -158 400 -226 627 -178 129 27 278 114 367 213 61 68 93 82 161
75 43 -4 62 -2 87 13 52 31 61 64 61 231 0 128 -3 152 -19 180 -11 17 -29 34
-40 38 -17 5 -21 15 -21 53 -1 140 -88 329 -208 449 -150 150 -343 223 -557
209 -55 -3 -111 -7 -124 -9 -21 -2 -28 6 -48 58 -12 32 -20 62 -15 65 4 4 27
14 52 23 25 9 57 21 72 26 l27 10 -25 68 c-14 37 -35 91 -45 119 l-20 52 -75
-29 c-42 -16 -79 -27 -82 -25 -4 2 -21 41 -37 85 -16 45 -34 81 -40 81 -5 -1
-53 -17 -105 -37z m269 -1033 c85 -43 105 -97 99 -276 -3 -98 -8 -137 -21
-162 -51 -94 -212 -121 -308 -50 -48 36 -62 74 -67 184 -9 192 13 259 98 302
58 29 145 30 199 2z m648 -12 c64 -42 73 -73 73 -243 0 -160 -6 -183 -59 -228
-97 -81 -263 -51 -312 56 -15 34 -19 66 -19 174 0 142 7 172 48 217 42 44 78
57 158 54 57 -3 79 -8 111 -30z"/>
<path d="M514 981 c-42 -26 -57 -74 -52 -168 3 -70 6 -77 36 -104 22 -20 43
-29 67 -29 24 0 45 9 67 29 30 27 33 34 36 105 4 76 4 76 -21 76 -38 0 -59 26
-55 69 3 32 0 36 -22 39 -14 1 -39 -6 -56 -17z"/>
<path d="M1105 981 c-50 -21 -60 -47 -60 -153 l0 -100 33 -29 c80 -72 172 -6
172 124 0 54 -1 57 -24 57 -37 0 -58 27 -54 69 3 32 0 36 -22 38 -14 1 -34 -2
-45 -6z"/>
<path d="M2550 865 l0 -775 2383 0 c2305 0 2383 1 2423 19 79 36 74 -18 74
759 l0 694 -28 28 c-16 15 -46 33 -68 39 -28 8 -732 11 -2411 11 l-2373 0 0
-775z m2950 382 c8 0 30 3 48 7 l32 8 0 -41 c0 -48 11 -45 -162 -46 l-128 0 0
37 c0 45 9 49 115 41 44 -3 87 -6 95 -6z m-718 -197 l-5 -120 93 0 92 0 -3
120 -4 120 85 0 85 0 -3 -300 -3 -300 -82 0 -82 0 3 135 4 135 -93 0 -92 0 6
-135 5 -135 -84 0 -84 0 0 300 0 300 84 0 83 0 -5 -120z m706 45 l52 -65 -45
0 c-40 0 -47 4 -67 35 -13 19 -25 35 -28 35 -3 0 -15 -16 -28 -35 -20 -31 -27
-35 -67 -35 l-45 0 51 65 c46 59 54 65 88 65 34 0 42 -6 89 -65z m602 -30 l0
-65 45 0 45 0 0 -40 0 -40 -40 0 -40 0 0 -129 c0 -147 7 -164 61 -144 l29 11
0 -43 c0 -51 -7 -55 -95 -55 -130 0 -145 24 -145 220 l0 140 -35 0 c-34 0 -35
1 -35 40 0 39 1 40 35 40 l35 0 0 65 0 65 70 0 70 0 0 -65z m850 -30 c0 -2 -9
-29 -20 -59 -20 -53 -20 -57 -4 -112 20 -69 14 -144 -15 -202 -39 -76 -102
-106 -211 -100 -77 4 -121 28 -161 86 -21 32 -24 46 -24 132 0 88 2 100 28
138 52 79 158 109 260 74 l59 -19 -7 33 -6 34 51 0 c27 0 50 -2 50 -5z m-1480
-36 c99 -23 153 -101 153 -220 0 -135 -67 -210 -193 -217 -156 -9 -234 65
-233 218 0 120 46 190 140 216 59 16 76 16 133 3z m1030 -44 l0 -55 -34 0
c-19 0 -44 -9 -57 -19 -23 -19 -24 -24 -24 -165 l0 -146 -75 0 -76 0 1 173 c0
94 -3 191 -8 215 l-7 42 74 0 c59 0 75 -3 80 -16 6 -15 8 -15 24 -2 22 20 40
26 75 27 26 1 27 0 27 -54z m278 -462 c26 -36 5 -91 -36 -94 -58 -4 -84 14
-84 57 0 57 85 84 120 37z"/>
<path d="M6679 911 c-22 -17 -24 -29 -27 -114 -4 -103 10 -150 47 -160 46 -12
81 49 81 144 0 66 -9 105 -32 128 -23 26 -39 26 -69 2z"/>
<path d="M5362 905 c-45 -57 -37 -228 13 -261 19 -12 28 -13 45 -4 32 17 43
56 42 149 0 67 -4 89 -19 110 -27 36 -56 38 -81 6z"/>
</g>
</svg>
