<?xml version="1.0" standalone="no"?>
<!DOCTYPE svg PUBLIC "-//W3C//DTD SVG 20010904//EN"
 "http://www.w3.org/TR/2001/REC-SVG-20010904/DTD/svg10.dtd">
<svg version="1.0" xmlns="http://www.w3.org/2000/svg"
 width="773.000000pt" height="220.000000pt" viewBox="0 0 773.000000 220.000000"
 preserveAspectRatio="xMidYMid meet">

<g transform="translate(0.000000,220.000000) scale(0.100000,-0.100000)"
fill="#000000" stroke="none">
<path d="M165 2135 l-25 -24 0 -614 0 -614 25 -27 24 -26 256 0 c140 0 255 -1
255 -2 0 -2 -11 -37 -23 -78 l-24 -75 -144 -5 c-136 -5 -147 -7 -192 -33 -27
-16 -56 -42 -66 -58 -17 -28 -81 -318 -81 -367 0 -33 45 -117 76 -141 21 -17
41 -21 97 -21 l71 0 51 54 c27 29 60 58 72 65 28 15 228 15 256 0 12 -7 45
-36 72 -65 l51 -54 70 0 c83 0 103 11 143 81 l28 50 26 -43 c48 -82 59 -88
144 -88 l77 0 50 54 c28 29 61 59 73 65 12 6 70 11 130 11 121 0 135 -5 194
-75 47 -55 46 -55 125 -55 86 0 107 13 149 95 l29 57 -36 178 c-39 196 -49
218 -123 262 -36 20 -56 24 -185 28 l-145 5 -22 65 c-12 36 -22 71 -22 78 -1
9 56 12 253 12 l254 0 26 31 26 31 -2 615 -3 615 -24 19 c-22 18 -53 19 -993
19 l-969 0 -24 -25z m1953 -620 c1 -319 0 -590 -3 -603 l-5 -22 -953 2 -952 3
-3 590 c-1 325 0 596 3 603 3 10 200 12 957 10 l953 -3 3 -580z m-558 -740 c9
-27 20 -62 24 -77 l6 -28 -108 0 c-96 0 -114 -3 -160 -26 -81 -40 -96 -68
-128 -229 -15 -77 -30 -143 -33 -147 -4 -5 -20 57 -35 136 -29 147 -42 179
-88 216 -51 40 -93 50 -203 50 -58 0 -105 3 -105 8 0 4 10 40 21 80 l22 72
385 -2 385 -3 17 -50z m-1050 -195 c0 -53 19 -60 155 -60 131 0 155 10 155 62
l0 38 55 0 c65 0 115 -19 149 -55 19 -20 30 -58 57 -194 l33 -169 -30 -49 -30
-48 -62 -3 -61 -3 -46 59 c-54 69 -63 72 -220 72 -159 0 -169 -3 -221 -71
l-45 -59 -60 0 -59 0 -30 47 c-17 26 -30 55 -30 64 0 44 61 321 75 343 25 38
91 66 158 66 l57 0 0 -40z m980 12 c0 -59 16 -67 150 -70 144 -4 170 6 170 63
l0 35 55 0 c65 0 109 -16 146 -54 23 -22 31 -50 59 -197 l32 -170 -29 -47
c-29 -47 -29 -47 -89 -50 -58 -3 -63 -1 -90 30 -16 19 -36 44 -44 56 -19 30
-72 41 -186 42 -164 0 -178 -4 -230 -71 l-45 -59 -60 0 c-58 0 -60 1 -89 42
-21 28 -30 52 -30 77 1 58 56 308 74 335 26 40 83 65 149 66 56 0 57 -1 57
-28z"/>
<path d="M782 1949 c-55 -48 -60 -55 -46 -66 16 -11 15 -16 -2 -63 l-20 -51
-59 -3 c-110 -5 -202 -74 -231 -175 -36 -119 13 -237 121 -294 l40 -21 -35 -7
c-43 -9 -100 -69 -100 -104 0 -35 23 -31 54 10 36 46 48 45 40 -5 -5 -30 -2
-45 9 -58 8 -9 17 -33 19 -52 5 -58 57 -52 58 8 0 18 6 22 30 22 25 0 31 -5
38 -32 15 -57 61 -47 62 13 0 15 6 32 14 39 11 8 13 24 9 61 l-6 49 49 0 c55
0 119 27 119 50 0 11 -9 14 -30 12 -16 -1 -64 -5 -105 -8 l-75 -4 36 19 c46
25 95 73 116 114 9 18 18 61 21 97 6 84 -23 155 -81 205 l-40 34 20 48 c16 38
25 48 41 46 20 -2 21 1 15 50 -3 28 -8 67 -12 86 l-6 34 -63 -54z m-179 -347
c24 -21 24 -137 0 -164 -16 -18 -77 -25 -99 -10 -21 14 -34 51 -34 96 0 60 8
76 43 91 33 14 63 10 90 -13z m226 11 c16 -13 23 -34 27 -80 6 -57 5 -63 -19
-87 -31 -31 -75 -34 -105 -8 -15 12 -23 34 -28 79 -6 57 -5 63 19 87 31 31 75
34 106 9z"/>
<path d="M538 1579 c-12 -7 -18 -22 -18 -48 0 -45 22 -71 48 -54 19 11 29 73
12 73 -6 0 -14 9 -18 19 -5 15 -11 17 -24 10z"/>
<path d="M742 1568 c-14 -14 -16 -67 -3 -86 4 -8 19 -12 32 -10 19 2 25 10 27
36 2 18 -1 32 -7 32 -6 0 -11 9 -11 20 0 22 -20 26 -38 8z"/>
<path d="M1472 1978 c-22 -11 -22 -18 -5 -64 2 -6 -9 -17 -25 -23 l-30 -13 15
-38 c14 -35 18 -38 40 -29 34 13 32 13 49 -28 l16 -36 -42 -40 c-50 -49 -76
-97 -85 -159 -14 -94 46 -211 134 -259 l36 -20 -70 5 c-38 3 -85 8 -102 12
-29 5 -33 4 -33 -15 0 -29 52 -51 118 -51 l50 0 -6 -45 c-3 -33 0 -50 11 -63
8 -9 17 -33 19 -52 3 -30 7 -35 28 -35 20 0 26 6 28 28 2 18 9 27 23 29 10 0
25 1 31 2 7 1 15 -12 18 -29 4 -24 10 -30 30 -30 21 0 26 5 28 34 2 19 10 44
18 55 9 13 12 34 8 60 l-5 41 34 -37 c41 -45 67 -50 67 -11 0 35 -70 103 -108
103 -27 0 -27 0 8 21 115 69 160 175 126 293 -32 109 -123 179 -233 180 -57 1
-63 3 -72 26 -5 14 -12 33 -16 42 -5 13 1 20 23 30 l30 13 -15 37 c-13 34 -17
36 -39 27 -34 -12 -34 -13 -45 21 -12 32 -21 35 -57 18z m116 -384 c19 -13 22
-24 22 -81 0 -79 -16 -103 -68 -103 -56 0 -72 22 -72 98 0 47 5 71 17 84 20
22 71 24 101 2z m238 -5 c14 -16 19 -36 19 -79 0 -72 -21 -100 -73 -100 -56 0
-72 22 -72 101 0 59 3 70 22 83 32 23 81 20 104 -5z"/>
<path d="M1540 1550 c0 -11 -4 -20 -10 -20 -14 0 -12 -54 2 -68 16 -16 23 -15
42 4 29 29 11 104 -25 104 -5 0 -9 -9 -9 -20z"/>
<path d="M1760 1555 c0 -9 -7 -18 -15 -21 -16 -7 -20 -41 -6 -62 4 -8 19 -12
32 -10 20 2 25 10 27 41 3 37 -10 67 -29 67 -5 0 -9 -7 -9 -15z"/>
<path d="M323 1377 c-87 -25 -104 -78 -46 -139 25 -26 131 -84 138 -76 1 2 10
17 19 35 9 18 31 44 50 59 l33 27 -38 34 c-21 19 -41 43 -44 54 -7 22 -45 24
-112 6z"/>
<path d="M1262 1348 c-20 -20 -14 -37 16 -43 15 -4 35 -8 46 -10 19 -4 66 21
66 35 0 4 -19 10 -43 13 -24 3 -50 9 -58 12 -8 3 -20 0 -27 -7z"/>
<path d="M1323 1247 c-49 -22 -14 -88 59 -112 35 -11 49 -35 21 -36 -10 0 8
-8 40 -19 32 -10 67 -26 78 -36 18 -16 19 -16 19 13 0 17 -7 36 -15 43 -9 8
-15 30 -15 56 0 43 0 44 -34 44 -42 0 -84 15 -111 40 -16 14 -25 16 -42 7z"/>
<path d="M502 1140 c-10 -16 -21 -20 -50 -18 -28 2 -37 -1 -40 -14 -4 -19 32
-38 71 -38 11 0 31 -10 44 -22 l23 -21 0 31 c0 17 -4 34 -10 37 -5 3 -13 19
-17 36 -8 28 -8 29 -21 9z"/>
<path d="M650 1046 c0 -9 7 -16 16 -16 17 0 14 22 -4 28 -7 2 -12 -3 -12 -12z"/>
<path d="M1642 1043 c5 -25 28 -28 28 -4 0 12 -6 21 -16 21 -9 0 -14 -7 -12
-17z"/>
<path d="M383 481 c-3 -11 -13 -21 -24 -24 -27 -7 -27 -63 0 -72 11 -3 23 -15
26 -26 4 -13 15 -19 36 -19 16 0 29 5 29 10 0 6 11 20 25 32 30 26 33 68 5 75
-10 3 -22 14 -25 24 -9 27 -65 26 -72 0z"/>
<path d="M904 476 c-14 -36 0 -51 46 -51 43 0 45 1 45 30 0 28 -3 30 -43 33
-30 2 -44 -1 -48 -12z"/>
<path d="M784 406 c-13 -33 0 -51 41 -54 44 -4 66 15 58 48 -4 16 -14 20 -49
20 -30 0 -46 -5 -50 -14z"/>
<path d="M614 306 c-13 -34 4 -47 53 -44 44 3 48 5 48 28 0 23 -4 25 -48 28
-35 2 -49 -1 -53 -12z"/>
<path d="M1373 481 c-3 -11 -13 -21 -24 -24 -26 -7 -27 -63 0 -72 10 -3 21
-15 24 -25 7 -26 57 -28 64 -2 2 10 14 22 26 27 14 7 22 19 22 35 0 16 -8 28
-22 35 -12 5 -24 17 -26 27 -7 25 -57 24 -64 -1z"/>
<path d="M1894 476 c-14 -36 0 -51 46 -51 43 0 45 1 45 30 0 28 -3 30 -43 33
-30 2 -44 -1 -48 -12z"/>
<path d="M1774 406 c-14 -36 0 -51 46 -51 43 0 45 1 45 30 0 28 -3 30 -43 33
-30 2 -44 -1 -48 -12z"/>
<path d="M1604 306 c-13 -34 4 -47 53 -44 44 3 48 5 48 28 0 23 -4 25 -48 28
-35 2 -49 -1 -53 -12z"/>
<path d="M2770 1115 l0 -775 2378 0 c2609 0 2444 -4 2492 57 20 25 20 41 20
720 l0 695 -29 27 c-16 15 -47 33 -69 39 -30 9 -611 12 -2416 12 l-2376 0 0
-775z m892 43 l-3 -261 121 6 120 7 0 -45 0 -45 -202 0 -203 0 3 300 3 300 82
0 82 0 -3 -262z m1406 187 l52 -65 -45 0 c-40 0 -47 4 -67 35 -13 19 -25 35
-28 35 -3 0 -15 -16 -28 -35 -20 -31 -27 -35 -67 -35 l-46 0 53 65 c46 58 55
65 88 65 32 0 41 -7 88 -65z m1494 2 l47 -62 -42 -3 c-32 -3 -45 1 -54 15 -40
59 -38 59 -62 19 -21 -33 -27 -36 -67 -36 -51 0 -54 7 -18 41 14 13 34 38 45
56 18 29 26 33 62 33 39 -1 45 -5 89 -63z m-402 -32 l0 -65 45 0 45 0 0 -40 0
-40 -40 0 -40 0 0 -134 c0 -124 2 -135 19 -141 11 -3 31 -3 45 1 25 6 26 4 26
-34 0 -48 -8 -52 -95 -52 -130 0 -145 24 -145 220 l0 140 -35 0 c-34 0 -35 1
-35 40 0 39 1 40 36 40 l36 0 -4 65 -3 65 73 0 72 0 0 -65z m-1108 -65 c70
-20 128 -89 128 -154 0 -26 8 -22 -182 -93 l-67 -25 13 -27 c35 -67 104 -85
164 -42 17 11 33 21 37 21 8 0 44 -42 45 -52 0 -4 -21 -19 -46 -34 -35 -21
-64 -28 -119 -32 -115 -7 -183 26 -227 112 -30 58 -30 165 0 223 46 89 151
131 254 103z m550 -16 c47 -24 53 -46 58 -237 l5 -177 -78 0 -78 0 6 138 c3
75 2 151 -3 167 -11 40 -51 55 -86 31 l-26 -16 0 -160 0 -160 -77 0 -78 0 0
215 0 215 78 0 c63 0 77 -3 77 -15 0 -13 4 -14 23 -4 54 30 124 31 179 3z
m979 -1 c72 -32 73 -37 80 -217 3 -89 9 -169 14 -178 6 -16 0 -18 -68 -18 -42
0 -78 4 -81 9 -4 5 -20 3 -37 -6 -21 -11 -50 -14 -95 -11 -56 3 -69 8 -95 34
-20 21 -32 44 -36 71 -11 85 49 145 185 186 39 11 72 24 72 28 0 4 -12 17 -27
29 -33 26 -97 24 -153 -3 -18 -10 -35 -17 -37 -17 -1 0 -3 24 -3 54 l0 55 38
4 c78 10 198 0 243 -20z m458 17 c75 -21 124 -100 125 -200 1 -83 -24 -148
-74 -194 -43 -39 -90 -52 -151 -42 l-40 6 2 -82 2 -83 -77 -3 -77 -3 2 301 2
300 68 0 c38 0 69 -5 71 -10 2 -7 16 -6 38 4 42 18 64 19 109 6z m-2978 -160
c-2 -117 0 -164 9 -175 18 -22 73 -19 95 5 16 18 17 35 13 175 l-6 155 77 0
76 0 0 -215 0 -215 -72 0 c-56 0 -73 3 -73 14 0 11 -8 10 -37 -5 -53 -27 -131
-25 -174 4 -50 33 -58 69 -58 255 l-1 162 78 0 77 0 -4 -160z m459 118 c24
-97 64 -218 70 -218 7 0 70 224 70 248 0 8 19 12 55 12 34 0 55 -4 55 -11 0
-6 -7 -39 -15 -73 -65 -256 -174 -466 -261 -502 -18 -8 -58 -14 -89 -14 l-55
0 0 54 0 53 41 -11 c32 -8 45 -7 67 5 50 28 50 53 -6 195 -46 120 -92 265 -92
292 0 8 24 12 75 12 l74 0 11 -42z m503 -447 c32 -12 43 -55 22 -87 -12 -19
-24 -24 -55 -24 -31 0 -43 5 -55 24 -38 57 19 113 88 87z m1495 -7 c29 -20 31
-79 3 -94 -27 -14 -84 -13 -99 2 -7 7 -12 27 -12 44 0 36 29 64 65 64 11 0 31
-7 43 -16z"/>
<path d="M4941 1154 c-13 -17 -21 -41 -21 -65 l0 -39 52 21 c29 11 56 23 60
25 13 8 9 38 -8 62 -21 30 -58 28 -83 -4z"/>
<path d="M6468 1024 c-49 -25 -68 -48 -68 -83 0 -44 64 -68 104 -38 14 10 16
25 14 79 l-3 66 -47 -24z"/>
<path d="M6916 1154 c-22 -22 -23 -235 -2 -254 23 -18 57 -8 80 23 31 42 35
169 7 215 -23 36 -59 43 -85 16z"/>
</g>
</svg>
