<?xml version="1.0" encoding="UTF-8"?>
<!DOCTYPE svg PUBLIC "-//W3C//DTD SVG 1.1//EN" "http://www.w3.org/Graphics/SVG/1.1/DTD/svg11.dtd">
<!-- Creator: CorelDRAW -->
<svg xmlns="http://www.w3.org/2000/svg" xml:space="preserve" width="18117px" height="4243px" version="1.1" style="shape-rendering:geometricPrecision; text-rendering:geometricPrecision; image-rendering:optimizeQuality; fill-rule:evenodd; clip-rule:evenodd"
viewBox="0 0 3718.93 870.91"
 xmlns:xlink="http://www.w3.org/1999/xlink">
 <defs>
  <style type="text/css">
   <![CDATA[
    .str0 {stroke:#00B0F0;stroke-width:0.18;stroke-miterlimit:22.9256}
    .fil2 {fill:#3460A9}
    .fil1 {fill:white;fill-rule:nonzero}
    .fil3 {fill:#3460A9;fill-rule:nonzero}
    .fil0 {fill:url(#id0)}
   ]]>
  </style>
  <linearGradient id="id0" gradientUnits="userSpaceOnUse" x1="1439.77" y1="845.12" x2="1439.77" y2="0.09">
   <stop offset="0" style="stop-opacity:1; stop-color:#00B0F0"/>
   <stop offset="1" style="stop-opacity:1; stop-color:#91D9F8"/>
  </linearGradient>
 </defs>
 <g id="Layer_x0020_1">
  <metadata id="CorelCorpID_0Corel-Layer"/>
  <path class="fil0 str0" d="M87.73 0.09l2704.08 0c48.19,0 87.63,39.44 87.63,87.64l0 669.76c0,48.19 -39.44,87.63 -87.63,87.63l-2704.08 0c-48.2,0 -87.64,-39.44 -87.64,-87.63l0 -669.76c0,-48.2 39.44,-87.64 87.64,-87.64z"/>
  <path class="fil1" d="M255.79 307.89l0 42.85c0,7.07 0.38,11.49 1.15,13.27 0.8,1.77 2.33,3.31 4.6,4.63 2.26,1.36 5.36,2.02 9.23,2.02l4.6 0 0 3.76 -72.36 0 0 -3.76 4.6 0c4,0 7.24,-0.73 9.68,-2.16 1.78,-0.94 3.14,-2.58 4.08,-4.91 0.76,-1.64 1.15,-5.92 1.15,-12.85l0 -91.03c0,-7.07 -0.39,-11.5 -1.15,-13.28 -0.73,-1.77 -2.27,-3.3 -4.53,-4.63 -2.26,-1.32 -5.37,-1.98 -9.23,-1.98l-4.6 0 0 -3.8 72.36 0 0 3.8 -4.6 0c-4.01,0 -7.25,0.69 -9.69,2.12 -1.77,0.94 -3.17,2.58 -4.18,4.91 -0.73,1.64 -1.11,5.93 -1.11,12.86l0 39.19 48.87 0 0 -39.19c0,-7.07 -0.38,-11.5 -1.11,-13.28 -0.77,-1.77 -2.3,-3.3 -4.6,-4.63 -2.33,-1.32 -5.43,-1.98 -9.3,-1.98l-4.5 0 0 -3.8 72.29 0 0 3.8 -4.49 0c-4.08,0 -7.32,0.69 -9.72,2.12 -1.78,0.94 -3.17,2.58 -4.18,4.91 -0.74,1.64 -1.12,5.93 -1.12,12.86l0 91.03c0,7.07 0.38,11.49 1.12,13.27 0.73,1.77 2.26,3.31 4.59,4.63 2.34,1.36 5.44,2.02 9.31,2.02l4.49 0 0 3.76 -72.29 0 0 -3.76 4.5 0c4.07,0 7.31,-0.73 9.72,-2.16 1.77,-0.94 3.17,-2.58 4.18,-4.91 0.73,-1.64 1.11,-5.92 1.11,-12.85l0 -42.85 -48.87 0zm157.42 -31.74c8.33,0 16.03,2.13 23.17,6.41 7.14,4.29 12.58,10.38 16.27,18.29 3.73,7.91 5.57,16.55 5.57,25.92 0,13.55 -3.45,24.87 -10.31,33.96 -8.29,11.05 -19.75,16.55 -34.38,16.55 -14.36,0 -25.4,-5.05 -33.17,-15.12 -7.77,-10.07 -11.63,-21.7 -11.63,-34.97 0,-13.69 3.97,-25.61 11.88,-35.78 7.9,-10.17 18.77,-15.26 32.6,-15.26zm0.42 7.25c-3.48,0 -6.44,1.32 -8.92,3.93 -2.47,2.62 -4.11,7.77 -4.91,15.51 -0.8,7.69 -1.18,18.42 -1.18,32.18 0,7.29 0.48,14.11 1.43,20.42 0.73,4.84 2.33,8.5 4.8,11.01 2.44,2.54 5.23,3.79 8.36,3.79 3.07,0 5.61,-0.83 7.67,-2.54 2.65,-2.33 4.42,-5.57 5.29,-9.72 1.36,-6.44 2.06,-19.51 2.06,-39.19 0,-11.57 -0.66,-19.51 -1.95,-23.83 -1.29,-4.32 -3.21,-7.45 -5.72,-9.44 -1.77,-1.43 -4.07,-2.12 -6.93,-2.12zm11.53 -54.63l20.73 38.98 -7.87 0 -24.28 -21 -25.02 20.41 -8.36 0 21.74 -38.39 23.06 0zm-12.36 156.07c4.77,0 8.81,1.64 12.12,4.95 3.31,3.31 4.95,7.31 4.95,12.09 0,4.7 -1.68,8.67 -5.02,11.98 -3.31,3.31 -7.35,4.95 -12.05,4.95 -4.71,0 -8.68,-1.64 -11.99,-4.95 -3.31,-3.31 -4.95,-7.28 -4.95,-11.98 0,-4.71 1.64,-8.71 4.95,-12.06 3.31,-3.31 7.28,-4.98 11.99,-4.98zm82.87 -152.06c4.43,0 8.19,1.53 11.25,4.63 3.03,3.1 4.57,6.83 4.57,11.18 0,4.36 -1.54,8.05 -4.64,11.12 -3.1,3.06 -6.82,4.6 -11.18,4.6 -4.35,0 -8.05,-1.54 -11.11,-4.6 -3.07,-3.07 -4.6,-6.76 -4.6,-11.12 0,-4.35 1.53,-8.08 4.6,-11.18 3.06,-3.1 6.76,-4.63 11.11,-4.63zm14.28 46.23l0 75.63c0,6.72 0.81,11.04 2.37,12.89 1.57,1.88 4.64,2.96 9.2,3.24l0 3.65 -51.56 0 0 -3.65c4.22,-0.14 7.35,-1.36 9.41,-3.7 1.36,-1.56 2.02,-5.71 2.02,-12.43l0 -55.74c0,-6.72 -0.77,-11.04 -2.34,-12.93 -1.56,-1.84 -4.59,-2.92 -9.09,-3.2l0 -3.76 39.99 0zm159 22.05c13.13,3.03 22.33,6.76 27.66,11.11 7.63,6.17 11.43,14.21 11.43,24.07 0,10.42 -4.19,19.06 -12.55,25.85 -10.27,8.22 -25.22,12.33 -44.8,12.33l-70.33 0 0 -3.76c6.37,0 10.73,-0.59 13.03,-1.81 2.26,-1.18 3.86,-2.72 4.77,-4.63 0.94,-1.92 1.39,-6.59 1.39,-14.08l0 -89.81c0,-7.49 -0.45,-12.22 -1.39,-14.14 -0.91,-1.95 -2.51,-3.48 -4.84,-4.63 -2.34,-1.15 -6.66,-1.74 -12.96,-1.74l0 -3.8 66.33 0c15.85,0 27.1,1.43 33.68,4.25 6.59,2.82 11.81,7.04 15.61,12.64 3.8,5.61 5.72,11.6 5.72,17.91 0,6.65 -2.41,12.61 -7.25,17.84 -4.84,5.19 -13.34,9.33 -25.5,12.4zm-37.14 -2.79c9.65,0 16.79,-1.08 21.36,-3.24 4.6,-2.19 8.11,-5.26 10.59,-9.2 2.44,-3.93 3.66,-8.98 3.66,-15.11 0,-6.1 -1.22,-11.12 -3.63,-15.05 -2.4,-3.91 -5.85,-6.87 -10.34,-8.92 -4.5,-2.06 -11.71,-3.03 -21.64,-2.96l0 54.48zm0 7.98l0 44.38 -0.1 5.12c0,3.66 0.94,6.45 2.79,8.33 1.88,1.84 4.66,2.78 8.32,2.78 5.44,0 10.45,-1.21 15.05,-3.62 4.6,-2.4 8.12,-5.92 10.56,-10.52 2.47,-4.56 3.69,-9.68 3.69,-15.33 0,-6.48 -1.5,-12.29 -4.5,-17.42 -2.99,-5.12 -7.1,-8.7 -12.36,-10.76 -5.23,-2.06 -13.03,-3.03 -23.45,-2.96zm143.25 54.1c-11.63,10.28 -22.09,15.4 -31.35,15.4 -5.44,0 -9.97,-1.78 -13.55,-5.37 -3.59,-3.59 -5.4,-8.04 -5.4,-13.41 0,-7.28 3.13,-13.83 9.37,-19.65 6.27,-5.81 19.92,-13.55 40.93,-23.2l0 -9.61c0,-7.21 -0.38,-11.74 -1.18,-13.62 -0.81,-1.88 -2.27,-3.52 -4.43,-4.92 -2.19,-1.39 -4.63,-2.09 -7.35,-2.09 -4.42,0 -8.08,0.98 -10.94,2.97 -1.77,1.21 -2.64,2.64 -2.64,4.28 0,1.43 0.94,3.21 2.85,5.33 2.61,2.93 3.9,5.75 3.9,8.47 0,3.3 -1.25,6.16 -3.72,8.53 -2.48,2.33 -5.75,3.52 -9.76,3.52 -4.28,0 -7.87,-1.29 -10.76,-3.9 -2.89,-2.58 -4.36,-5.61 -4.36,-9.06 0,-4.91 1.95,-9.58 5.82,-14.04 3.87,-4.46 9.3,-7.87 16.23,-10.28 6.94,-2.37 14.15,-3.55 21.64,-3.55 9.06,0 16.23,1.92 21.49,5.75 5.26,3.87 8.68,8.01 10.24,12.5 0.94,2.86 1.43,9.45 1.43,19.72l0 37.03c0,4.36 0.18,7.11 0.52,8.22 0.35,1.12 0.88,1.96 1.54,2.51 0.66,0.53 1.46,0.8 2.33,0.8 1.78,0 3.59,-1.25 5.44,-3.76l3.03 2.44c-3.38,5.05 -6.9,8.71 -10.56,10.97 -3.66,2.27 -7.77,3.42 -12.4,3.42 -5.43,0 -9.69,-1.29 -12.75,-3.83 -3.07,-2.55 -4.95,-6.41 -5.61,-11.57zm0 -7.45l0 -31.95c-8.26,4.84 -14.35,10 -18.36,15.5 -2.68,3.66 -4,7.39 -4,11.12 0,3.13 1.11,5.88 3.37,8.29 1.71,1.84 4.08,2.75 7.15,2.75 3.41,0 7.35,-1.92 11.84,-5.71zm8.67 -99.43c-5.64,3.35 -9.05,5.68 -10.2,6.97 -1.15,1.29 -1.92,3.38 -2.27,6.3l-5.5 0c0.63,-5.85 3,-10.83 7.14,-14.98 3,-2.99 4.49,-5.85 4.49,-8.6 0,-5.02 -3.41,-7.52 -10.2,-7.52 -2.37,0 -4.39,0.34 -6.03,1.01 -1.64,0.66 -2.44,1.32 -2.44,1.95 0,0.52 0.59,1.39 1.78,2.57 1.22,1.22 1.81,2.16 1.81,2.83 0,2.36 -2.09,3.55 -6.24,3.55 -2.71,0 -4.91,-0.52 -6.58,-1.57 -1.67,-1.04 -2.51,-2.47 -2.51,-4.25 0,-2.79 2.16,-5.12 6.45,-6.97 4.28,-1.88 9.72,-2.82 16.34,-2.82 8.5,0 14.8,1.33 18.95,3.97 3.06,1.99 4.59,4.18 4.59,6.66 0,3.45 -3.2,7.1 -9.58,10.9zm88.18 22.68c8.32,0 16.02,2.13 23.16,6.41 7.14,4.29 12.58,10.38 16.27,18.29 3.73,7.91 5.58,16.55 5.58,25.92 0,13.55 -3.45,24.87 -10.32,33.96 -8.29,11.05 -19.75,16.55 -34.38,16.55 -14.35,0 -25.4,-5.05 -33.16,-15.12 -7.77,-10.07 -11.64,-21.7 -11.64,-34.97 0,-13.69 3.97,-25.61 11.88,-35.78 7.91,-10.17 18.78,-15.26 32.61,-15.26zm0.41 7.25c-3.48,0 -6.44,1.32 -8.91,3.93 -2.48,2.62 -4.11,7.77 -4.92,15.51 -0.8,7.69 -1.18,18.42 -1.18,32.18 0,7.29 0.49,14.11 1.43,20.42 0.73,4.84 2.33,8.5 4.81,11.01 2.43,2.54 5.22,3.79 8.36,3.79 3.06,0 5.61,-0.83 7.66,-2.54 2.65,-2.33 4.42,-5.57 5.3,-9.72 1.35,-6.44 2.05,-19.51 2.05,-39.19 0,-11.57 -0.66,-19.51 -1.95,-23.83 -1.29,-4.32 -3.2,-7.45 -5.71,-9.44 -1.78,-1.43 -4.08,-2.12 -6.94,-2.12zm149.21 -39.3l0 34.91 22.64 0 0 10.1 -22.64 0 0 58.87c0,5.54 0.24,9.1 0.77,10.66 0.52,1.61 1.42,2.89 2.71,3.9 1.29,0.98 2.48,1.47 3.56,1.47 4.42,0 8.64,-3.38 12.57,-10.1l3.03 2.26c-5.5,13.06 -14.45,19.58 -26.82,19.58 -6.06,0 -11.18,-1.67 -15.36,-5.05 -4.18,-3.38 -6.87,-7.14 -8.02,-11.29 -0.66,-2.3 -1.01,-8.57 -1.01,-18.78l0 -51.52 -12.47 0 0 -3.59c8.57,-6.06 15.89,-12.44 21.91,-19.09 6.03,-6.65 11.26,-14.11 15.75,-22.33l3.38 0zm71.34 34.91l0 21.63c6.31,-9.86 11.85,-16.41 16.62,-19.65 4.77,-3.24 9.37,-4.84 13.8,-4.84 3.79,0 6.86,1.18 9.12,3.52 2.27,2.33 3.42,5.64 3.42,9.93 0,4.56 -1.12,8.11 -3.31,10.62 -2.2,2.55 -4.88,3.8 -8.01,3.8 -3.59,0 -6.73,-1.15 -9.37,-3.48 -2.69,-2.34 -4.25,-3.63 -4.71,-3.87 -0.69,-0.42 -1.5,-0.63 -2.37,-0.63 -1.98,0 -3.83,0.73 -5.61,2.23 -2.78,2.34 -4.87,5.65 -6.3,9.93 -2.2,6.58 -3.28,13.86 -3.28,21.84l0 21.91 0.11 5.75c0,3.87 0.24,6.34 0.7,7.42 0.8,1.85 2.02,3.17 3.62,4.04 1.6,0.87 4.32,1.4 8.12,1.61l0 3.65 -51.53 0 0 -3.65c4.15,-0.35 6.94,-1.5 8.4,-3.45 1.46,-1.92 2.19,-7.04 2.19,-15.37l0 -52.74c0,-5.47 -0.28,-8.92 -0.8,-10.41 -0.66,-1.92 -1.67,-3.31 -2.96,-4.18 -1.29,-0.88 -3.59,-1.5 -6.83,-1.85l0 -3.76 38.98 0zm165.76 9.16c-1.64,4.84 -5.09,8.32 -10.31,10.52 -3.56,1.43 -9.48,2.16 -17.77,2.16 3.66,7.91 5.5,16.55 5.5,25.92 0,13.55 -3.45,24.87 -10.31,33.96 -8.29,11.05 -19.75,16.55 -34.38,16.55 -13.83,0 -24.88,-5.05 -33.17,-15.12 -7.76,-9.37 -11.63,-21.04 -11.63,-34.97 0,-14.25 3.93,-26.2 11.84,-35.85 8.36,-10.14 19.23,-15.19 32.64,-15.19 9.2,0 17.14,2.23 23.8,6.72 1.91,1.36 5.19,4.39 9.89,9.1 2.65,2.78 5.68,4.21 9.09,4.28 2.65,0.07 4.71,-0.17 6.2,-0.73 1.85,-0.66 3.07,-1.74 3.7,-3.24 0.35,-0.7 0.38,-1.25 0.1,-1.64 -1.57,-0.8 -3.83,-2.78 -6.76,-5.92 -1.56,-2.79 -1.98,-5.47 -1.32,-8.08 0.7,-2.72 2.47,-4.88 5.36,-6.48 2.9,-1.6 5.93,-1.92 9.03,-0.98 3.69,1.15 6.37,3.56 8.08,7.18 1.71,3.59 1.85,7.52 0.42,11.81zm-52.57 30.62c0,-10.87 -0.66,-18.78 -1.95,-23.76 -1.08,-4.14 -3,-7.31 -5.72,-9.51 -1.77,-1.43 -4.07,-2.12 -6.93,-2.12 -7.91,0 -12.5,6.44 -13.79,19.37 -0.8,7.76 -1.22,18.49 -1.22,32.25 0,7.35 0.49,14.18 1.43,20.42 1.49,9.86 5.88,14.8 13.16,14.8 6.94,0 11.26,-4.07 12.96,-12.26 1.36,-6.44 2.06,-19.51 2.06,-39.19zm-15.43 66.05c4.77,0 8.81,1.64 12.12,4.95 3.31,3.31 4.95,7.31 4.95,12.09 0,4.7 -1.68,8.67 -5.02,11.98 -3.31,3.31 -7.35,4.95 -12.05,4.95 -4.71,0 -8.68,-1.64 -11.99,-4.95 -3.31,-3.31 -4.94,-7.28 -4.94,-11.98 0,-4.71 1.63,-8.71 4.94,-12.06 3.31,-3.31 7.28,-4.98 11.99,-4.98zm161.25 -140.74l0 34.91 22.65 0 0 10.1 -22.65 0 0 58.87c0,5.54 0.25,9.1 0.77,10.66 0.52,1.61 1.43,2.89 2.72,3.9 1.29,0.98 2.47,1.47 3.55,1.47 4.43,0 8.64,-3.38 12.58,-10.1l3.03 2.26c-5.51,13.06 -14.46,19.58 -26.83,19.58 -6.06,0 -11.18,-1.67 -15.36,-5.05 -4.18,-3.38 -6.86,-7.14 -8.01,-11.29 -0.66,-2.3 -1.01,-8.57 -1.01,-18.78l0 -51.52 -12.47 0 0 -3.59c8.57,-6.06 15.88,-12.44 21.91,-19.09 6.03,-6.65 11.25,-14.11 15.75,-22.33l3.37 0zm71.35 34.91l0 21.63c6.31,-9.86 11.84,-16.41 16.62,-19.65 4.77,-3.24 9.37,-4.84 13.79,-4.84 3.8,0 6.87,1.18 9.13,3.52 2.26,2.33 3.41,5.64 3.41,9.93 0,4.56 -1.11,8.11 -3.31,10.62 -2.19,2.55 -4.87,3.8 -8.01,3.8 -3.59,0 -6.72,-1.15 -9.37,-3.48 -2.68,-2.34 -4.25,-3.63 -4.7,-3.87 -0.7,-0.42 -1.5,-0.63 -2.37,-0.63 -1.99,0 -3.83,0.73 -5.61,2.23 -2.79,2.34 -4.88,5.65 -6.31,9.93 -2.19,6.58 -3.27,13.86 -3.27,21.84l0 21.91 0.1 5.75c0,3.87 0.25,6.34 0.7,7.42 0.8,1.85 2.02,3.17 3.62,4.04 1.61,0.87 4.32,1.4 8.12,1.61l0 3.65 -51.52 0 0 -3.65c4.14,-0.35 6.93,-1.5 8.39,-3.45 1.47,-1.92 2.2,-7.04 2.2,-15.37l0 -52.74c0,-5.47 -0.28,-8.92 -0.8,-10.41 -0.66,-1.92 -1.68,-3.31 -2.96,-4.18 -1.29,-0.88 -3.59,-1.5 -6.83,-1.85l0 -3.76 38.98 0zm133.98 44.27l-52.32 0c0.59,12.65 3.97,22.68 10.1,30.03 4.7,5.65 10.35,8.47 16.93,8.47 4.08,0 7.8,-1.15 11.11,-3.42 3.35,-2.29 6.94,-6.41 10.73,-12.29l3.45 2.23c-5.15,10.55 -10.87,18.01 -17.14,22.4 -6.23,4.39 -13.48,6.58 -21.74,6.58 -14.14,0 -24.87,-5.43 -32.15,-16.34 -5.85,-8.78 -8.78,-19.65 -8.78,-32.64 0,-15.92 4.32,-28.6 12.93,-38.04 8.6,-9.41 18.7,-14.11 30.27,-14.11 9.65,0 18.04,3.97 25.15,11.88 7.11,7.91 10.94,19.68 11.46,35.25zm-25.08 -6.82c0,-10.98 -0.59,-18.5 -1.81,-22.58 -1.19,-4.07 -3.03,-7.14 -5.54,-9.26 -1.43,-1.22 -3.35,-1.85 -5.71,-1.85 -3.56,0 -6.45,1.74 -8.68,5.22 -4,6.03 -6.03,14.32 -6.03,24.88l0 3.59 27.77 0zm4.6 -62.99c-5.68,3.35 -9.06,5.68 -10.21,6.97 -1.15,1.29 -1.92,3.38 -2.26,6.3l-5.51 0c0.59,-5.85 3,-10.83 7.14,-14.98 3,-2.99 4.5,-5.85 4.5,-8.6 0,-5.02 -3.42,-7.52 -10.21,-7.52 -2.4,0 -4.39,0.34 -6.03,1.01 -1.63,0.66 -2.43,1.32 -2.43,1.95 0,0.52 0.59,1.39 1.77,2.57 1.19,1.22 1.78,2.16 1.78,2.83 0,2.36 -2.06,3.55 -6.2,3.55 -2.75,0 -4.95,-0.52 -6.59,-1.57 -1.67,-1.04 -2.5,-2.47 -2.5,-4.25 0,-2.79 2.12,-5.12 6.41,-6.97 4.28,-1.88 9.75,-2.82 16.33,-2.82 8.5,0 14.84,1.33 18.99,3.97 3.06,1.99 4.6,4.18 4.6,6.66 0,3.45 -3.21,7.1 -9.58,10.9zm165.51 69.81l-52.33 0c0.59,12.65 3.97,22.68 10.1,30.03 4.71,5.65 10.35,8.47 16.93,8.47 4.08,0 7.81,-1.15 11.12,-3.42 3.34,-2.29 6.93,-6.41 10.73,-12.29l3.45 2.23c-5.16,10.55 -10.87,18.01 -17.14,22.4 -6.24,4.39 -13.49,6.58 -21.74,6.58 -14.15,0 -24.87,-5.43 -32.16,-16.34 -5.85,-8.78 -8.77,-19.65 -8.77,-32.64 0,-15.92 4.32,-28.6 12.92,-38.04 8.6,-9.41 18.71,-14.11 30.27,-14.11 9.65,0 18.05,3.97 25.15,11.88 7.11,7.91 10.94,19.68 11.47,35.25zm-25.09 -6.82c0,-10.98 -0.59,-18.5 -1.81,-22.58 -1.18,-4.07 -3.03,-7.14 -5.54,-9.26 -1.42,-1.22 -3.34,-1.85 -5.71,-1.85 -3.55,0 -6.44,1.74 -8.67,5.22 -4.01,6.03 -6.03,14.32 -6.03,24.88l0 3.59 27.76 0zm76.64 -37.45l0 12.54c5.23,-5.72 10.07,-9.72 14.53,-11.99 4.46,-2.26 9.34,-3.41 14.67,-3.41 6.09,0 11.25,1.43 15.4,4.29 4.14,2.85 7.35,7.21 9.61,13.06 5.43,-6.13 10.66,-10.56 15.64,-13.27 5.02,-2.72 10.24,-4.08 15.68,-4.08 6.58,0 11.84,1.5 15.78,4.53 3.9,3.03 6.62,6.86 8.15,11.53 1.53,4.67 2.3,12.09 2.3,22.3l0 39.08c0,7.35 0.66,11.92 1.99,13.69 1.32,1.78 4.11,2.93 8.32,3.49l0 3.65 -49.29 0 0 -3.65c3.86,-0.35 6.72,-1.85 8.57,-4.5 1.22,-1.84 1.84,-6.06 1.84,-12.68l0 -41c0,-8.54 -0.34,-13.94 -1.04,-16.23 -0.66,-2.34 -1.74,-4.05 -3.21,-5.16 -1.46,-1.15 -3.17,-1.71 -5.15,-1.71 -2.93,0 -5.89,1.08 -8.88,3.24 -3,2.13 -6.03,5.37 -9.1,9.65l0 51.21c0,6.86 0.59,11.18 1.74,12.96 1.57,2.54 4.57,3.94 8.99,4.22l0 3.65 -49.4 0 0 -3.65c2.65,-0.14 4.74,-0.8 6.27,-2.02 1.54,-1.19 2.55,-2.62 3.07,-4.29 0.52,-1.64 0.77,-5.26 0.77,-10.87l0 -41c0,-8.64 -0.35,-14.04 -1.01,-16.23 -0.67,-2.2 -1.82,-3.91 -3.42,-5.13 -1.6,-1.21 -3.31,-1.81 -5.15,-1.81 -2.72,0 -5.19,0.7 -7.46,2.13 -3.2,2.12 -6.62,5.71 -10.21,10.83l0 51.21c0,6.73 0.67,11.18 1.99,13.34 1.32,2.13 4.11,3.42 8.33,3.84l0 3.65 -49.19 0 0 -3.65c4,-0.42 6.86,-1.71 8.57,-3.91 1.15,-1.49 1.74,-5.92 1.74,-13.27l0 -53.89c0,-7.21 -0.66,-11.67 -2.02,-13.45 -1.33,-1.77 -4.08,-2.92 -8.29,-3.48l0 -3.76 38.87 0zm307.79 -42.99l0 37.48 -3.66 0c-2.2,-8.67 -4.6,-14.87 -7.25,-18.63 -2.68,-3.8 -6.3,-6.8 -10.94,-9.03 -2.58,-1.22 -7.1,-1.84 -13.55,-1.84l-10.31 0 0 106.74c0,7.07 0.38,11.49 1.15,13.27 0.8,1.77 2.33,3.31 4.6,4.63 2.26,1.36 5.4,2.02 9.33,2.02l4.6 0 0 3.76 -72.46 0 0 -3.76 4.6 0c4.01,0 7.25,-0.73 9.69,-2.16 1.77,-0.94 3.17,-2.58 4.18,-4.91 0.76,-1.64 1.15,-5.92 1.15,-12.85l0 -106.74 -10.04 0c-9.3,0 -16.09,1.98 -20.31,5.92 -5.88,5.5 -9.65,13.38 -11.21,23.58l-3.87 0 0 -37.48 124.3 0zm63.96 75.73l0 38.39c0,7.49 0.45,12.2 1.39,14.11 0.9,1.95 2.54,3.52 4.88,4.67 2.33,1.15 6.65,1.74 12.92,1.74l0 3.76 -70.33 0 0 -3.76c6.4,0 10.76,-0.59 13.02,-1.81 2.27,-1.18 3.87,-2.72 4.81,-4.63 0.91,-1.92 1.36,-6.59 1.36,-14.08l0 -89.81c0,-7.49 -0.45,-12.22 -1.36,-14.14 -0.94,-1.95 -2.54,-3.48 -4.88,-4.63 -2.3,-1.15 -6.61,-1.74 -12.95,-1.74l0 -3.8 60.33 0c19.86,0 34.11,3.55 42.75,10.62 8.64,7.08 12.96,15.92 12.96,26.55 0,8.95 -2.79,16.65 -8.37,23.06 -5.57,6.38 -13.27,10.73 -23.06,13.06 -6.58,1.64 -17.76,2.44 -33.47,2.44zm0 -67.75l0 59.81c2.26,0.14 3.97,0.21 5.12,0.21 8.29,0 14.66,-2.47 19.16,-7.42 4.49,-4.91 6.75,-12.58 6.75,-22.92 0,-10.28 -2.26,-17.77 -6.75,-22.54 -4.5,-4.78 -11.19,-7.14 -20.1,-7.14l-4.18 0zm78.17 99c4.77,0 8.78,1.67 12.09,4.98 3.31,3.35 4.94,7.35 4.94,12.06 0,4.7 -1.67,8.67 -4.98,11.98 -3.34,3.31 -7.35,4.95 -12.05,4.95 -4.7,0 -8.68,-1.64 -11.99,-4.95 -3.3,-3.31 -4.94,-7.28 -4.94,-11.98 0,-4.71 1.64,-8.71 4.94,-12.06 3.31,-3.31 7.29,-4.98 11.99,-4.98zm83.29 -35.11l0 42.85c0,7.07 0.39,11.49 1.15,13.27 0.8,1.77 2.34,3.31 4.6,4.63 2.27,1.36 5.37,2.02 9.23,2.02l4.6 0 0 3.76 -72.35 0 0 -3.76 4.59 0c4.01,0 7.25,-0.73 9.69,-2.16 1.77,-0.94 3.13,-2.58 4.07,-4.91 0.77,-1.64 1.15,-5.92 1.15,-12.85l0 -91.03c0,-7.07 -0.38,-11.5 -1.15,-13.28 -0.73,-1.77 -2.26,-3.3 -4.52,-4.63 -2.27,-1.32 -5.37,-1.98 -9.24,-1.98l-4.59 0 0 -3.8 72.35 0 0 3.8 -4.6 0c-4,0 -7.24,0.69 -9.68,2.12 -1.78,0.94 -3.17,2.58 -4.18,4.91 -0.73,1.64 -1.12,5.93 -1.12,12.86l0 39.19 48.88 0 0 -39.19c0,-7.07 -0.38,-11.5 -1.12,-13.28 -0.76,-1.77 -2.3,-3.3 -4.59,-4.63 -2.34,-1.32 -5.44,-1.98 -9.31,-1.98l-4.49 0 0 -3.8 72.29 0 0 3.8 -4.5 0c-4.07,0 -7.31,0.69 -9.72,2.12 -1.77,0.94 -3.17,2.58 -4.18,4.91 -0.73,1.64 -1.11,5.93 -1.11,12.86l0 91.03c0,7.07 0.38,11.49 1.11,13.27 0.73,1.77 2.27,3.31 4.6,4.63 2.33,1.36 5.43,2.02 9.3,2.02l4.5 0 0 3.76 -72.29 0 0 -3.76 4.49 0c4.08,0 7.32,-0.73 9.72,-2.16 1.78,-0.94 3.17,-2.58 4.18,-4.91 0.74,-1.64 1.12,-5.92 1.12,-12.85l0 -42.85 -48.88 0zm244.9 -75.01l0 47.94 -3.97 0c-2.99,-12.51 -8.57,-22.12 -16.75,-28.78 -8.16,-6.65 -17.42,-9.99 -27.77,-9.99 -8.64,0 -16.55,2.47 -23.76,7.45 -7.21,4.98 -12.5,11.46 -15.81,19.51 -4.29,10.28 -6.45,21.7 -6.45,34.28 0,12.36 1.57,23.65 4.7,33.82 3.14,10.18 8.05,17.88 14.71,23.07 6.65,5.19 15.29,7.8 25.91,7.8 8.71,0 16.69,-1.92 23.94,-5.71 7.24,-3.8 14.87,-10.38 22.92,-19.69l0 11.95c-7.77,8.08 -15.85,13.94 -24.25,17.6 -8.39,3.65 -18.22,5.46 -29.47,5.46 -14.73,0 -27.87,-2.96 -39.33,-8.88 -11.46,-5.92 -20.31,-14.42 -26.54,-25.5 -6.24,-11.11 -9.34,-22.92 -9.34,-35.43 0,-13.2 3.45,-25.71 10.38,-37.55 6.9,-11.85 16.2,-21.04 27.94,-27.56 11.74,-6.51 24.21,-9.79 37.41,-9.79 9.72,0 20,2.09 30.83,6.31 6.24,2.47 10.25,3.69 11.95,3.69 2.16,0 4.04,-0.8 5.65,-2.4 1.6,-1.6 2.64,-4.15 3.13,-7.6l3.97 0zm111.03 94.38l37.59 -91.24 56.33 0 0 3.8 -4.5 0c-4.07,0 -7.35,0.69 -9.79,2.12 -1.7,0.94 -3.1,2.54 -4.11,4.81 -0.73,1.64 -1.11,5.89 -1.11,12.75l0 91.24c0,7.07 0.38,11.49 1.11,13.27 0.77,1.77 2.3,3.31 4.6,4.63 2.34,1.36 5.44,2.02 9.3,2.02l4.5 0 0 3.76 -72.29 0 0 -3.76 4.5 0c4.07,0 7.35,-0.73 9.82,-2.16 1.71,-0.94 3.06,-2.58 4.07,-4.91 0.74,-1.64 1.12,-5.92 1.12,-12.85l0 -102.56 -53.06 126.24 -2.47 0 -53.89 -125.34 0 97.47c0,6.8 0.17,11.01 0.52,12.58 0.87,3.38 2.82,6.17 5.78,8.29 2.96,2.16 7.6,3.24 13.9,3.24l0 3.76 -47.34 0 0 -3.76 1.43 0c3.06,0.07 5.92,-0.42 8.57,-1.5 2.65,-1.04 4.67,-2.43 6.03,-4.21 1.35,-1.78 2.43,-4.29 3.17,-7.46 0.13,-0.76 0.2,-4.25 0.2,-10.41l0 -87.58c0,-7 -0.38,-11.39 -1.11,-13.1 -0.77,-1.74 -2.3,-3.27 -4.6,-4.6 -2.33,-1.32 -5.43,-1.98 -9.3,-1.98l-4.39 0 0 -3.8 56.54 0 38.88 91.24z"/>
  <g id="_105553728180768">
   <path class="fil1" d="M229.09 494.33l0 3.82c-5.79,3.8 -10.07,7.51 -12.8,11.13 -3.8,5.02 -6.74,11.47 -8.85,19.31 -2.68,9.73 -4.02,23.36 -4.02,40.85 0,16.49 1.23,29.29 3.65,38.45 2.43,9.13 5.71,16.52 9.9,22.14 2.88,3.9 6.93,7.33 12.12,10.29l0 4.17c-13.43,-4.51 -24.81,-13.72 -34.14,-27.61 -9.33,-13.9 -14.01,-29.87 -14.01,-47.93 0,-17.83 4.65,-33.63 13.95,-47.35 9.33,-13.72 20.71,-22.82 34.2,-27.27zm48.81 61.42l0 35.08c0,5.79 0.31,9.42 0.94,10.87 0.66,1.46 1.91,2.71 3.77,3.79 1.85,1.12 4.39,1.66 7.56,1.66l3.76 0 0 3.08 -59.24 0 0 -3.08 3.76 0c3.28,0 5.93,-0.6 7.93,-1.77 1.46,-0.77 2.57,-2.11 3.34,-4.02 0.63,-1.34 0.94,-4.85 0.94,-10.53l0 -74.53c0,-5.8 -0.31,-9.42 -0.94,-10.87 -0.6,-1.46 -1.86,-2.71 -3.71,-3.8 -1.85,-1.08 -4.39,-1.62 -7.56,-1.62l-3.76 0 0 -3.11 59.24 0 0 3.11 -3.76 0c-3.28,0 -5.94,0.57 -7.93,1.74 -1.46,0.77 -2.6,2.11 -3.43,4.02 -0.6,1.34 -0.91,4.85 -0.91,10.53l0 32.09 40.02 0 0 -32.09c0,-5.8 -0.31,-9.42 -0.91,-10.87 -0.63,-1.46 -1.88,-2.71 -3.77,-3.8 -1.91,-1.08 -4.45,-1.62 -7.61,-1.62l-3.68 0 0 -3.11 59.19 0 0 3.11 -3.68 0c-3.34,0 -5.99,0.57 -7.96,1.74 -1.45,0.77 -2.6,2.11 -3.42,4.02 -0.6,1.34 -0.92,4.85 -0.92,10.53l0 74.53c0,5.79 0.32,9.42 0.92,10.87 0.6,1.46 1.85,2.71 3.76,3.79 1.91,1.12 4.45,1.66 7.62,1.66l3.68 0 0 3.08 -59.19 0 0 -3.08 3.68 0c3.34,0 5.99,-0.6 7.96,-1.77 1.45,-0.77 2.59,-2.11 3.42,-4.02 0.6,-1.34 0.91,-4.85 0.91,-10.53l0 -35.08 -40.02 0zm200.53 -61.42l0 39.25 -3.25 0c-2.45,-10.24 -7.01,-18.11 -13.72,-23.56 -6.67,-5.45 -14.26,-8.19 -22.73,-8.19 -7.08,0 -13.55,2.03 -19.46,6.11 -5.9,4.08 -10.24,9.38 -12.95,15.97 -3.51,8.42 -5.27,17.77 -5.27,28.07 0,10.13 1.28,19.37 3.85,27.7 2.56,8.33 6.59,14.63 12.03,18.88 5.45,4.25 12.53,6.39 21.23,6.39 7.13,0 13.66,-1.57 19.59,-4.68 5.94,-3.11 12.18,-8.5 18.77,-16.11l0 9.78c-6.36,6.62 -12.98,11.41 -19.85,14.41 -6.87,2.99 -14.92,4.48 -24.13,4.48 -12.07,0 -22.82,-2.43 -32.21,-7.28 -9.38,-4.85 -16.63,-11.81 -21.73,-20.88 -5.11,-9.1 -7.65,-18.77 -7.65,-29.01 0,-10.81 2.83,-21.05 8.5,-30.75 5.65,-9.7 13.27,-17.23 22.88,-22.56 9.61,-5.34 19.82,-8.02 30.64,-8.02 7.95,0 16.37,1.71 25.24,5.16 5.11,2.03 8.39,3.03 9.78,3.03 1.77,0 3.31,-0.66 4.63,-1.97 1.31,-1.31 2.16,-3.4 2.56,-6.22l3.25 0zm90.92 77.28l30.77 -74.71 46.13 0 0 3.11 -3.68 0c-3.34,0 -6.02,0.57 -8.02,1.74 -1.39,0.77 -2.53,2.08 -3.36,3.93 -0.6,1.34 -0.91,4.82 -0.91,10.44l0 74.71c0,5.79 0.31,9.42 0.91,10.87 0.63,1.46 1.88,2.71 3.76,3.79 1.92,1.12 4.45,1.66 7.62,1.66l3.68 0 0 3.08 -59.19 0 0 -3.08 3.68 0c3.34,0 6.02,-0.6 8.04,-1.77 1.4,-0.77 2.51,-2.11 3.34,-4.02 0.6,-1.34 0.91,-4.85 0.91,-10.53l0 -83.98 -43.44 103.38 -2.03 0 -44.12 -102.63 0 79.81c0,5.56 0.14,9.01 0.42,10.3 0.72,2.76 2.31,5.05 4.74,6.79 2.42,1.76 6.22,2.65 11.38,2.65l0 3.08 -38.77 0 0 -3.08 1.17 0c2.51,0.06 4.85,-0.34 7.02,-1.23 2.17,-0.85 3.82,-1.99 4.94,-3.45 1.11,-1.45 1.99,-3.51 2.59,-6.1 0.12,-0.63 0.17,-3.48 0.17,-8.53l0 -71.72c0,-5.73 -0.31,-9.32 -0.91,-10.72 -0.63,-1.43 -1.88,-2.68 -3.77,-3.77 -1.91,-1.08 -4.44,-1.62 -7.61,-1.62l-3.6 0 0 -3.11 46.3 0 31.84 74.71zm194.23 -77.28l0 39.25 -3.26 0c-2.45,-10.24 -7.01,-18.11 -13.72,-23.56 -6.67,-5.45 -14.26,-8.19 -22.73,-8.19 -7.08,0 -13.55,2.03 -19.46,6.11 -5.9,4.08 -10.24,9.38 -12.95,15.97 -3.51,8.42 -5.27,17.77 -5.27,28.07 0,10.13 1.28,19.37 3.85,27.7 2.56,8.33 6.59,14.63 12.03,18.88 5.45,4.25 12.53,6.39 21.23,6.39 7.13,0 13.66,-1.57 19.59,-4.68 5.94,-3.11 12.18,-8.5 18.77,-16.11l0 9.78c-6.36,6.62 -12.98,11.41 -19.85,14.41 -6.87,2.99 -14.92,4.48 -24.13,4.48 -12.07,0 -22.82,-2.43 -32.21,-7.28 -9.38,-4.85 -16.63,-11.81 -21.73,-20.88 -5.11,-9.1 -7.65,-18.77 -7.65,-29.01 0,-10.81 2.83,-21.05 8.5,-30.75 5.65,-9.7 13.27,-17.23 22.88,-22.56 9.61,-5.34 19.82,-8.02 30.64,-8.02 7.95,0 16.37,1.71 25.24,5.16 5.11,2.03 8.39,3.03 9.78,3.03 1.77,0 3.31,-0.66 4.63,-1.97 1.31,-1.31 2.16,-3.4 2.56,-6.22l3.26 0zm166.38 0l0 39.25 -3.25 0c-2.45,-10.24 -7.01,-18.11 -13.72,-23.56 -6.67,-5.45 -14.26,-8.19 -22.73,-8.19 -7.08,0 -13.55,2.03 -19.46,6.11 -5.9,4.08 -10.24,9.38 -12.95,15.97 -3.51,8.42 -5.28,17.77 -5.28,28.07 0,10.13 1.29,19.37 3.86,27.7 2.56,8.33 6.58,14.63 12.03,18.88 5.45,4.25 12.53,6.39 21.23,6.39 7.13,0 13.66,-1.57 19.59,-4.68 5.94,-3.11 12.18,-8.5 18.77,-16.11l0 9.78c-6.36,6.62 -12.98,11.41 -19.85,14.41 -6.88,2.99 -14.92,4.48 -24.13,4.48 -12.07,0 -22.82,-2.43 -32.21,-7.28 -9.38,-4.85 -16.63,-11.81 -21.73,-20.88 -5.11,-9.1 -7.65,-18.77 -7.65,-29.01 0,-10.81 2.82,-21.05 8.5,-30.75 5.65,-9.7 13.27,-17.23 22.88,-22.56 9.61,-5.34 19.82,-8.02 30.63,-8.02 7.96,0 16.38,1.71 25.25,5.16 5.11,2.03 8.39,3.03 9.78,3.03 1.77,0 3.31,-0.66 4.62,-1.97 1.32,-1.31 2.17,-3.4 2.57,-6.22l3.25 0zm47.04 2.57l0 45.21c4.31,-4.51 8.22,-7.7 11.78,-9.56 3.57,-1.85 7.28,-2.79 11.13,-2.79 4.9,0 9.1,1.4 12.58,4.16 3.48,2.8 5.79,6.08 6.93,9.82 1.14,3.76 1.71,10.09 1.71,19.02l0 30.5c0,5.96 0.57,9.7 1.68,11.15 1.12,1.48 3.37,2.43 6.77,2.82l0 3 -39.63 0 0 -3c2.8,-0.39 4.88,-1.51 6.28,-3.36 1,-1.46 1.51,-4.99 1.51,-10.61l0 -34.83c0,-6.48 -0.26,-10.53 -0.77,-12.18 -0.48,-1.63 -1.34,-2.91 -2.54,-3.83 -1.2,-0.94 -2.54,-1.39 -4.05,-1.39 -2.22,0 -4.39,0.77 -6.5,2.31 -2.14,1.51 -4.42,4.19 -6.88,8.04l0 41.88c0,5.56 0.43,9.04 1.26,10.44 1.05,1.91 3.25,3.08 6.53,3.53l0 3 -39.62 0 0 -3c3.28,-0.34 5.62,-1.39 7.02,-3.19 0.94,-1.23 1.42,-4.82 1.42,-10.78l0 -79.39c0,-5.9 -0.54,-9.58 -1.62,-11.04 -1.09,-1.45 -3.37,-2.39 -6.82,-2.82l0 -3.11 31.83 0zm82.04 -2.65c3.62,0 6.71,1.25 9.22,3.79 2.48,2.54 3.73,5.59 3.73,9.16 0,3.56 -1.25,6.59 -3.79,9.1 -2.54,2.51 -5.59,3.76 -9.16,3.76 -3.56,0 -6.59,-1.25 -9.1,-3.76 -2.51,-2.51 -3.76,-5.54 -3.76,-9.1 0,-3.57 1.25,-6.62 3.76,-9.16 2.51,-2.54 5.54,-3.79 9.1,-3.79zm11.7 37.85l0 61.93c0,5.5 0.65,9.04 1.94,10.55 1.28,1.54 3.79,2.43 7.53,2.65l0 3 -42.22 0 0 -3c3.45,-0.11 6.02,-1.11 7.7,-3.02 1.11,-1.28 1.66,-4.68 1.66,-10.18l0 -45.64c0,-5.51 -0.63,-9.05 -1.91,-10.59 -1.29,-1.51 -3.77,-2.39 -7.45,-2.62l0 -3.08 32.75 0zm47.61 -35.2l0 97.13c0,5.5 0.65,9.04 1.94,10.55 1.28,1.54 3.76,2.43 7.5,2.65l0 3 -42.19 0 0 -3c3.45,-0.11 6.02,-1.11 7.7,-3.02 1.11,-1.28 1.66,-4.68 1.66,-10.18l0 -80.9c0,-5.45 -0.63,-8.96 -1.92,-10.5 -1.28,-1.54 -3.76,-2.42 -7.44,-2.62l0 -3.11 32.75 0zm92.9 0l0 89.94c0,6.07 0.17,9.67 0.52,10.78 0.43,1.83 1.28,3.2 2.54,4.08 1.25,0.88 3.45,1.46 6.56,1.68l0 2.74 -33.01 6.45 0 -12.38c-3.96,4.79 -7.47,8.04 -10.58,9.78 -3.08,1.74 -6.56,2.6 -10.47,2.6 -9.98,0 -17.86,-4.45 -23.65,-13.38 -4.7,-7.25 -7.04,-16.12 -7.04,-26.64 0,-8.42 1.45,-15.98 4.36,-22.62 2.88,-6.65 6.85,-11.7 11.9,-15.09 5.05,-3.4 10.47,-5.08 16.26,-5.08 3.73,0 7.04,0.71 9.95,2.17 2.88,1.45 5.99,3.96 9.27,7.58l0 -23.56c0,-5.96 -0.25,-9.55 -0.74,-10.78 -0.68,-1.63 -1.68,-2.82 -3.02,-3.59 -1.34,-0.77 -3.85,-1.17 -7.53,-1.17l0 -3.51 34.68 0zm-23.39 53c-4.13,-7.9 -9.15,-11.87 -15.12,-11.87 -2.08,0 -3.76,0.54 -5.1,1.66 -2.06,1.74 -3.74,4.76 -5.05,9.12 -1.31,4.34 -1.97,10.99 -1.97,19.97 0,9.84 0.71,17.15 2.17,21.88 1.45,4.74 3.42,8.16 5.93,10.3 1.29,1.05 3.03,1.57 5.28,1.57 4.88,0 9.5,-3.85 13.86,-11.53l0 -41.1zm246.15 -53l0 3.11c-2.11,0.17 -3.88,0.74 -5.34,1.74 -1.45,1 -2.73,2.54 -3.85,4.59 -0.34,0.68 -2.11,4.99 -5.27,12.95l-35.52 93.54 -3.25 0 -28.07 -73.06 -30.92 73.06 -3.11 0 -37.25 -92.51c-3.8,-9.33 -6.45,-14.95 -7.96,-16.89 -1.51,-1.97 -4.02,-3.11 -7.59,-3.42l0 -3.11 49.12 0 0 3.11c-3.96,0.11 -6.59,0.71 -7.87,1.79 -1.31,1.09 -1.97,2.43 -1.97,4.05 0,2.12 1.37,6.59 4.08,13.44l22.25 55 17.8 -42.96 -4.68 -12.04c-2.57,-6.56 -4.56,-10.95 -5.96,-13.15 -1.4,-2.2 -3,-3.77 -4.79,-4.71 -1.8,-0.94 -4.48,-1.42 -7.99,-1.42l0 -3.11 54.91 0 0 3.11c-3.85,0.05 -6.59,0.37 -8.27,0.91 -1.17,0.37 -2.11,1.03 -2.77,1.97 -0.66,0.91 -1,1.97 -1,3.14 0,1.28 1.26,5.19 3.77,11.78l20.65 53.65 18.46 -48.58c1.96,-4.99 3.16,-8.41 3.59,-10.26 0.46,-1.86 0.69,-3.54 0.69,-5.11 0,-2.28 -0.8,-4.08 -2.37,-5.39 -1.57,-1.29 -4.54,-2 -8.93,-2.11l0 -3.11 29.41 0zm63.98 71.45l-42.84 0c0.48,10.36 3.25,18.57 8.27,24.59 3.85,4.62 8.47,6.93 13.86,6.93 3.34,0 6.39,-0.94 9.1,-2.79 2.74,-1.88 5.68,-5.25 8.79,-10.07l2.82 1.83c-4.22,8.64 -8.9,14.74 -14.03,18.34 -5.11,3.59 -11.04,5.39 -17.8,5.39 -11.58,0 -20.37,-4.45 -26.33,-13.38 -4.79,-7.19 -7.19,-16.09 -7.19,-26.73 0,-13.03 3.54,-23.42 10.58,-31.15 7.05,-7.7 15.32,-11.55 24.79,-11.55 7.9,0 14.78,3.25 20.6,9.73 5.82,6.47 8.95,16.11 9.38,28.86zm-20.54 -5.59c0,-8.98 -0.48,-15.14 -1.48,-18.48 -0.97,-3.34 -2.48,-5.85 -4.54,-7.59 -1.17,-1 -2.73,-1.51 -4.67,-1.51 -2.91,0 -5.28,1.43 -7.11,4.28 -3.28,4.93 -4.93,11.72 -4.93,20.37l0 2.93 22.73 0zm60.9 -65.86l0 97.13c0,5.5 0.66,9.04 1.94,10.55 1.29,1.54 3.77,2.43 7.51,2.65l0 3 -42.19 0 0 -3c3.45,-0.11 6.02,-1.11 7.7,-3.02 1.11,-1.28 1.65,-4.68 1.65,-10.18l0 -80.9c0,-5.45 -0.62,-8.96 -1.91,-10.5 -1.28,-1.54 -3.76,-2.42 -7.44,-2.62l0 -3.11 32.74 0zm51.21 43.39l0 54.22c0,5.25 0.57,8.53 1.68,9.87 1.8,2.06 5.08,3 9.87,2.85l0 3 -46.07 0 0 -3c3.51,-0.05 6.02,-0.45 7.5,-1.22 1.46,-0.77 2.49,-1.8 3.06,-3.14 0.54,-1.34 0.82,-4.11 0.82,-8.36l0 -54.22 -11.38 0 0 -8.19 11.38 0 0 -5.76 -0.08 -3.94c0,-8.02 2.94,-14.72 8.81,-20.05 5.88,-5.34 13.84,-8.02 23.85,-8.02 6.87,0 11.95,1.28 15.26,3.82 3.31,2.57 4.96,5.42 4.96,8.53 0,2.51 -1.02,4.68 -3.08,6.53 -2.05,1.83 -4.79,2.74 -8.18,2.74 -2.88,0 -5.19,-0.74 -6.91,-2.25 -1.68,-1.51 -2.53,-3.17 -2.53,-5.02 0,-0.49 0.17,-1.51 0.48,-3.08 0.23,-0.94 0.34,-1.86 0.34,-2.68 0,-1.17 -0.34,-2.03 -1,-2.6 -0.88,-0.83 -1.96,-1.23 -3.25,-1.23 -1.62,0 -2.96,0.66 -4.05,2 -1.11,1.34 -1.65,3.48 -1.65,6.42l0.17 14.63 0 9.96 11.55 0 0 8.19 -11.55 0zm65.86 58.42c-9.52,8.41 -18.08,12.6 -25.67,12.6 -4.45,0 -8.16,-1.45 -11.1,-4.39 -2.93,-2.94 -4.42,-6.59 -4.42,-10.98 0,-5.96 2.57,-11.33 7.68,-16.09 5.13,-4.76 16.31,-11.1 33.51,-19l0 -7.87c0,-5.91 -0.31,-9.61 -0.97,-11.15 -0.65,-1.54 -1.85,-2.89 -3.62,-4.03 -1.8,-1.14 -3.79,-1.71 -6.02,-1.71 -3.62,0 -6.62,0.8 -8.96,2.43 -1.45,0.99 -2.16,2.16 -2.16,3.51 0,1.16 0.77,2.62 2.34,4.36 2.14,2.4 3.19,4.71 3.19,6.93 0,2.71 -1.03,5.05 -3.05,6.99 -2.03,1.91 -4.71,2.88 -7.99,2.88 -3.51,0 -6.45,-1.05 -8.81,-3.19 -2.37,-2.11 -3.57,-4.6 -3.57,-7.42 0,-4.02 1.6,-7.84 4.77,-11.5 3.16,-3.65 7.61,-6.44 13.29,-8.41 5.67,-1.94 11.58,-2.91 17.71,-2.91 7.42,0 13.3,1.57 17.6,4.71 4.31,3.16 7.11,6.56 8.39,10.24 0.77,2.34 1.17,7.73 1.17,16.14l0 30.32c0,3.57 0.14,5.82 0.43,6.74 0.28,0.91 0.71,1.59 1.25,2.05 0.54,0.43 1.2,0.66 1.91,0.66 1.46,0 2.94,-1.03 4.45,-3.08l2.48 1.99c-2.76,4.14 -5.64,7.13 -8.64,8.99 -2.99,1.85 -6.36,2.79 -10.15,2.79 -4.45,0 -7.93,-1.05 -10.44,-3.13 -2.51,-2.09 -4.05,-5.25 -4.6,-9.47zm0 -6.11l0 -26.16c-6.76,3.97 -11.75,8.19 -15.03,12.7 -2.2,2.99 -3.28,6.04 -3.28,9.1 0,2.56 0.91,4.82 2.77,6.79 1.39,1.51 3.33,2.25 5.84,2.25 2.8,0 6.02,-1.57 9.7,-4.68zm74.88 -60.5l0 17.71c5.17,-8.07 9.7,-13.43 13.61,-16.09 3.91,-2.65 7.67,-3.96 11.3,-3.96 3.1,0 5.61,0.97 7.47,2.88 1.85,1.91 2.79,4.62 2.79,8.13 0,3.74 -0.91,6.65 -2.71,8.7 -1.79,2.08 -3.99,3.11 -6.56,3.11 -2.93,0 -5.5,-0.94 -7.67,-2.85 -2.2,-1.91 -3.48,-2.97 -3.85,-3.17 -0.57,-0.34 -1.23,-0.51 -1.94,-0.51 -1.63,0 -3.14,0.6 -4.59,1.82 -2.28,1.91 -4,4.62 -5.17,8.13 -1.79,5.39 -2.68,11.36 -2.68,17.89l0 17.94 0.09 4.71c0,3.16 0.2,5.19 0.57,6.07 0.65,1.51 1.65,2.6 2.97,3.31 1.31,0.72 3.53,1.14 6.64,1.31l0 3 -42.19 0 0 -3c3.4,-0.28 5.68,-1.22 6.88,-2.82 1.2,-1.57 1.79,-5.76 1.79,-12.58l0 -43.19c0,-4.48 -0.22,-7.3 -0.65,-8.53 -0.54,-1.56 -1.37,-2.71 -2.43,-3.42 -1.05,-0.71 -2.93,-1.23 -5.59,-1.51l0 -3.08 31.92 0zm106.6 36.25l-42.84 0c0.48,10.36 3.25,18.57 8.27,24.59 3.85,4.62 8.47,6.93 13.86,6.93 3.34,0 6.39,-0.94 9.1,-2.79 2.74,-1.88 5.68,-5.25 8.79,-10.07l2.82 1.83c-4.22,8.64 -8.9,14.74 -14.03,18.34 -5.11,3.59 -11.04,5.39 -17.8,5.39 -11.58,0 -20.37,-4.45 -26.33,-13.38 -4.79,-7.19 -7.19,-16.09 -7.19,-26.73 0,-13.03 3.54,-23.42 10.58,-31.15 7.05,-7.7 15.32,-11.55 24.79,-11.55 7.9,0 14.78,3.25 20.6,9.73 5.82,6.47 8.95,16.11 9.38,28.86zm-20.54 -5.59c0,-8.98 -0.48,-15.14 -1.48,-18.48 -0.97,-3.34 -2.48,-5.85 -4.54,-7.59 -1.16,-1 -2.73,-1.51 -4.67,-1.51 -2.91,0 -5.28,1.43 -7.11,4.28 -3.28,4.93 -4.93,11.72 -4.93,20.37l0 2.93 22.73 0zm129.08 15.21l-40.02 0 -4.76 11.04c-1.57,3.68 -2.34,6.7 -2.34,9.1 0,3.16 1.28,5.5 3.85,7.01 1.51,0.89 5.19,1.57 11.09,2.03l0 3.08 -37.68 0 0 -3.08c4.08,-0.63 7.42,-2.31 10.01,-5.08 2.63,-2.77 5.85,-8.44 9.7,-17.09l40.54 -90.42 1.6 0 40.84 92.93c3.91,8.82 7.14,14.35 9.62,16.63 1.91,1.75 4.59,2.74 8.04,3.03l0 3.08 -54.82 0 0 -3.08 2.25 0c4.39,0 7.47,-0.63 9.27,-1.86 1.23,-0.88 1.85,-2.16 1.85,-3.85 0,-0.99 -0.17,-2.02 -0.51,-3.08 -0.11,-0.48 -0.94,-2.59 -2.51,-6.27l-6.02 -14.12zm-2.85 -6.19l-16.86 -39.03 -17.4 39.03 34.26 0zm110.42 -41.85l1.26 26.64 -2.86 0c-3.39,-7.9 -6.93,-13.32 -10.58,-16.2 -3.65,-2.91 -7.27,-4.36 -10.9,-4.36 -2.28,0 -4.22,0.77 -5.84,2.31 -1.63,1.54 -2.43,3.31 -2.43,5.3 0,1.51 0.57,2.94 1.68,4.34 1.77,2.28 6.76,6.19 14.95,11.75 8.19,5.56 13.58,10.27 16.18,14.12 2.59,3.88 3.88,8.22 3.88,13.01 0,4.33 -1.09,8.58 -3.26,12.78 -2.16,4.19 -5.22,7.39 -9.18,9.61 -3.97,2.23 -8.33,3.34 -13.12,3.34 -3.74,0 -8.73,-1.17 -14.98,-3.51 -1.68,-0.6 -2.82,-0.91 -3.42,-0.91 -1.86,0 -3.37,1.39 -4.6,4.16l-2.76 0 -1.34 -28.07 2.85 0c2.51,7.36 5.96,12.87 10.33,16.55 4.36,3.68 8.5,5.5 12.4,5.5 2.69,0 4.88,-0.82 6.57,-2.45 1.68,-1.65 2.53,-3.65 2.53,-5.99 0,-2.65 -0.82,-4.96 -2.51,-6.93 -1.68,-1.94 -5.39,-4.88 -11.18,-8.84 -8.53,-5.91 -14.03,-10.45 -16.54,-13.55 -3.68,-4.57 -5.54,-9.62 -5.54,-15.12 0,-6.02 2.09,-11.47 6.25,-16.35 4.14,-4.88 10.16,-7.3 18,-7.3 4.25,0 8.33,1.03 12.29,3.08 1.52,0.83 2.71,1.26 3.66,1.26 0.99,0 1.82,-0.2 2.42,-0.63 0.63,-0.43 1.6,-1.6 2.94,-3.54l2.85 0zm66.58 0l1.25 26.64 -2.85 0c-3.39,-7.9 -6.93,-13.32 -10.58,-16.2 -3.65,-2.91 -7.28,-4.36 -10.9,-4.36 -2.28,0 -4.22,0.77 -5.85,2.31 -1.62,1.54 -2.42,3.31 -2.42,5.3 0,1.51 0.57,2.94 1.68,4.34 1.77,2.28 6.76,6.19 14.95,11.75 8.19,5.56 13.58,10.27 16.17,14.12 2.6,3.88 3.88,8.22 3.88,13.01 0,4.33 -1.08,8.58 -3.25,12.78 -2.17,4.19 -5.22,7.39 -9.18,9.61 -3.97,2.23 -8.33,3.34 -13.13,3.34 -3.73,0 -8.72,-1.17 -14.97,-3.51 -1.68,-0.6 -2.83,-0.91 -3.42,-0.91 -1.86,0 -3.37,1.39 -4.6,4.16l-2.76 0 -1.34 -28.07 2.85 0c2.51,7.36 5.96,12.87 10.32,16.55 4.37,3.68 8.5,5.5 12.41,5.5 2.68,0 4.88,-0.82 6.56,-2.45 1.69,-1.65 2.54,-3.65 2.54,-5.99 0,-2.65 -0.82,-4.96 -2.51,-6.93 -1.68,-1.94 -5.39,-4.88 -11.18,-8.84 -8.53,-5.91 -14.03,-10.45 -16.54,-13.55 -3.68,-4.57 -5.54,-9.62 -5.54,-15.12 0,-6.02 2.08,-11.47 6.25,-16.35 4.13,-4.88 10.15,-7.3 18,-7.3 4.25,0 8.33,1.03 12.29,3.08 1.51,0.83 2.71,1.26 3.65,1.26 1,0 1.83,-0.2 2.43,-0.63 0.63,-0.43 1.6,-1.6 2.94,-3.54l2.85 0zm54.03 -0.17c6.81,0 13.12,1.74 18.97,5.25 5.84,3.51 10.29,8.5 13.32,14.97 3.05,6.48 4.56,13.55 4.56,21.23 0,11.09 -2.82,20.36 -8.44,27.81 -6.79,9.04 -16.18,13.55 -28.16,13.55 -11.75,0 -20.79,-4.14 -27.15,-12.38 -6.36,-8.25 -9.53,-17.77 -9.53,-28.64 0,-11.21 3.25,-20.97 9.73,-29.3 6.47,-8.33 15.37,-12.49 26.7,-12.49zm0.34 5.93c-2.85,0 -5.28,1.09 -7.3,3.23 -2.03,2.14 -3.37,6.36 -4.03,12.69 -0.65,6.3 -0.97,15.09 -0.97,26.36 0,5.96 0.4,11.55 1.17,16.71 0.6,3.97 1.91,6.96 3.94,9.02 2,2.08 4.28,3.11 6.85,3.11 2.51,0 4.59,-0.69 6.27,-2.09 2.17,-1.91 3.62,-4.56 4.34,-7.95 1.11,-5.28 1.68,-15.98 1.68,-32.1 0,-9.47 -0.54,-15.97 -1.6,-19.51 -1.05,-3.53 -2.62,-6.1 -4.68,-7.73 -1.45,-1.17 -3.33,-1.74 -5.67,-1.74zm112.16 54.4l2.57 2c-3.68,6.93 -8.25,12.06 -13.75,15.43 -5.48,3.37 -11.3,5.05 -17.49,5.05 -10.41,0 -18.74,-3.94 -24.99,-11.78 -6.24,-7.85 -9.35,-17.29 -9.35,-28.33 0,-10.64 2.82,-20.02 8.5,-28.1 6.87,-9.72 16.31,-14.6 28.35,-14.6 8.08,0 14.49,2.02 19.26,6.1 4.76,4.05 7.13,8.59 7.13,13.61 0,3.17 -0.97,5.71 -2.88,7.62 -1.91,1.88 -4.45,2.82 -7.56,2.82 -3.28,0 -6.02,-1.08 -8.16,-3.25 -2.14,-2.17 -3.45,-6.05 -3.97,-11.61 -0.31,-3.51 -1.14,-5.96 -2.42,-7.36 -1.28,-1.4 -2.77,-2.08 -4.51,-2.08 -2.68,0 -4.96,1.42 -6.84,4.25 -2.88,4.3 -4.34,10.87 -4.34,19.74 0,7.33 1.17,14.37 3.51,21.08 2.34,6.7 5.53,11.72 9.58,15 3.09,2.4 6.71,3.6 10.87,3.6 2.74,0 5.34,-0.63 7.79,-1.92 2.45,-1.28 5.36,-3.7 8.7,-7.27zm30.98 -95.84c3.62,0 6.7,1.25 9.21,3.79 2.48,2.54 3.74,5.59 3.74,9.16 0,3.56 -1.26,6.59 -3.79,9.1 -2.54,2.51 -5.6,3.76 -9.16,3.76 -3.57,0 -6.59,-1.25 -9.1,-3.76 -2.51,-2.51 -3.77,-5.54 -3.77,-9.1 0,-3.57 1.26,-6.62 3.77,-9.16 2.51,-2.54 5.53,-3.79 9.1,-3.79zm11.69 37.85l0 61.93c0,5.5 0.66,9.04 1.94,10.55 1.29,1.54 3.8,2.43 7.53,2.65l0 3 -42.21 0 0 -3c3.45,-0.11 6.02,-1.11 7.7,-3.02 1.11,-1.28 1.65,-4.68 1.65,-10.18l0 -45.64c0,-5.51 -0.62,-9.05 -1.91,-10.59 -1.28,-1.51 -3.76,-2.39 -7.44,-2.62l0 -3.08 32.74 0zm60.16 66.61c-9.52,8.41 -18.08,12.6 -25.67,12.6 -4.45,0 -8.16,-1.45 -11.09,-4.39 -2.94,-2.94 -4.43,-6.59 -4.43,-10.98 0,-5.96 2.57,-11.33 7.68,-16.09 5.13,-4.76 16.31,-11.1 33.51,-19l0 -7.87c0,-5.91 -0.31,-9.61 -0.97,-11.15 -0.65,-1.54 -1.85,-2.89 -3.62,-4.03 -1.79,-1.14 -3.79,-1.71 -6.02,-1.71 -3.62,0 -6.61,0.8 -8.95,2.43 -1.46,0.99 -2.17,2.16 -2.17,3.51 0,1.16 0.77,2.62 2.34,4.36 2.14,2.4 3.19,4.71 3.19,6.93 0,2.71 -1.02,5.05 -3.05,6.99 -2.03,1.91 -4.71,2.88 -7.99,2.88 -3.51,0 -6.44,-1.05 -8.81,-3.19 -2.37,-2.11 -3.57,-4.6 -3.57,-7.42 0,-4.02 1.6,-7.84 4.77,-11.5 3.16,-3.65 7.61,-6.44 13.29,-8.41 5.68,-1.94 11.58,-2.91 17.71,-2.91 7.42,0 13.3,1.57 17.6,4.71 4.31,3.16 7.11,6.56 8.39,10.24 0.77,2.34 1.17,7.73 1.17,16.14l0 30.32c0,3.57 0.14,5.82 0.43,6.74 0.28,0.91 0.71,1.59 1.25,2.05 0.54,0.43 1.2,0.66 1.91,0.66 1.46,0 2.94,-1.03 4.45,-3.08l2.49 1.99c-2.77,4.14 -5.65,7.13 -8.65,8.99 -2.99,1.85 -6.36,2.79 -10.15,2.79 -4.45,0 -7.93,-1.05 -10.44,-3.13 -2.51,-2.09 -4.05,-5.25 -4.6,-9.47zm0 -6.11l0 -26.16c-6.76,3.97 -11.75,8.19 -15.03,12.7 -2.19,2.99 -3.28,6.04 -3.28,9.1 0,2.56 0.91,4.82 2.77,6.79 1.4,1.51 3.34,2.25 5.85,2.25 2.79,0 6.01,-1.57 9.69,-4.68zm73.46 -89.08l0 28.58 18.54 0 0 8.27 -18.54 0 0 48.21c0,4.53 0.2,7.44 0.63,8.73 0.42,1.31 1.16,2.37 2.22,3.19 1.06,0.8 2.03,1.2 2.91,1.2 3.62,0 7.07,-2.77 10.3,-8.27l2.48 1.85c-4.51,10.7 -11.84,16.03 -21.97,16.03 -4.96,0 -9.15,-1.37 -12.58,-4.13 -3.42,-2.77 -5.61,-5.85 -6.56,-9.24 -0.54,-1.89 -0.82,-7.02 -0.82,-15.38l0 -42.19 -10.22 0 0 -2.94c7.02,-4.96 13.01,-10.18 17.95,-15.63 4.93,-5.45 9.21,-11.55 12.89,-18.28l2.77 0z"/>
   <path class="fil1" d="M2507.19 494.25c3.63,0 6.71,1.25 9.22,3.79 2.48,2.54 3.73,5.59 3.73,9.16 0,3.56 -1.25,6.59 -3.79,9.1 -2.54,2.51 -5.59,3.76 -9.16,3.76 -3.56,0 -6.59,-1.25 -9.1,-3.76 -2.51,-2.51 -3.76,-5.54 -3.76,-9.1 0,-3.57 1.25,-6.62 3.76,-9.16 2.51,-2.54 5.54,-3.79 9.1,-3.79zm11.7 37.85l0 61.93c0,5.5 0.65,9.04 1.94,10.55 1.28,1.54 3.79,2.43 7.53,2.65l0 3 -42.22 0 0 -3c3.45,-0.11 6.02,-1.11 7.7,-3.02 1.12,-1.28 1.66,-4.68 1.66,-10.18l0 -45.64c0,-5.51 -0.63,-9.05 -1.91,-10.59 -1.29,-1.51 -3.77,-2.39 -7.45,-2.62l0 -3.08 32.75 0zm53.88 -2.34c6.82,0 13.12,1.74 18.97,5.25 5.85,3.51 10.3,8.5 13.32,14.97 3.06,6.48 4.57,13.55 4.57,21.23 0,11.09 -2.83,20.36 -8.45,27.81 -6.78,9.04 -16.17,13.55 -28.15,13.55 -11.75,0 -20.8,-4.14 -27.16,-12.38 -6.36,-8.25 -9.52,-17.77 -9.52,-28.64 0,-11.21 3.25,-20.97 9.72,-29.3 6.48,-8.33 15.38,-12.49 26.7,-12.49zm0.34 5.93c-2.85,0 -5.27,1.09 -7.3,3.23 -2.02,2.14 -3.36,6.36 -4.02,12.69 -0.66,6.3 -0.97,15.09 -0.97,26.36 0,5.96 0.4,11.55 1.17,16.71 0.6,3.97 1.91,6.96 3.94,9.02 1.99,2.08 4.28,3.11 6.84,3.11 2.51,0 4.6,-0.69 6.28,-2.09 2.17,-1.91 3.62,-4.56 4.33,-7.95 1.12,-5.28 1.69,-15.98 1.69,-32.1 0,-9.47 -0.54,-15.97 -1.6,-19.51 -1.06,-3.53 -2.62,-6.1 -4.68,-7.73 -1.45,-1.17 -3.34,-1.74 -5.68,-1.74zm80.3 -3.59l0 10.1c4.03,-4.34 7.88,-7.51 11.56,-9.47 3.68,-1.97 7.61,-2.97 11.86,-2.97 5.05,0 9.27,1.4 12.61,4.22 3.34,2.83 5.56,6.31 6.68,10.47 0.88,3.17 1.34,9.27 1.34,18.31l0 30.41c0,6.02 0.54,9.79 1.62,11.24 1.09,1.48 3.37,2.43 6.82,2.82l0 3 -39.54 0 0 -3c2.97,-0.39 5.08,-1.62 6.37,-3.68 0.88,-1.39 1.34,-4.87 1.34,-10.38l0 -34.74c0,-6.42 -0.26,-10.44 -0.75,-12.13 -0.51,-1.68 -1.36,-2.96 -2.56,-3.88 -1.2,-0.94 -2.51,-1.39 -3.97,-1.39 -4.79,0 -9.24,3.42 -13.38,10.29l0 41.85c0,5.85 0.55,9.56 1.63,11.13 1.11,1.57 3.14,2.54 6.08,2.93l0 3 -39.54 0 0 -3c3.28,-0.34 5.62,-1.39 7.02,-3.19 0.94,-1.23 1.42,-4.85 1.42,-10.87l0 -44.13c0,-5.9 -0.54,-9.55 -1.62,-11.01 -1.09,-1.45 -3.37,-2.39 -6.82,-2.85l0 -3.08 31.83 0zm59.57 112.39l0 -3.85c5.79,-3.85 10.06,-7.56 12.77,-11.18 3.74,-5.02 6.71,-11.44 8.88,-19.23 2.68,-9.81 4.02,-23.48 4.02,-40.96 0,-16.49 -1.23,-29.3 -3.65,-38.4 -2.43,-9.1 -5.71,-16.49 -9.9,-22.11 -2.88,-3.9 -6.93,-7.33 -12.12,-10.26l0 -4.17c13.43,4.51 24.81,13.72 34.14,27.61 9.33,13.9 14.01,29.87 14.01,47.93 0,17.77 -4.68,33.54 -14.01,47.26 -9.33,13.72 -20.71,22.85 -34.14,27.36z"/>
  </g>
  <path class="fil2" d="M3366.1 324.38l0 6.04c0,2.94 2.95,11.24 4.07,14.08 1.4,3.58 2.79,5.22 4.46,6.88 0.99,1 2.09,2 3.35,3.44 5.08,5.8 15.27,11.13 25.9,11.13l3.77 0c18.39,0 37.02,-17.87 37.02,-34.77l0 -9.83c0,-7.22 -8.12,-21.2 -12.67,-24.35 -8.38,-5.79 -13.29,-9.66 -27.37,-9.66l-1.51 0c-18.74,0 -37.02,18.34 -37.02,37.04z"/>
  <path class="fil2" d="M3326.81 464.22c2.7,-0.72 11.94,-10.47 15.12,-12.84 5.21,-3.86 9.91,-8.68 16.3,-11.66 12.35,-5.78 24.25,-14.05 41.87,-14.05l11.33 0c5.8,0 16.63,3.96 22.34,5.62 7.3,2.11 12.66,6 18.61,9.35 5.31,3 12.48,7.32 16.66,11.3 2.09,2 13.3,11.96 15.46,12.98 -2.72,-26.29 -6.03,-47.51 -14.55,-72.85 -1.46,-4.34 -13.54,-30.65 -16.21,-30.65 -0.5,0 -24.24,21.92 -49.11,21.92l-6.04 0c-9.05,0 -28.98,-9.3 -37.93,-17.06 -2.35,-2.05 -3.95,-3.98 -4.38,-5.62 -4.07,0 -17.22,40.98 -19.21,48.06 -3.5,12.47 -10.26,41.48 -10.26,55.5z"/>
  <path class="fil2" d="M3337.39 509.58l0 4.53c0,34.12 31.94,65.01 66.49,65.01l1.51 0c18.71,0 31.4,-6.52 45.17,-17.54 5.45,-4.35 7.84,-7.34 12.06,-12.88 1.81,-2.37 6.85,-13.31 7.58,-16.6 1.05,-4.71 3.8,-16.34 3.2,-21.77l-1.53 -16.63c-2.62,-3.92 -1.44,-5.73 -4.07,-9.52 -2.35,-3.37 -2.48,-5.85 -5.03,-9.34 -5.36,-7.37 -5.82,-8.85 -12.94,-15.02 -7.62,-6.6 -25.66,-16.76 -39.15,-16.76l-4.54 0c-36.81,0 -68.75,30.63 -68.75,66.52z"/>
  <path class="fil2" d="M3253.53 525.45l2.58 31.96c1.91,13.13 4.77,24.95 11.61,37.24 2.42,4.37 4.83,8.48 6.32,12.33 3.11,8.04 16.15,22.77 22.36,29.03 9.79,9.85 17.57,14.39 29.21,22.18 5.88,3.94 27.7,15.42 35.96,15.42 6.64,4.46 29.56,6.81 41.55,6.81l6.8 0c9.79,0 34.66,-4.71 40.04,-8.32 6.49,0 32.47,-12.39 36.46,-15.68 3.85,-3.19 10.76,-7.43 15.24,-10.46 4.92,-3.32 9.74,-8.18 14.24,-12.21 6.18,-5.54 13.2,-14.82 18.79,-23.07 1.47,-2.17 2.84,-4.27 4.07,-6.21 3.26,-5.15 6.23,-12.35 8.57,-17.89 6.81,-16.15 8.13,-31.75 9.92,-49.03l0 -10.58c0,-10.69 -1.24,-17.92 -2.2,-26.53 -1.56,-13.86 -5.53,-31.23 -11.08,-44.1 -3.08,-7.13 -3.92,-11.82 -7.5,-18.95 -11.85,-23.52 -23.14,-49.73 -40.63,-69.71 -4.56,-5.2 -22.98,-29.18 -27.74,-30.45 0.48,2.06 13.19,22.41 15.75,28.08 3.53,7.8 11.87,22.01 13.66,30.17 1,4.5 3.87,11.98 5.35,16.57 2.11,6.53 2.21,11.18 4.07,17.85 3.06,10.97 5.74,24.76 5.74,38.1 0,28.95 -6.79,54.46 -20.15,81.89 -3.36,6.91 -16.42,20.11 -22.44,25.17 -17.36,14.6 -37.73,25.99 -69.23,25.99l-5.28 0c-10.85,0 -32.79,-9.08 -39.4,-13.5 -12.85,-8.6 -18.54,-13.66 -28.8,-24.86 -13.24,-14.46 -29.27,-50.07 -29.27,-77.3l0 -15.88c0,-20.08 8.51,-62.12 14.57,-76.13 3.97,-9.2 8.76,-22.96 13.64,-31.71 2.55,-4.56 15.82,-26.61 16.37,-28.98 -4.99,1.34 -28.93,31.4 -33.17,37.12 -5.34,7.21 -9.01,13.27 -13.7,21.07 -3.7,6.15 -10.18,16.15 -12.97,22.55 -13.78,31.65 -29.31,67.2 -29.31,112.02z"/>
  <path class="fil2" d="M3158.83 3.11l493.12 0c36.84,0 66.98,31.63 66.98,70.29l0 727.22c0,38.66 -30.14,70.29 -66.98,70.29l-493.12 0c-36.84,0 -66.99,-31.63 -66.99,-70.29l0 -727.22c0,-38.66 30.15,-70.29 66.99,-70.29zm0 15.76l493.12 0c28.17,0 51.22,24.54 51.22,54.53l0 727.22c0,29.99 -23.05,54.53 -51.22,54.53l-493.12 0c-28.18,0 -51.23,-24.54 -51.23,-54.53l0 -727.22c0,-29.99 23.05,-54.53 51.23,-54.53z"/>
  <path class="fil3" d="M3192.15 103.34l-20.85 0 0 23.94 -11.14 0 0 -53.39 11.14 0 0 20.23 20.85 0 0 -20.23 11.14 0 0 53.39 -11.14 0 0 -23.94zm21.85 -2.82c0,-7.6 1.68,-13.74 5.04,-18.38 2.64,-3.69 6.24,-6.33 10.79,-7.95 3.27,-1.19 6.58,-1.78 9.91,-1.78 3.36,0 6.61,0.57 9.73,1.71 4.55,1.67 8.14,4.32 10.78,7.95 3.38,4.65 5.06,10.8 5.06,18.45 0,7.57 -1.68,13.72 -5.06,18.44 -2.64,3.66 -6.23,6.33 -10.78,8.03 -3.21,1.18 -6.46,1.77 -9.73,1.77 -3.43,0 -6.72,-0.57 -9.84,-1.71 -4.55,-1.7 -8.14,-4.34 -10.78,-7.94 -3.41,-4.77 -5.12,-10.97 -5.12,-18.59zm11.14 0c0,6.73 1.66,11.72 4.98,14.99 2.54,2.49 5.74,3.75 9.62,3.75 3.76,0 6.91,-1.26 9.45,-3.75 3.31,-3.27 4.97,-8.26 4.97,-14.99 0,-6.71 -1.66,-11.68 -4.97,-14.89 -2.54,-2.47 -5.69,-3.71 -9.45,-3.71 -3.78,0 -6.95,1.24 -9.54,3.71 -3.37,3.26 -5.06,8.23 -5.06,14.89zm19.21 31.22l0 8.61 -9.37 0 0 -8.61 9.37 0zm-0.07 -74.07l8.46 10.86 -8.31 0 -4.76 -6.1 -4.79 6.1 -8.31 0 8.49 -10.86 9.22 0zm38.71 16.22l0 53.39 -11.15 0 0 -53.39 11.15 0zm33.42 53.39l0 -53.39 26.04 0c5.84,0 10.19,1.59 13.07,4.76 2.18,2.42 3.27,5.39 3.27,8.9 0,3.34 -0.78,5.96 -2.35,7.88 -0.96,1.16 -2.35,2.15 -4.18,2.98 3.07,1.2 5.28,3.02 6.6,5.44 1.17,2.03 1.75,4.54 1.75,7.52 0,2.17 -0.39,4.19 -1.2,6.05 -0.81,1.85 -1.95,3.5 -3.42,4.95 -1.84,1.75 -3.67,2.94 -5.52,3.57 -2.59,0.89 -6.39,1.34 -11.44,1.34l-22.62 0zm10.71 -23.5l0 14.27 13.7 0c2.81,0 4.94,-0.63 6.41,-1.88 1.46,-1.26 2.19,-3.26 2.19,-6 0,-2.13 -0.77,-3.73 -2.31,-4.79 -1.53,-1.07 -3.44,-1.6 -5.71,-1.6l-14.28 0zm0 -20.69l0 11.61 13.08 0c2.39,0 4.26,-0.44 5.59,-1.34 1.52,-1.04 2.29,-2.57 2.29,-4.61 0,-2.08 -0.68,-3.54 -2.03,-4.4 -1.35,-0.84 -3.4,-1.26 -6.14,-1.26l-12.79 0zm55.34 33.18l-3.7 11.01 -11.76 0 19.02 -53.39 12.97 0 18.72 53.39 -12.04 0 -3.43 -11.01 -19.78 0zm2.98 -9.22l13.68 0 -6.7 -21.13 -6.98 21.13zm9.76 -38.09l-5.3 0c0,-2.29 0.21,-4.04 0.64,-5.23 0.43,-1.19 1.33,-2.27 2.72,-3.25 1.4,-0.98 2.09,-1.99 2.09,-3.03 0,-1.05 -0.27,-1.79 -0.81,-2.22 -0.55,-0.44 -1.18,-0.65 -1.91,-0.65 -1.14,0 -1.92,0.31 -2.36,0.94 -0.43,0.64 -0.65,1.62 -0.65,2.94l-5.82 0.11c0,-3.22 0.93,-5.56 2.8,-7.04 1.58,-1.26 3.49,-1.89 5.74,-1.89 1.99,0 3.73,0.38 5.23,1.16 2.59,1.33 3.88,3.49 3.88,6.47 0,1.4 -0.33,2.58 -1,3.53 -0.66,0.96 -1.7,1.95 -3.13,2.95 -1.41,1.01 -2.12,2.74 -2.12,5.21zm27.56 31.56c0,-7.6 1.68,-13.74 5.04,-18.38 2.64,-3.69 6.24,-6.33 10.79,-7.95 3.27,-1.19 6.58,-1.78 9.91,-1.78 3.36,0 6.61,0.57 9.73,1.71 4.55,1.67 8.14,4.32 10.78,7.95 3.37,4.65 5.06,10.8 5.06,18.45 0,7.57 -1.69,13.72 -5.06,18.44 -2.64,3.66 -6.23,6.33 -10.78,8.03 -3.21,1.18 -6.46,1.77 -9.73,1.77 -3.43,0 -6.72,-0.57 -9.84,-1.71 -4.55,-1.7 -8.14,-4.34 -10.78,-7.94 -3.41,-4.77 -5.12,-10.97 -5.12,-18.59zm11.14 0c0,6.73 1.66,11.72 4.98,14.99 2.54,2.49 5.74,3.75 9.62,3.75 3.76,0 6.9,-1.26 9.45,-3.75 3.3,-3.27 4.97,-8.26 4.97,-14.99 0,-6.71 -1.67,-11.68 -4.97,-14.89 -2.55,-2.47 -5.69,-3.71 -9.45,-3.71 -3.78,0 -6.95,1.24 -9.54,3.71 -3.37,3.26 -5.06,8.23 -5.06,14.89zm92.19 -17.26l0 44.02 -11.18 0 0 -44.02 -16.2 0 0 -9.37 43.43 0 0 9.37 -16.05 0zm24.94 44.02l0 -53.39 27.05 0c6.2,0 10.76,1.9 13.69,5.7 2.08,2.74 3.12,5.84 3.12,9.3 0,3.04 -0.73,5.7 -2.19,8.01 -1.46,2.32 -3.51,3.9 -6.12,4.78 2.51,1.1 4.2,2.36 5.04,3.73 1.19,1.95 1.78,5.21 1.78,9.81 0,3.68 0.07,6.24 0.2,7.68 0.14,1.44 0.87,2.41 2.2,2.89l0 1.49 -12.35 0c-0.38,-1.38 -0.68,-2.84 -0.88,-4.38 -0.21,-1.54 -0.31,-3.69 -0.31,-6.48 0,-4.02 -0.42,-6.62 -1.27,-7.81 -1.1,-1.55 -3.6,-2.32 -7.52,-2.32l-11.44 0 0 20.99 -11 0zm11 -29.89l13.11 0c2.96,0 5.13,-0.57 6.51,-1.72 1.41,-1.15 2.1,-3.01 2.1,-5.58 0,-1.84 -0.5,-3.36 -1.49,-4.53 -1.32,-1.65 -3.46,-2.47 -6.39,-2.47l-13.84 0 0 14.3zm53.7 3.13c0,6.73 1.66,11.72 4.98,14.99 2.54,2.49 5.74,3.75 9.62,3.75 3.75,0 6.9,-1.26 9.44,-3.75 3.31,-3.27 4.97,-8.26 4.97,-14.99 0,-6.71 -1.66,-11.68 -4.97,-14.89 -2.54,-2.47 -5.69,-3.71 -9.44,-3.71 -3.78,0 -6.96,1.24 -9.55,3.71 -3.37,3.26 -5.05,8.23 -5.05,14.89zm19.21 31.22l0 8.61 -9.37 0 0 -8.61 9.37 0zm11.87 -53.99c1.04,-0.54 1.85,-1.42 2.42,-2.63 0.57,-1.23 0.85,-2.43 0.85,-3.62l-3.85 0 0 -6.1 8.79 0 0 6.25c0,2.03 -0.3,3.67 -0.91,4.9 -0.8,1.64 -2.24,2.98 -4.32,4.02 1.99,2.19 3.5,4.9 4.55,8.15 1.04,3.23 1.56,7.17 1.56,11.8 0,7.57 -1.69,13.72 -5.06,18.44 -2.64,3.66 -6.23,6.33 -10.78,8.03 -3.21,1.18 -6.46,1.77 -9.73,1.77 -3.44,0 -6.72,-0.57 -9.84,-1.71 -4.55,-1.7 -8.15,-4.34 -10.79,-7.94 -3.41,-4.77 -5.12,-10.97 -5.12,-18.59 0,-7.6 1.69,-13.74 5.05,-18.38 2.64,-3.69 6.23,-6.33 10.78,-7.95 3.27,-1.19 6.58,-1.78 9.92,-1.78 2.61,0 5.09,0.29 7.41,0.88 3.43,0.89 6.46,2.38 9.07,4.46z"/>
  <path class="fil3" d="M3290.6 188.56l0 44.01 -11.18 0 0 -44.01 -16.2 0 0 -9.37 43.43 0 0 9.37 -16.05 0zm24.93 44.01l0 -53.38 27.06 0c6.2,0 10.76,1.9 13.68,5.7 2.09,2.74 3.13,5.84 3.13,9.3 0,3.03 -0.73,5.7 -2.2,8 -1.46,2.32 -3.5,3.91 -6.12,4.79 2.52,1.1 4.2,2.35 5.05,3.73 1.19,1.94 1.78,5.2 1.78,9.8 0,3.68 0.06,6.25 0.2,7.69 0.13,1.43 0.87,2.4 2.19,2.88l0 1.49 -12.34 0c-0.39,-1.37 -0.68,-2.84 -0.88,-4.37 -0.21,-1.54 -0.31,-3.7 -0.31,-6.49 0,-4.01 -0.42,-6.61 -1.28,-7.8 -1.09,-1.55 -3.59,-2.32 -7.51,-2.32l-11.44 0 0 20.98 -11.01 0zm11.01 -29.88l13.1 0c2.96,0 5.13,-0.57 6.52,-1.72 1.4,-1.16 2.1,-3.02 2.1,-5.58 0,-1.85 -0.5,-3.36 -1.49,-4.54 -1.33,-1.65 -3.46,-2.46 -6.4,-2.46l-13.83 0 0 14.3zm84.31 -23.5l0 9.37 -28.25 0 0 11.29 26.03 0 0 9.37 -26.03 0 0 13.83 29.59 0 0 9.52 -40.6 0 0 -53.38 39.26 0zm-16.38 -4.93l-5.3 0c0,-2.3 0.22,-4.04 0.66,-5.23 0.43,-1.19 1.35,-2.27 2.72,-3.25 1.38,-0.98 2.07,-2 2.07,-3.04 0,-1.04 -0.27,-1.78 -0.8,-2.22 -0.54,-0.43 -1.16,-0.64 -1.89,-0.64 -1.16,0 -1.97,0.31 -2.4,0.94 -0.44,0.63 -0.65,1.61 -0.65,2.94l-5.81 0.11c0,-3.22 0.94,-5.57 2.83,-7.04 1.57,-1.27 3.49,-1.9 5.74,-1.9 1.97,0 3.69,0.39 5.19,1.17 2.59,1.32 3.89,3.48 3.89,6.47 0,1.4 -0.33,2.58 -1,3.53 -0.66,0.95 -1.7,1.95 -3.13,2.95 -1.41,1 -2.12,2.74 -2.12,5.21zm90.11 4.93l0 9.37 -28.25 0 0 11.29 26.03 0 0 9.37 -26.03 0 0 13.83 29.59 0 0 9.52 -40.59 0 0 -53.38 39.25 0zm63.94 0l0 53.38 -10.38 0 0 -44.63 -10.14 44.63 -10.99 0 -9.67 -44.63 -0.14 44.63 -10.42 0 0 -53.38 16.2 0 9.69 42.09 9.65 -42.09 16.2 0z"/>
  <path class="fil3" d="M3138.23 557.67m1.88 13.34l33.91 -4.77 -1.7 -12.11 6.91 -0.97 4.55 32.44 -6.91 0.97 -1.69 -12.08 -33.91 4.77 -1.16 -8.25zm3.78 24.09m1.23 4.03l39.42 -12.05 2.44 7.97 -15.51 4.74 4.77 15.59 15.51 -4.74 2.43 7.96 -39.42 12.05 -2.43 -7.96 17.23 -5.27 -4.76 -15.59 -17.24 5.27 -2.44 -7.97zm13.14 38.01m20.69 35.82l-4.53 -7.84 6.31 -7.8 -8.24 -14.27 -9.81 1.74 -4.42 -7.65 43.73 -6.7 4.4 7.62 -27.44 34.9zm6.46 -21.42l10.4 -12.57 -16.03 2.83 5.63 9.74zm23.12 -14.5l-2.48 -4.3 3.4 -10.93 4.43 7.67 -5.35 7.56zm-27.25 38.11m2.8 3.22l31.11 -27.04 5.31 6.11 -9.7 30.79 20.77 -18.06 5.08 5.84 -31.11 27.05 -5.49 -6.31 9.39 -30.18 -20.29 17.64 -5.07 -5.84zm26.54 29.6m3.32 2.6l25.38 -32.49 6.57 5.13 -9.99 12.78 12.85 10.04 9.99 -12.78 6.55 5.12 -25.38 32.49 -6.55 -5.13 11.09 -14.2 -12.85 -10.04 -11.09 14.2 -6.57 -5.12zm45.48 32.53m3.74 1.9l18.71 -36.73 11.9 6.06c4.51,2.3 7.35,3.99 8.53,5.05 1.83,1.62 2.99,3.72 3.47,6.29 0.47,2.57 -0.03,5.32 -1.52,8.24 -1.15,2.25 -2.53,3.94 -4.13,5.06 -1.6,1.12 -3.25,1.79 -4.97,2.03 -1.7,0.23 -3.28,0.16 -4.72,-0.22 -1.95,-0.55 -4.61,-1.68 -7.97,-3.39l-4.83 -2.46 -7.06 13.85 -7.41 -3.78zm22.96 -26.73l-5.31 10.41 4.06 2.07c2.92,1.49 4.98,2.3 6.16,2.42 1.17,0.11 2.25,-0.09 3.23,-0.63 0.98,-0.54 1.74,-1.34 2.3,-2.43 0.67,-1.33 0.84,-2.63 0.5,-3.91 -0.34,-1.26 -1.06,-2.31 -2.15,-3.14 -0.8,-0.62 -2.54,-1.61 -5.21,-2.97l-3.58 -1.82zm10.41 43.26m4.03 1.23l12.05 -39.42 7.97 2.43 -4.74 15.51 15.59 4.77 4.74 -15.51 7.96 2.43 -12.05 39.42 -7.96 -2.43 5.27 -17.24 -15.59 -4.76 -5.27 17.23 -7.97 -2.43zm38.56 11.44m5.66 -19.72c0.66,-4.15 1.83,-7.53 3.51,-10.15 1.26,-1.92 2.82,-3.59 4.68,-4.98 1.86,-1.39 3.81,-2.34 5.84,-2.83 2.71,-0.68 5.72,-0.75 9.03,-0.22 6,0.95 10.51,3.57 13.52,7.86 3.01,4.29 3.99,9.75 2.94,16.38 -1.04,6.58 -3.64,11.43 -7.8,14.58 -4.17,3.14 -9.24,4.24 -15.21,3.3 -6.06,-0.96 -10.58,-3.58 -13.57,-7.83 -2.99,-4.26 -3.96,-9.63 -2.94,-16.11zm8.51 1.07c-0.73,4.6 -0.21,8.27 1.53,10.99 1.76,2.71 4.27,4.33 7.55,4.85 3.27,0.51 6.15,-0.23 8.63,-2.27 2.47,-2.03 4.08,-5.4 4.83,-10.12 0.74,-4.66 0.27,-8.3 -1.41,-10.93 -1.68,-2.62 -4.22,-4.2 -7.6,-4.73 -3.4,-0.54 -6.31,0.19 -8.76,2.19 -2.43,1.99 -4.03,5.32 -4.77,10.02zm14.93 -22.01l-3.38 1.57 -5.46 -0.86 6.62 -2.66 4.94 0.79 5.48 4.57 -5.47 -0.87 -2.73 -2.54zm-2.96 -3.03l4.08 -3.99 8.75 1.38 -7.89 3.39 -4.94 -0.78zm36.81 51.17m4.2 -0.29l-2.87 -41.12 8.31 -0.59 1.13 16.19 16.27 -1.14 -1.13 -16.18 8.3 -0.58 2.87 41.12 -8.3 0.58 -1.26 -17.98 -16.26 1.14 1.25 17.98 -8.31 0.58zm40.12 -2.59m-1.78 -20.43c-0.88,-4.11 -1,-7.69 -0.36,-10.74 0.48,-2.24 1.34,-4.35 2.58,-6.32 1.24,-1.97 2.72,-3.55 4.44,-4.74 2.29,-1.6 5.07,-2.74 8.35,-3.44 5.94,-1.26 11.09,-0.43 15.44,2.5 4.35,2.92 7.22,7.67 8.61,14.23 1.39,6.51 0.7,11.98 -2.06,16.41 -2.76,4.43 -7.1,7.27 -13.01,8.53 -6,1.27 -11.16,0.46 -15.48,-2.44 -4.31,-2.91 -7.15,-7.58 -8.51,-13.99zm8.32 -2.05c0.97,4.56 2.77,7.8 5.37,9.71 2.62,1.9 5.54,2.51 8.79,1.82 3.24,-0.69 5.66,-2.42 7.24,-5.21 1.58,-2.78 1.88,-6.5 0.88,-11.18 -0.98,-4.62 -2.72,-7.85 -5.23,-9.7 -2.51,-1.84 -5.44,-2.4 -8.8,-1.69 -3.36,0.71 -5.81,2.44 -7.38,5.18 -1.56,2.73 -1.86,6.42 -0.87,11.07zm6.06 -25.9l-2.59 2.68 -5.42 1.15 5.23 -4.85 4.9 -1.04 6.75 2.3 -5.42 1.15 -3.45 -1.39zm2.72 -3.17l-4.87 1.04 -8 -2.98 8.67 -1.85 4.2 3.79zm46.47 36.58m21.3 -26.65l8.39 -1.1c0.78,4.61 0.33,8.5 -1.36,11.7 -1.68,3.19 -4.53,5.73 -8.54,7.59 -4.96,2.32 -9.83,2.52 -14.6,0.63 -4.77,-1.91 -8.53,-5.8 -11.27,-11.67 -2.9,-6.22 -3.54,-11.79 -1.94,-16.74 1.61,-4.93 5.02,-8.62 10.26,-11.06 4.57,-2.13 8.91,-2.51 13.03,-1.14 2.44,0.8 4.78,2.5 7.03,5.1l-6.64 5.27c-1.34,-1.74 -2.98,-2.84 -4.91,-3.31 -1.92,-0.47 -3.89,-0.23 -5.89,0.7 -2.76,1.29 -4.55,3.34 -5.35,6.13 -0.79,2.79 -0.15,6.41 1.92,10.86 2.2,4.72 4.62,7.7 7.26,8.9 2.63,1.22 5.31,1.19 8.02,-0.07 2.01,-0.94 3.43,-2.38 4.28,-4.33 0.85,-1.94 0.95,-4.44 0.31,-7.46zm19.57 8.22m3.45 -2.41l-23.65 -33.77 6.83 -4.78 9.3 13.29 13.36 -9.36 -9.3 -13.28 6.81 -4.78 23.65 33.77 -6.82 4.77 -10.34 -14.76 -13.36 9.35 10.34 14.77 -6.82 4.78zm32.8 -22.93m3.02 -2.52l-26.5 -31.58 6.37 -5.35 26.5 31.58 -6.37 5.35zm-28.75 -32.78l-2.43 -8.93 6.79 -5.7 -0.52 11.42 -3.84 3.21zm51.83 12.27m2.56 -3.17l-32.03 -25.94 7.84 -9.68 26.56 11.88 -17.21 -23.44 7.86 -9.7 32.04 25.94 -4.87 6.01 -25.21 -20.43 20.06 26.79 -5.04 6.23 -30.35 -14.09 25.21 20.43 -4.86 6zm27.4 -37.72m1.97 -3.4l-35.7 -20.61 4.16 -7.21 35.7 20.61 -4.16 7.21zm8.13 -12.72m1.53 -3.99l-38.49 -14.77 2.91 -7.56 31.74 -5.89 -25.7 -9.86 2.78 -7.23 38.48 14.78 -3 7.8 -31.05 5.88 25.1 9.63 -2.77 7.22zm13.99 -37.47m0.59 -4.17l-40.82 -5.74 1.16 -8.25 16.06 2.26 2.27 -16.15 -16.06 -2.26 1.16 -8.24 40.82 5.74 -1.16 8.24 -17.85 -2.51 -2.27 16.15 17.85 2.51 -1.16 8.25z"/>
 </g>
</svg>
