<?xml version="1.0" encoding="UTF-8"?>
<!DOCTYPE svg PUBLIC "-//W3C//DTD SVG 1.1//EN" "http://www.w3.org/Graphics/SVG/1.1/DTD/svg11.dtd">
<!-- Creator: CorelDRAW -->
<svg xmlns="http://www.w3.org/2000/svg" xml:space="preserve" width="18042px" height="4117px" version="1.1" style="shape-rendering:geometricPrecision; text-rendering:geometricPrecision; image-rendering:optimizeQuality; fill-rule:evenodd; clip-rule:evenodd"
viewBox="0 0 3698.04 843.8"
 xmlns:xlink="http://www.w3.org/1999/xlink">
 <defs>
  <style type="text/css">
   <![CDATA[
    .str0 {stroke:#F58735;stroke-width:17.7;stroke-miterlimit:22.9256}
    .fil2 {fill:none}
    .fil1 {fill:white;fill-rule:nonzero}
    .fil0 {fill:url(#id1)}
   ]]>
  </style>
   <clipPath id="id0">
    <rect x="2954.67" y="65.75" width="691.52" height="724.05"/>
   </clipPath>
  <linearGradient id="id1" gradientUnits="userSpaceOnUse" x1="1437.58" y1="843.8" x2="1437.58" y2="0">
   <stop offset="0" style="stop-opacity:1; stop-color:#EE3338"/>
   <stop offset="1" style="stop-opacity:1; stop-color:#F58735"/>
  </linearGradient>
 </defs>
 <g id="Layer_x0020_1">
  <metadata id="CorelCorpID_0Corel-Layer"/>
  <path class="fil0" d="M87.51 0l2700.15 0c48.13,0 87.5,39.38 87.5,87.51l0 668.78c0,48.13 -39.37,87.51 -87.5,87.51l-2700.15 0c-48.13,0 -87.51,-39.38 -87.51,-87.51l0 -668.78c0,-48.13 39.38,-87.51 87.51,-87.51z"/>
  <path class="fil1" d="M329.19 229.03l0 39.46 -3.86 0c-2.31,-9.13 -4.84,-15.65 -7.62,-19.62 -2.83,-3.99 -6.64,-7.15 -11.52,-9.49 -2.71,-1.29 -7.48,-1.95 -14.26,-1.95l-10.86 0 0 112.37c0,7.44 0.4,12.1 1.21,13.97 0.84,1.87 2.46,3.49 4.84,4.88 2.38,1.43 5.69,2.13 9.83,2.13l4.84 0 0 3.96 -76.28 0 0 -3.96 4.84 0c4.22,0 7.63,-0.77 10.2,-2.28 1.87,-0.99 3.33,-2.71 4.4,-5.17 0.8,-1.72 1.21,-6.23 1.21,-13.53l0 -112.37 -10.57 0c-9.79,0 -16.94,2.09 -21.38,6.24 -6.19,5.79 -10.15,14.08 -11.8,24.82l-4.08 0 0 -39.46 130.86 0zm62.71 42.25c8.76,0 16.87,2.24 24.38,6.75 7.52,4.51 13.24,10.93 17.13,19.25 3.93,8.33 5.87,17.42 5.87,27.29 0,14.26 -3.63,26.18 -10.86,35.76 -8.72,11.62 -20.79,17.42 -36.19,17.42 -15.11,0 -26.74,-5.32 -34.92,-15.92 -8.17,-10.6 -12.24,-22.85 -12.24,-36.82 0,-14.41 4.18,-26.96 12.5,-37.67 8.33,-10.7 19.77,-16.06 34.33,-16.06zm0.44 7.63c-3.67,0 -6.79,1.39 -9.39,4.14 -2.61,2.75 -4.33,8.18 -5.17,16.32 -0.85,8.11 -1.25,19.4 -1.25,33.89 0,7.66 0.51,14.85 1.5,21.49 0.77,5.1 2.46,8.95 5.07,11.59 2.56,2.68 5.5,4 8.8,4 3.22,0 5.9,-0.88 8.07,-2.68 2.78,-2.46 4.65,-5.87 5.57,-10.23 1.43,-6.79 2.16,-20.54 2.16,-41.26 0,-12.18 -0.69,-20.54 -2.05,-25.08 -1.36,-4.55 -3.37,-7.85 -6.01,-9.94 -1.88,-1.51 -4.3,-2.24 -7.3,-2.24zm12.14 -57.5l21.82 41.03 -8.29 0 -25.56 -22.11 -26.33 21.49 -8.81 0 22.89 -40.41 24.28 0zm5.57 -19.99c-5.94,3.52 -9.53,5.98 -10.74,7.33 -1.22,1.36 -2.02,3.56 -2.35,6.64l-5.8 0c0.63,-6.16 3.16,-11.4 7.52,-15.77 3.16,-3.15 4.73,-6.16 4.73,-9.02 0,-5.32 -3.59,-7.96 -10.74,-7.96 -2.53,0 -4.62,0.37 -6.35,1.07 -1.72,0.69 -2.6,1.39 -2.6,2.05 0,0.55 0.62,1.47 1.91,2.71 1.24,1.29 1.87,2.28 1.87,2.97 0,2.5 -2.2,3.74 -6.57,3.74 -2.86,0 -5.17,-0.55 -6.93,-1.65 -1.72,-1.1 -2.6,-2.6 -2.6,-4.47 0,-2.93 2.23,-5.39 6.74,-7.33 4.52,-1.99 10.27,-2.98 17.2,-2.98 8.95,0 15.63,1.4 19.99,4.22 3.23,2.06 4.84,4.37 4.84,6.97 0,3.63 -3.37,7.48 -10.12,11.48zm1021.17 69.86c8.77,0 16.87,2.24 24.39,6.75 7.52,4.51 13.24,10.93 17.13,19.25 3.92,8.33 5.86,17.42 5.86,27.29 0,14.26 -3.63,26.18 -10.85,35.76 -8.73,11.62 -20.79,17.42 -36.2,17.42 -15.11,0 -26.73,-5.32 -34.91,-15.92 -8.18,-10.6 -12.25,-22.85 -12.25,-36.82 0,-14.41 4.18,-26.96 12.51,-37.67 8.32,-10.7 19.76,-16.06 34.32,-16.06zm0.44 7.63c-3.66,0 -6.78,1.39 -9.39,4.14 -2.6,2.75 -4.32,8.18 -5.17,16.32 -0.84,8.11 -1.24,19.4 -1.24,33.89 0,7.66 0.51,14.85 1.5,21.49 0.77,5.1 2.46,8.95 5.06,11.59 2.57,2.68 5.5,4 8.8,4 3.23,0 5.91,-0.88 8.07,-2.68 2.79,-2.46 4.66,-5.87 5.57,-10.23 1.44,-6.79 2.17,-20.54 2.17,-41.26 0,-12.18 -0.7,-20.54 -2.05,-25.08 -1.36,-4.55 -3.38,-7.85 -6.02,-9.94 -1.87,-1.51 -4.29,-2.24 -7.3,-2.24zm12.14 -57.5l21.82 41.03 -8.29 0 -25.56 -22.11 -26.33 21.49 -8.8 0 22.88 -40.41 24.28 0zm20.32 -42.77l-34.73 36.02 -9.24 0 11.62 -36.02 32.35 0zm111.74 170.21l3.3 2.56c-4.73,8.92 -10.6,15.52 -17.67,19.84 -7.04,4.33 -14.53,6.5 -22.48,6.5 -13.39,0 -24.1,-5.07 -32.13,-15.15 -8.03,-10.09 -12.03,-22.23 -12.03,-36.42 0,-13.68 3.63,-25.74 10.93,-36.12 8.84,-12.51 20.98,-18.78 36.45,-18.78 10.38,0 18.63,2.61 24.76,7.85 6.12,5.21 9.17,11.04 9.17,17.49 0,4.07 -1.25,7.34 -3.71,9.8 -2.46,2.42 -5.72,3.63 -9.72,3.63 -4.21,0 -7.73,-1.4 -10.49,-4.18 -2.75,-2.79 -4.43,-7.78 -5.09,-14.93 -0.41,-4.51 -1.47,-7.67 -3.12,-9.46 -1.65,-1.8 -3.56,-2.68 -5.79,-2.68 -3.45,0 -6.39,1.83 -8.81,5.46 -3.7,5.54 -5.57,13.98 -5.57,25.38 0,9.43 1.5,18.49 4.51,27.1 3.01,8.62 7.12,15.08 12.32,19.29 3.96,3.08 8.62,4.63 13.98,4.63 3.52,0 6.85,-0.81 10.01,-2.46 3.15,-1.65 6.89,-4.77 11.18,-9.35zm135.14 -73.39l33.85 0 0 11.81 -19.25 0c3.52,3.52 5.98,6.71 7.34,9.57 1.72,3.85 2.56,7.92 2.56,12.14 0,7.15 -1.98,13.39 -5.98,18.63 -3.96,5.28 -9.35,9.39 -16.21,12.36 -6.85,2.97 -12.9,4.48 -18.22,4.48 -0.41,0 -4.7,-0.19 -12.87,-0.55 -3.23,0 -5.95,1.06 -8.11,3.19 -2.2,2.09 -3.3,4.62 -3.3,7.55 0,2.6 0.99,4.69 2.97,6.35 1.94,1.65 5.17,2.45 9.61,2.45l18.59 -0.18c15.04,0 25.38,1.65 31.07,4.91 8.1,4.59 12.13,11.67 12.13,21.16 0,6.09 -1.87,11.63 -5.61,16.62 -3.7,4.98 -8.62,8.65 -14.7,11 -9.24,3.52 -19.88,5.28 -31.91,5.28 -9.02,0 -17.27,-0.88 -24.72,-2.64 -7.44,-1.76 -12.8,-4.18 -16.02,-7.3 -3.19,-3.12 -4.81,-6.42 -4.81,-9.83 0,-3.3 1.25,-6.27 3.71,-8.87 2.45,-2.61 7.07,-4.81 13.79,-6.6 -9.32,-4.59 -13.98,-10.97 -13.98,-19.15 0,-4.95 1.91,-9.72 5.72,-14.37 3.78,-4.66 9.8,-8.73 18.05,-12.14 -9.61,-3.52 -16.58,-8.14 -20.87,-13.86 -4.29,-5.73 -6.42,-12.36 -6.42,-19.88 0,-9.79 4,-18.3 12.03,-25.53 8.03,-7.18 18.34,-10.78 30.92,-10.78 6.67,0 13.57,1.4 20.64,4.18zm-18.59 2.46c-4.14,0 -7.66,2.09 -10.52,6.31 -2.86,4.18 -4.3,12.87 -4.3,26.04 0,10.67 1.44,18 4.26,21.96 2.82,4 6.16,5.98 10.01,5.98 4.29,0 7.89,-1.98 10.75,-5.9 2.89,-3.93 4.32,-11.59 4.32,-23 0,-12.83 -1.61,-21.56 -4.84,-26.22 -2.31,-3.45 -5.53,-5.17 -9.68,-5.17zm-6.34 111.63c-7.3,0 -12.14,0.63 -14.49,1.84 -4.07,2.23 -6.12,5.24 -6.12,9.02 0,3.67 2.12,6.97 6.34,9.94 4.22,2.97 12.14,4.47 23.84,4.47 9.94,0 17.78,-1.32 23.47,-4 5.68,-2.64 8.54,-6.34 8.54,-11.14 0,-1.8 -0.55,-3.3 -1.61,-4.52 -1.94,-2.16 -4.84,-3.63 -8.76,-4.4 -3.89,-0.8 -14.31,-1.21 -31.21,-1.21zm94.65 -163.93c4.66,0 8.62,1.62 11.85,4.88 3.19,3.26 4.8,7.19 4.8,11.77 0,4.59 -1.61,8.47 -4.88,11.7 -3.26,3.23 -7.19,4.84 -11.77,4.84 -4.58,0 -8.47,-1.61 -11.7,-4.84 -3.23,-3.23 -4.84,-7.11 -4.84,-11.7 0,-4.58 1.61,-8.51 4.84,-11.77 3.23,-3.26 7.12,-4.88 11.7,-4.88zm15.04 48.67l0 79.62c0,7.08 0.84,11.62 2.49,13.57 1.65,1.98 4.88,3.11 9.68,3.41l0 3.85 -54.27 0 0 -3.85c4.43,-0.15 7.73,-1.43 9.9,-3.89 1.43,-1.65 2.12,-6.01 2.12,-13.09l0 -58.68c0,-7.08 -0.8,-11.63 -2.45,-13.61 -1.65,-1.94 -4.84,-3.08 -9.57,-3.37l0 -3.96 42.1 0zm77.34 85.63c-12.25,10.82 -23.25,16.21 -33.01,16.21 -5.72,0 -10.48,-1.87 -14.26,-5.65 -3.78,-3.77 -5.69,-8.47 -5.69,-14.12 0,-7.66 3.3,-14.55 9.87,-20.68 6.6,-6.12 20.98,-14.27 43.09,-24.42l0 -10.13c0,-7.59 -0.4,-12.35 -1.25,-14.34 -0.84,-1.98 -2.38,-3.7 -4.65,-5.17 -2.31,-1.46 -4.88,-2.2 -7.74,-2.2 -4.66,0 -8.51,1.03 -11.52,3.12 -1.87,1.28 -2.78,2.79 -2.78,4.51 0,1.51 0.99,3.38 3,5.61 2.75,3.08 4.11,6.05 4.11,8.91 0,3.49 -1.32,6.5 -3.92,8.99 -2.61,2.46 -6.05,3.7 -10.27,3.7 -4.51,0 -8.29,-1.35 -11.33,-4.1 -3.05,-2.72 -4.59,-5.91 -4.59,-9.54 0,-5.17 2.06,-10.08 6.13,-14.78 4.07,-4.69 9.79,-8.29 17.09,-10.82 7.29,-2.49 14.89,-3.74 22.77,-3.74 9.54,0 17.09,2.02 22.63,6.05 5.54,4.07 9.13,8.44 10.78,13.17 0.99,3.01 1.5,9.94 1.5,20.76l0 38.98c0,4.58 0.19,7.48 0.55,8.65 0.37,1.18 0.92,2.06 1.62,2.65 0.69,0.55 1.54,0.84 2.45,0.84 1.87,0 3.78,-1.32 5.72,-3.96l3.2 2.57c-3.56,5.31 -7.27,9.16 -11.12,11.55 -3.85,2.38 -8.17,3.59 -13.05,3.59 -5.72,0 -10.2,-1.36 -13.42,-4.03 -3.23,-2.68 -5.21,-6.75 -5.91,-12.18zm0 -7.85l0 -33.63c-8.69,5.1 -15.11,10.53 -19.33,16.32 -2.82,3.85 -4.21,7.78 -4.21,11.7 0,3.3 1.17,6.2 3.55,8.73 1.8,1.94 4.29,2.9 7.52,2.9 3.6,0 7.74,-2.02 12.47,-6.02zm-1377.53 -77.78l0 12.98c5.17,-5.57 10.12,-9.64 14.86,-12.17 4.73,-2.53 9.79,-3.82 15.25,-3.82 6.49,0 11.92,1.8 16.21,5.43 4.29,3.63 7.15,8.1 8.58,13.46 1.14,4.07 1.73,11.92 1.73,23.54l0 39.1c0,7.73 0.69,12.58 2.09,14.45 1.39,1.9 4.32,3.11 8.76,3.63l0 3.85 -50.83 0 0 -3.85c3.82,-0.52 6.53,-2.09 8.18,-4.73 1.14,-1.8 1.72,-6.27 1.72,-13.35l0 -44.67c0,-8.25 -0.33,-13.42 -0.95,-15.59 -0.66,-2.16 -1.76,-3.81 -3.3,-4.99 -1.54,-1.21 -3.23,-1.79 -5.1,-1.79 -6.16,0 -11.88,4.4 -17.2,13.24l0 53.8c0,7.52 0.7,12.28 2.09,14.3 1.43,2.02 4.04,3.26 7.81,3.78l0 3.85 -50.82 0 0 -3.85c4.21,-0.44 7.22,-1.8 9.02,-4.11 1.21,-1.58 1.83,-6.24 1.83,-13.97l0 -56.74c0,-7.59 -0.7,-12.28 -2.09,-14.15 -1.39,-1.87 -4.33,-3.08 -8.76,-3.67l0 -3.96 40.92 0zm145.78 1.17l33.85 0 0 11.81 -19.25 0c3.52,3.52 5.97,6.71 7.33,9.57 1.72,3.85 2.57,7.92 2.57,12.14 0,7.15 -1.98,13.39 -5.98,18.63 -3.96,5.28 -9.35,9.39 -16.21,12.36 -6.86,2.97 -12.91,4.48 -18.23,4.48 -0.4,0 -4.69,-0.19 -12.87,-0.55 -3.23,0 -5.94,1.06 -8.1,3.19 -2.2,2.09 -3.3,4.62 -3.3,7.55 0,2.6 0.99,4.69 2.97,6.35 1.94,1.65 5.17,2.45 9.6,2.45l18.6 -0.18c15.03,0 25.38,1.65 31.06,4.91 8.11,4.59 12.14,11.67 12.14,21.16 0,6.09 -1.87,11.63 -5.61,16.62 -3.71,4.98 -8.62,8.65 -14.71,11 -9.24,3.52 -19.87,5.28 -31.9,5.28 -9.03,0 -17.28,-0.88 -24.72,-2.64 -7.45,-1.76 -12.8,-4.18 -16.03,-7.3 -3.19,-3.12 -4.8,-6.42 -4.8,-9.83 0,-3.3 1.25,-6.27 3.7,-8.87 2.46,-2.61 7.08,-4.81 13.79,-6.6 -9.31,-4.59 -13.97,-10.97 -13.97,-19.15 0,-4.95 1.91,-9.72 5.72,-14.37 3.78,-4.66 9.79,-8.73 18.04,-12.14 -9.61,-3.52 -16.57,-8.14 -20.86,-13.86 -4.29,-5.73 -6.42,-12.36 -6.42,-19.88 0,-9.79 4,-18.3 12.03,-25.53 8.03,-7.18 18.33,-10.78 30.91,-10.78 6.68,0 13.57,1.4 20.65,4.18zm-18.59 2.46c-4.15,0 -7.67,2.09 -10.53,6.31 -2.86,4.18 -4.29,12.87 -4.29,26.04 0,10.67 1.43,18 4.25,21.96 2.83,4 6.17,5.98 10.02,5.98 4.29,0 7.88,-1.98 10.74,-5.9 2.9,-3.93 4.33,-11.59 4.33,-23 0,-12.83 -1.61,-21.56 -4.84,-26.22 -2.31,-3.45 -5.54,-5.17 -9.68,-5.17zm-6.35 111.63c-7.3,0 -12.14,0.63 -14.48,1.84 -4.07,2.23 -6.13,5.24 -6.13,9.02 0,3.67 2.13,6.97 6.35,9.94 4.21,2.97 12.13,4.47 23.83,4.47 9.94,0 17.79,-1.32 23.47,-4 5.69,-2.64 8.55,-6.34 8.55,-11.14 0,-1.8 -0.55,-3.3 -1.61,-4.52 -1.95,-2.16 -4.84,-3.63 -8.77,-4.4 -3.89,-0.8 -14.3,-1.21 -31.21,-1.21zm223.16 -141.48l12.36 0 0 9.02 -12.36 0 0 87.58c0,7.81 0.22,12.43 0.66,13.86 0.55,2.35 1.65,4.11 3.26,5.24 1.62,1.14 4.44,1.87 8.44,2.17l0 3.52 -42.43 8.29 0 -15.92c-5.1,6.16 -9.61,10.34 -13.61,12.58 -3.96,2.23 -8.43,3.34 -13.46,3.34 -12.83,0 -22.95,-5.73 -30.4,-17.21 -6.05,-9.31 -9.06,-20.72 -9.06,-34.25 0,-10.82 1.87,-20.54 5.61,-29.08 3.71,-8.54 8.8,-15.04 15.3,-19.4 6.49,-4.36 13.46,-6.53 20.9,-6.53 4.8,0 9.06,0.92 12.8,2.79 3.7,1.87 7.7,5.1 11.92,9.75l0 -26.73 -36.02 0 0 -9.02 35.91 0c-0.08,-4.29 -0.33,-7.01 -0.77,-8.07 -0.92,-2.31 -2.28,-3.96 -4,-4.95 -1.76,-0.99 -4.99,-1.51 -9.65,-1.51l0 -4.51 44.6 0 0 19.04zm-30.07 49.1c-5.32,-10.16 -11.77,-15.25 -19.44,-15.25 -2.68,0 -4.84,0.69 -6.56,2.12 -2.64,2.24 -4.81,6.13 -6.49,11.74 -1.69,5.57 -2.54,14.12 -2.54,25.67 0,12.65 0.92,22.04 2.79,28.13 1.87,6.09 4.4,10.49 7.63,13.24 1.65,1.36 3.89,2.02 6.78,2.02 6.28,0 12.22,-4.95 17.83,-14.82l0 -52.85zm110.2 62.75c-12.25,10.82 -23.25,16.21 -33,16.21 -5.73,0 -10.49,-1.87 -14.27,-5.65 -3.78,-3.77 -5.68,-8.47 -5.68,-14.12 0,-7.66 3.3,-14.55 9.86,-20.68 6.6,-6.12 20.98,-14.27 43.09,-24.42l0 -10.13c0,-7.59 -0.4,-12.35 -1.25,-14.34 -0.84,-1.98 -2.38,-3.7 -4.65,-5.17 -2.31,-1.46 -4.88,-2.2 -7.74,-2.2 -4.66,0 -8.51,1.03 -11.52,3.12 -1.87,1.28 -2.78,2.79 -2.78,4.51 0,1.51 0.99,3.38 3,5.61 2.75,3.08 4.11,6.05 4.11,8.91 0,3.49 -1.32,6.5 -3.92,8.99 -2.61,2.46 -6.05,3.7 -10.27,3.7 -4.51,0 -8.29,-1.35 -11.33,-4.1 -3.05,-2.72 -4.59,-5.91 -4.59,-9.54 0,-5.17 2.06,-10.08 6.13,-14.78 4.07,-4.69 9.79,-8.29 17.09,-10.82 7.29,-2.49 14.89,-3.74 22.77,-3.74 9.54,0 17.09,2.02 22.63,6.05 5.54,4.07 9.13,8.44 10.78,13.17 0.99,3.01 1.5,9.94 1.5,20.76l0 38.98c0,4.58 0.19,7.48 0.55,8.65 0.37,1.18 0.92,2.06 1.62,2.65 0.69,0.55 1.54,0.84 2.45,0.84 1.87,0 3.78,-1.32 5.73,-3.96l3.19 2.57c-3.56,5.31 -7.27,9.16 -11.12,11.55 -3.85,2.38 -8.17,3.59 -13.05,3.59 -5.72,0 -10.2,-1.36 -13.42,-4.03 -3.23,-2.68 -5.21,-6.75 -5.91,-12.18zm0 -7.85l0 -33.63c-8.69,5.1 -15.11,10.53 -19.33,16.32 -2.82,3.85 -4.21,7.78 -4.21,11.7 0,3.3 1.17,6.2 3.55,8.73 1.8,1.94 4.3,2.9 7.52,2.9 3.6,0 7.74,-2.02 12.47,-6.02zm-40.52 -127.95l32.34 0 12.47 37.26 -9.13 0 -35.68 -37.26zm119.26 1.5c4.66,0 8.62,1.62 11.84,4.88 3.2,3.26 4.81,7.19 4.81,11.77 0,4.59 -1.61,8.47 -4.88,11.7 -3.26,3.23 -7.19,4.84 -11.77,4.84 -4.58,0 -8.47,-1.61 -11.7,-4.84 -3.23,-3.23 -4.84,-7.11 -4.84,-11.7 0,-4.58 1.61,-8.51 4.84,-11.77 3.23,-3.26 7.12,-4.88 11.7,-4.88zm15.04 48.67l0 79.62c0,7.08 0.84,11.62 2.49,13.57 1.65,1.98 4.88,3.11 9.68,3.41l0 3.85 -54.28 0 0 -3.85c4.44,-0.15 7.74,-1.43 9.91,-3.89 1.43,-1.65 2.12,-6.01 2.12,-13.09l0 -58.68c0,-7.08 -0.8,-11.63 -2.45,-13.61 -1.65,-1.94 -4.84,-3.08 -9.58,-3.37l0 -3.96 42.11 0zm174.67 101.73c3.3,9.54 8.44,16.69 15.37,21.49 6.93,4.81 15.66,7.19 26.11,7.19 2.86,0 5.9,-0.29 9.13,-0.84l0 6.56c-10.82,2.71 -20.46,4.07 -29.01,4.07 -13.31,0 -25.23,-3.26 -35.72,-9.79 -10.49,-6.49 -18.37,-16.06 -23.69,-28.68 -17.64,-3.7 -31.83,-12.36 -42.61,-25.89 -10.79,-13.53 -16.18,-29.71 -16.18,-48.45 0,-21.78 7.3,-39.9 21.93,-54.31 14.64,-14.41 33.19,-21.64 55.67,-21.64 22.41,0 40.89,7.23 55.42,21.68 14.56,14.48 21.82,32.56 21.82,54.27 0,18.89 -5.69,35.36 -17.09,49.33 -11.41,13.97 -25.12,22.3 -41.15,25.01zm-19.11 -142.15c-12.9,0 -22.88,6.72 -29.88,20.1 -5.87,11.26 -8.81,27.25 -8.81,48.04 0,24.91 4.4,43.39 13.21,55.42 6.16,8.4 14.67,12.58 25.48,12.58 10.9,0 19.37,-4.11 25.46,-12.36 8.8,-11.81 13.2,-29.56 13.2,-53.29 0,-23.36 -2.75,-40.27 -8.25,-50.72 -6.86,-13.16 -17.02,-19.77 -30.41,-19.77zm189.5 40.42l0 78.63c0,7.66 0.69,12.47 2.12,14.34 1.43,1.9 4.37,3.11 8.73,3.63l0 3.85 -40.96 0 0 -13.42c-4.81,5.72 -9.57,9.9 -14.38,12.5 -4.8,2.6 -10.19,3.93 -16.14,3.93 -5.64,0 -10.67,-1.73 -15.07,-5.21 -4.4,-3.49 -7.37,-7.56 -8.87,-12.21 -1.51,-4.66 -2.28,-12.77 -2.28,-24.39l0 -39.87c0,-7.59 -0.69,-12.28 -2.09,-14.15 -1.39,-1.87 -4.29,-3.08 -8.73,-3.67l0 -3.96 40.93 0 0 68.65c0,7.15 0.33,11.77 1.03,13.86 0.66,2.09 1.72,3.67 3.23,4.74 1.46,1.06 3.15,1.61 5.09,1.61 2.57,0 4.88,-0.7 6.97,-2.05 2.86,-1.88 6.31,-5.62 10.31,-11.3l0 -53.73c0,-7.59 -0.7,-12.28 -2.09,-14.15 -1.4,-1.87 -4.33,-3.08 -8.77,-3.67l0 -3.96 40.97 0z"/>
  <path class="fil1" d="M483.19 541.2c13.83,3.19 23.51,7.11 29.12,11.7 8.04,6.49 12.03,14.96 12.03,25.34 0,10.96 -4.4,20.06 -13.2,27.21 -10.82,8.65 -26.55,12.98 -47.16,12.98l-74.05 0 0 -3.96c6.72,0 11.3,-0.62 13.72,-1.91 2.38,-1.24 4.07,-2.86 5.02,-4.87 0.99,-2.02 1.47,-6.93 1.47,-14.82l0 -94.54c0,-7.89 -0.48,-12.88 -1.47,-14.89 -0.95,-2.06 -2.64,-3.67 -5.09,-4.88 -2.46,-1.21 -7.01,-1.83 -13.65,-1.83l0 -4 69.83 0c16.69,0 28.53,1.5 35.46,4.47 6.93,2.97 12.44,7.41 16.43,13.31 4,5.91 6.02,12.22 6.02,18.86 0,7 -2.53,13.27 -7.63,18.77 -5.1,5.47 -14.05,9.83 -26.85,13.06zm-39.09 -2.94c10.16,0 17.68,-1.13 22.48,-3.41 4.84,-2.31 8.55,-5.53 11.15,-9.68 2.57,-4.14 3.85,-9.46 3.85,-15.91 0,-6.42 -1.28,-11.7 -3.81,-15.85 -2.53,-4.11 -6.16,-7.22 -10.89,-9.39 -4.74,-2.16 -12.33,-3.19 -22.78,-3.11l0 57.35zm0 8.4l0 46.72 -0.11 5.39c0,3.86 0.99,6.79 2.93,8.77 1.98,1.94 4.92,2.93 8.77,2.93 5.72,0 11,-1.28 15.84,-3.81 4.84,-2.53 8.55,-6.23 11.11,-11.08 2.61,-4.8 3.89,-10.19 3.89,-16.13 0,-6.82 -1.57,-12.95 -4.73,-18.34 -3.15,-5.39 -7.48,-9.17 -13.02,-11.33 -5.5,-2.16 -13.71,-3.19 -24.68,-3.12zm150.8 56.96c-12.25,10.81 -23.25,16.21 -33,16.21 -5.73,0 -10.49,-1.87 -14.27,-5.65 -3.78,-3.78 -5.68,-8.47 -5.68,-14.12 0,-7.67 3.3,-14.56 9.86,-20.69 6.6,-6.12 20.98,-14.26 43.09,-24.42l0 -10.12c0,-7.59 -0.4,-12.36 -1.24,-14.34 -0.85,-1.98 -2.39,-3.7 -4.66,-5.17 -2.31,-1.47 -4.88,-2.2 -7.74,-2.2 -4.66,0 -8.51,1.02 -11.52,3.11 -1.87,1.29 -2.78,2.79 -2.78,4.52 0,1.5 0.99,3.37 3,5.61 2.75,3.08 4.11,6.05 4.11,8.91 0,3.48 -1.32,6.49 -3.92,8.98 -2.61,2.46 -6.05,3.71 -10.27,3.71 -4.51,0 -8.29,-1.36 -11.33,-4.11 -3.05,-2.71 -4.59,-5.9 -4.59,-9.54 0,-5.17 2.06,-10.08 6.13,-14.77 4.07,-4.7 9.79,-8.29 17.09,-10.82 7.3,-2.5 14.89,-3.74 22.77,-3.74 9.54,0 17.09,2.01 22.63,6.05 5.54,4.07 9.13,8.43 10.78,13.16 0.99,3.01 1.5,9.94 1.5,20.76l0 38.98c0,4.59 0.19,7.49 0.55,8.66 0.37,1.17 0.92,2.05 1.62,2.64 0.69,0.55 1.54,0.84 2.46,0.84 1.87,0 3.77,-1.32 5.72,-3.96l3.19 2.57c-3.56,5.32 -7.26,9.17 -11.12,11.55 -3.85,2.39 -8.17,3.6 -13.05,3.6 -5.72,0 -10.2,-1.36 -13.42,-4.04 -3.23,-2.68 -5.21,-6.75 -5.91,-12.17zm0 -7.85l0 -33.63c-8.69,5.1 -15.11,10.52 -19.32,16.32 -2.83,3.85 -4.22,7.77 -4.22,11.7 0,3.3 1.17,6.19 3.56,8.73 1.79,1.94 4.29,2.89 7.51,2.89 3.6,0 7.74,-2.01 12.47,-6.01zm9.13 -104.67c-5.94,3.52 -9.53,5.98 -10.74,7.34 -1.21,1.35 -2.02,3.55 -2.39,6.63l-5.79 0c0.66,-6.16 3.15,-11.4 7.52,-15.77 3.15,-3.15 4.73,-6.16 4.73,-9.05 0,-5.28 -3.59,-7.93 -10.75,-7.93 -2.49,0 -4.62,0.37 -6.34,1.07 -1.72,0.7 -2.57,1.39 -2.57,2.05 0,0.55 0.63,1.47 1.87,2.72 1.29,1.28 1.91,2.27 1.91,2.97 0,2.49 -2.2,3.74 -6.56,3.74 -2.87,0 -5.18,-0.55 -6.94,-1.65 -1.76,-1.1 -2.64,-2.61 -2.64,-4.48 0,-2.93 2.28,-5.39 6.79,-7.33 4.51,-1.98 10.23,-2.97 17.2,-2.97 8.95,0 15.58,1.39 19.95,4.18 3.23,2.09 4.84,4.4 4.84,7 0,3.63 -3.38,7.48 -10.09,11.48zm92.82 23.88c8.77,0 16.87,2.23 24.39,6.74 7.52,4.51 13.24,10.93 17.13,19.26 3.92,8.32 5.87,17.42 5.87,27.28 0,14.27 -3.63,26.19 -10.86,35.76 -8.73,11.62 -20.79,17.42 -36.2,17.42 -15.11,0 -26.73,-5.32 -34.91,-15.92 -8.18,-10.6 -12.25,-22.84 -12.25,-36.82 0,-14.41 4.18,-26.95 12.51,-37.66 8.32,-10.71 19.76,-16.06 34.32,-16.06zm0.44 7.62c-3.66,0 -6.78,1.4 -9.38,4.15 -2.61,2.75 -4.33,8.18 -5.18,16.32 -0.84,8.1 -1.24,19.4 -1.24,33.88 0,7.67 0.51,14.86 1.5,21.49 0.77,5.1 2.46,8.95 5.06,11.59 2.57,2.68 5.5,4 8.8,4 3.23,0 5.91,-0.88 8.07,-2.68 2.79,-2.45 4.66,-5.86 5.58,-10.23 1.43,-6.78 2.16,-20.54 2.16,-41.26 0,-12.17 -0.7,-20.53 -2.05,-25.08 -1.36,-4.55 -3.38,-7.85 -6.02,-9.94 -1.87,-1.5 -4.29,-2.24 -7.3,-2.24zm162.54 98.84l-33.81 -77.9c-4.07,-9.38 -7.26,-15.32 -9.57,-17.82 -1.65,-1.87 -4.07,-3.12 -7.3,-3.78l0 -3.96 53.39 0 0 3.96c-3.37,0 -5.68,0.63 -6.89,1.84 -1.72,1.57 -2.57,3.41 -2.57,5.57 0,2.68 1.58,7.67 4.73,14.96l16.54 37.71 13.21 -32.57c3.81,-9.32 5.72,-15.92 5.72,-19.77 0,-2.23 -0.81,-4.03 -2.42,-5.43 -1.62,-1.39 -4.48,-2.16 -8.55,-2.31l0 -3.96 32.86 0 0 3.96c-3.15,0.44 -5.72,1.62 -7.74,3.56 -2.01,1.95 -5.02,7.63 -9.02,17.09l-33.52 78.85 -5.06 0zm149.78 -56.84l-55.09 0c0.63,13.31 4.18,23.87 10.64,31.61 4.95,5.94 10.89,8.91 17.82,8.91 4.29,0 8.22,-1.21 11.7,-3.59 3.52,-2.42 7.3,-6.75 11.29,-12.95l3.64 2.35c-5.43,11.11 -11.45,18.96 -18.05,23.58 -6.56,4.62 -14.19,6.93 -22.88,6.93 -14.89,0 -26.19,-5.72 -33.85,-17.2 -6.16,-9.24 -9.24,-20.68 -9.24,-34.36 0,-16.76 4.54,-30.11 13.6,-40.05 9.06,-9.9 19.7,-14.85 31.87,-14.85 10.16,0 19,4.18 26.48,12.5 7.48,8.33 11.52,20.72 12.07,37.12zm-26.41 -7.19c0,-11.55 -0.62,-19.48 -1.91,-23.77 -1.24,-4.29 -3.19,-7.52 -5.83,-9.75 -1.5,-1.29 -3.52,-1.95 -6.01,-1.95 -3.74,0 -6.79,1.84 -9.13,5.51 -4.22,6.34 -6.35,15.07 -6.35,26.18l0 3.78 29.23 0zm-0.11 -92.31l21.82 41.04 -8.29 0 -25.56 -22.12 -26.33 21.49 -8.8 0 22.88 -40.41 24.28 0zm-16.98 164.3c5.03,0 9.24,1.72 12.73,5.2 3.48,3.49 5.2,7.71 5.2,12.73 0,4.95 -1.76,9.13 -5.24,12.62 -3.52,3.48 -7.74,5.2 -12.69,5.2 -4.95,0 -9.13,-1.72 -12.61,-5.2 -3.49,-3.49 -5.21,-7.67 -5.21,-12.62 0,-4.95 1.72,-9.17 5.21,-12.69 3.48,-3.48 7.66,-5.24 12.61,-5.24zm238.49 -156.67l0 39.46 -3.85 0c-2.31,-9.13 -4.84,-15.66 -7.63,-19.62 -2.82,-4 -6.64,-7.15 -11.52,-9.5 -2.71,-1.28 -7.48,-1.94 -14.26,-1.94l-10.86 0 0 112.36c0,7.45 0.41,12.11 1.21,13.98 0.85,1.87 2.46,3.48 4.84,4.87 2.39,1.43 5.69,2.13 9.83,2.13l4.84 0 0 3.96 -76.28 0 0 -3.96 4.84 0c4.22,0 7.63,-0.77 10.2,-2.27 1.87,-0.99 3.34,-2.72 4.4,-5.17 0.81,-1.73 1.21,-6.24 1.21,-13.54l0 -112.36 -10.56 0c-9.79,0 -16.95,2.09 -21.38,6.23 -6.2,5.8 -10.16,14.08 -11.81,24.83l-4.07 0 0 -39.46 130.85 0zm40.71 45.25l0 22.78c6.63,-10.38 12.46,-17.28 17.49,-20.69 5.02,-3.41 9.86,-5.09 14.52,-5.09 4,0 7.23,1.24 9.61,3.7 2.38,2.46 3.59,5.94 3.59,10.45 0,4.81 -1.17,8.55 -3.48,11.19 -2.31,2.67 -5.13,3.99 -8.43,3.99 -3.78,0 -7.08,-1.21 -9.87,-3.66 -2.82,-2.46 -4.47,-3.82 -4.95,-4.07 -0.73,-0.44 -1.58,-0.66 -2.49,-0.66 -2.1,0 -4.04,0.77 -5.91,2.34 -2.93,2.46 -5.13,5.94 -6.64,10.46 -2.31,6.93 -3.44,14.59 -3.44,22.99l0 23.07 0.11 6.05c0,4.07 0.25,6.67 0.73,7.81 0.84,1.94 2.13,3.34 3.81,4.25 1.69,0.92 4.55,1.47 8.55,1.69l0 3.85 -54.24 0 0 -3.85c4.36,-0.37 7.3,-1.58 8.84,-3.63 1.54,-2.02 2.31,-7.41 2.31,-16.17l0 -55.53c0,-5.75 -0.3,-9.38 -0.85,-10.96 -0.69,-2.02 -1.76,-3.49 -3.11,-4.4 -1.36,-0.92 -3.78,-1.58 -7.19,-1.95l0 -3.96 41.04 0zm141.04 46.62l-55.08 0c0.62,13.31 4.18,23.87 10.63,31.61 4.95,5.94 10.9,8.91 17.83,8.91 4.29,0 8.21,-1.21 11.7,-3.59 3.52,-2.42 7.29,-6.75 11.29,-12.95l3.63 2.35c-5.43,11.11 -11.44,18.96 -18.04,23.58 -6.57,4.62 -14.19,6.93 -22.89,6.93 -14.89,0 -26.18,-5.72 -33.85,-17.2 -6.16,-9.24 -9.24,-20.68 -9.24,-34.36 0,-16.76 4.55,-30.11 13.61,-40.05 9.06,-9.9 19.69,-14.85 31.87,-14.85 10.16,0 18.99,4.18 26.48,12.5 7.48,8.33 11.51,20.72 12.06,37.12zm-26.4 -7.19c0,-11.55 -0.63,-19.48 -1.91,-23.77 -1.25,-4.29 -3.19,-7.52 -5.83,-9.75 -1.5,-1.29 -3.52,-1.95 -6.02,-1.95 -3.74,0 -6.78,1.84 -9.13,5.51 -4.21,6.34 -6.34,15.07 -6.34,26.18l0 3.78 29.23 0zm4.84 -66.31c-5.98,3.52 -9.54,5.98 -10.75,7.34 -1.21,1.35 -2.01,3.55 -2.38,6.63l-5.8 0c0.63,-6.16 3.16,-11.4 7.52,-15.77 3.16,-3.15 4.73,-6.16 4.73,-9.05 0,-5.28 -3.59,-7.93 -10.74,-7.93 -2.53,0 -4.62,0.37 -6.35,1.07 -1.72,0.7 -2.56,1.39 -2.56,2.05 0,0.55 0.62,1.47 1.87,2.72 1.24,1.28 1.87,2.27 1.87,2.97 0,2.49 -2.17,3.74 -6.53,3.74 -2.9,0 -5.21,-0.55 -6.93,-1.65 -1.76,-1.1 -2.64,-2.61 -2.64,-4.48 0,-2.93 2.23,-5.39 6.75,-7.33 4.51,-1.98 10.26,-2.97 17.2,-2.97 8.94,0 15.62,1.39 19.98,4.18 3.23,2.09 4.84,4.4 4.84,7 0,3.63 -3.37,7.48 -10.08,11.48zm174.23 73.5l-55.08 0c0.62,13.31 4.18,23.87 10.64,31.61 4.95,5.94 10.89,8.91 17.82,8.91 4.29,0 8.21,-1.21 11.7,-3.59 3.52,-2.42 7.3,-6.75 11.29,-12.95l3.63 2.35c-5.42,11.11 -11.44,18.96 -18.04,23.58 -6.56,4.62 -14.19,6.93 -22.88,6.93 -14.89,0 -26.19,-5.72 -33.85,-17.2 -6.16,-9.24 -9.25,-20.68 -9.25,-34.36 0,-16.76 4.55,-30.11 13.61,-40.05 9.06,-9.9 19.69,-14.85 31.87,-14.85 10.16,0 19,4.18 26.48,12.5 7.48,8.33 11.51,20.72 12.06,37.12zm-26.4 -7.19c0,-11.55 -0.62,-19.48 -1.91,-23.77 -1.25,-4.29 -3.19,-7.52 -5.83,-9.75 -1.5,-1.29 -3.52,-1.95 -6.01,-1.95 -3.74,0 -6.79,1.84 -9.14,5.51 -4.21,6.34 -6.34,15.07 -6.34,26.18l0 3.78 29.23 0zm80.68 -39.43l0 13.21c5.5,-6.02 10.6,-10.24 15.29,-12.62 4.7,-2.38 9.83,-3.59 15.44,-3.59 6.42,0 11.85,1.5 16.21,4.51 4.37,3 7.74,7.59 10.12,13.75 5.73,-6.45 11.23,-11.11 16.47,-13.97 5.28,-2.86 10.78,-4.29 16.5,-4.29 6.93,0 12.47,1.57 16.62,4.76 4.1,3.19 6.96,7.23 8.58,12.14 1.61,4.92 2.42,12.73 2.42,23.47l0 41.15c0,7.74 0.7,12.54 2.09,14.41 1.39,1.87 4.33,3.08 8.76,3.67l0 3.85 -51.89 0 0 -3.85c4.07,-0.37 7.08,-1.94 9.02,-4.73 1.29,-1.94 1.95,-6.38 1.95,-13.35l0 -43.16c0,-8.99 -0.37,-14.67 -1.1,-17.09 -0.7,-2.46 -1.84,-4.26 -3.38,-5.43 -1.54,-1.21 -3.34,-1.8 -5.43,-1.8 -3.08,0 -6.19,1.14 -9.35,3.41 -3.15,2.24 -6.34,5.65 -9.57,10.16l0 53.91c0,7.23 0.62,11.77 1.83,13.64 1.65,2.68 4.81,4.15 9.47,4.44l0 3.85 -52.01 0 0 -3.85c2.79,-0.15 4.99,-0.84 6.6,-2.13 1.62,-1.24 2.68,-2.75 3.23,-4.51 0.55,-1.72 0.81,-5.53 0.81,-11.44l0 -43.16c0,-9.1 -0.37,-14.78 -1.06,-17.09 -0.7,-2.31 -1.91,-4.11 -3.6,-5.39 -1.69,-1.29 -3.48,-1.91 -5.43,-1.91 -2.86,0 -5.46,0.73 -7.84,2.24 -3.38,2.23 -6.97,6.01 -10.75,11.4l0 53.91c0,7.08 0.7,11.77 2.09,14.05 1.39,2.23 4.33,3.59 8.77,4.03l0 3.85 -51.79 0 0 -3.85c4.22,-0.44 7.23,-1.8 9.02,-4.11 1.21,-1.57 1.84,-6.23 1.84,-13.97l0 -56.73c0,-7.59 -0.7,-12.29 -2.13,-14.16 -1.39,-1.87 -4.29,-3.08 -8.73,-3.67l0 -3.96 40.93 0z"/>
  <path class="fil1" d="M2166.22 252.4l0 284.41c0,21.45 0.96,35.1 2.8,40.97 1.93,5.86 5.87,10.68 11.82,14.44 6.04,3.76 15.58,5.69 28.71,5.69l7.97 0 0 9.45 -183.13 0 0 -9.45 9.28 0c14.88,0 25.47,-1.75 31.77,-5.16 6.31,-3.42 10.6,-8.15 12.78,-14.1 2.28,-6.04 3.42,-19.96 3.42,-41.84l0 -180.24c0,-16.11 -0.79,-26.17 -2.37,-30.11 -1.48,-4.03 -4.37,-7.44 -8.57,-10.33 -4.21,-2.8 -9.02,-4.2 -14.45,-4.2 -8.75,0 -19.34,2.71 -31.86,8.23l-4.55 -9.28 127.89 -58.48 8.49 0zm233.55 0l0 284.41c0,21.45 0.96,35.1 2.8,40.97 1.92,5.86 5.86,10.68 11.82,14.44 6.04,3.76 15.58,5.69 28.71,5.69l7.96 0 0 9.45 -183.12 0 0 -9.45 9.28 0c14.88,0 25.47,-1.75 31.77,-5.16 6.3,-3.42 10.59,-8.15 12.78,-14.1 2.28,-6.04 3.42,-19.96 3.42,-41.84l0 -180.24c0,-16.11 -0.79,-26.17 -2.37,-30.11 -1.49,-4.03 -4.37,-7.44 -8.58,-10.33 -4.2,-2.8 -9.01,-4.2 -14.44,-4.2 -8.75,0 -19.34,2.71 -31.86,8.23l-4.55 -9.28 127.89 -58.48 8.49 0zm233.55 0l0 284.41c0,21.45 0.96,35.1 2.8,40.97 1.92,5.86 5.86,10.68 11.82,14.44 6.04,3.76 15.58,5.69 28.71,5.69l7.96 0 0 9.45 -183.12 0 0 -9.45 9.27 0c14.89,0 25.48,-1.75 31.78,-5.16 6.3,-3.42 10.59,-8.15 12.78,-14.1 2.28,-6.04 3.41,-19.96 3.41,-41.84l0 -180.24c0,-16.11 -0.78,-26.17 -2.36,-30.11 -1.49,-4.03 -4.38,-7.44 -8.58,-10.33 -4.2,-2.8 -9.01,-4.2 -14.44,-4.2 -8.75,0 -19.35,2.71 -31.86,8.23l-4.56 -9.28 127.9 -58.48 8.49 0z"/>
  <g style="clip-path:url(#id0)">
   <image x="2954.67" y="65.75" width="691.53" height="724.05" xlink:href="2_Images/2_ImgID1.png"/>
  </g>
  <g>
   <path class="fil2 str0" d="M2957.41 20.73l686.04 0c25.16,0 45.74,20.58 45.74,45.74l0 722.61c0,25.16 -20.58,45.74 -45.74,45.74l-686.04 0c-25.16,0 -45.74,-20.58 -45.74,-45.74l0 -722.61c0,-25.16 20.58,-45.74 45.74,-45.74z"/>
  </g>
 </g>
</svg>
