<?xml version="1.0" encoding="UTF-8"?>
<!DOCTYPE svg PUBLIC "-//W3C//DTD SVG 1.1//EN" "http://www.w3.org/Graphics/SVG/1.1/DTD/svg11.dtd">
<!-- Creator: CorelDRAW -->
<svg xmlns="http://www.w3.org/2000/svg" xml:space="preserve" width="18045px" height="4117px" version="1.1" style="shape-rendering:geometricPrecision; text-rendering:geometricPrecision; image-rendering:optimizeQuality; fill-rule:evenodd; clip-rule:evenodd"
viewBox="0 0 3699.4 843.94"
 xmlns:xlink="http://www.w3.org/1999/xlink">
 <defs>
  <style type="text/css">
   <![CDATA[
    .fil1 {fill:white;fill-rule:nonzero}
    .fil0 {fill:url(#id0)}
   ]]>
  </style>
  <linearGradient id="id0" gradientUnits="userSpaceOnUse" x1="1849.7" y1="843.94" x2="1849.7" y2="0">
   <stop offset="0" style="stop-opacity:1; stop-color:#00A85A"/>
   <stop offset="1" style="stop-opacity:1; stop-color:#A9D046"/>
  </linearGradient>
 </defs>
 <g id="Layer_x0020_1">
  <metadata id="CorelCorpID_0Corel-Layer"/>
  <path class="fil0" d="M87.52 0l3524.36 0c48.13,0 87.52,39.39 87.52,87.52l0 668.9c0,48.13 -39.39,87.52 -87.52,87.52l-3524.36 0c-48.13,0 -87.52,-39.39 -87.52,-87.52l0 -668.9c0,-48.14 39.38,-87.52 87.52,-87.52z"/>
  <g id="_105553726959936">
   <path class="fil1" d="M497.74 232l0 38.53 -3.76 0c-2.26,-8.91 -4.73,-15.29 -7.45,-19.15 -2.76,-3.91 -6.48,-6.99 -11.25,-9.28 -2.65,-1.25 -7.3,-1.9 -13.93,-1.9l-10.59 0 0 109.72c0,7.27 0.39,11.82 1.18,13.64 0.82,1.83 2.4,3.41 4.72,4.77 2.33,1.39 5.55,2.07 9.6,2.07l4.73 0 0 3.87 -74.48 0 0 -3.87 4.72 0c4.12,0 7.45,-0.75 9.96,-2.22 1.82,-0.96 3.26,-2.65 4.29,-5.05 0.79,-1.68 1.19,-6.08 1.19,-13.21l0 -109.72 -10.32 0c-9.56,0 -16.54,2.04 -20.87,6.09 -6.05,5.66 -9.92,13.75 -11.53,24.24l-3.98 0 0 -38.53 127.77 0zm39.74 44.19l0 22.24c6.48,-10.14 12.18,-16.87 17.08,-20.2 4.91,-3.33 9.64,-4.98 14.18,-4.98 3.91,0 7.06,1.22 9.39,3.62 2.32,2.4 3.51,5.8 3.51,10.21 0,4.69 -1.15,8.34 -3.41,10.92 -2.25,2.61 -5.01,3.9 -8.23,3.9 -3.69,0 -6.91,-1.18 -9.64,-3.58 -2.75,-2.4 -4.36,-3.72 -4.83,-3.97 -0.72,-0.43 -1.54,-0.65 -2.43,-0.65 -2.05,0 -3.94,0.75 -5.77,2.29 -2.86,2.4 -5.01,5.8 -6.48,10.21 -2.26,6.77 -3.37,14.25 -3.37,22.45l0 22.52 0.11 5.91c0,3.98 0.25,6.52 0.72,7.63 0.82,1.9 2.07,3.26 3.72,4.15 1.65,0.9 4.44,1.44 8.34,1.65l0 3.76 -52.96 0 0 -3.76c4.26,-0.36 7.13,-1.54 8.63,-3.54 1.51,-1.97 2.26,-7.24 2.26,-15.8l0 -54.21c0,-5.62 -0.29,-9.17 -0.82,-10.71 -0.68,-1.97 -1.72,-3.4 -3.05,-4.29 -1.32,-0.9 -3.69,-1.54 -7.02,-1.9l0 -3.87 40.07 0zm149.4 0l0 76.77c0,7.49 0.68,12.18 2.07,14.01 1.4,1.86 4.26,3.04 8.52,3.54l0 3.76 -39.99 0 0 -13.11c-4.69,5.59 -9.35,9.67 -14.04,12.21 -4.69,2.55 -9.95,3.84 -15.76,3.84 -5.51,0 -10.42,-1.69 -14.71,-5.09 -4.3,-3.4 -7.2,-7.38 -8.67,-11.92 -1.47,-4.55 -2.22,-12.46 -2.22,-23.82l0 -38.92c0,-7.41 -0.68,-11.99 -2.04,-13.82 -1.36,-1.83 -4.19,-3.01 -8.52,-3.58l0 -3.87 39.96 0 0 67.03c0,6.99 0.32,11.5 1,13.54 0.65,2.04 1.69,3.58 3.15,4.62 1.44,1.04 3.08,1.57 4.98,1.57 2.51,0 4.76,-0.68 6.8,-2 2.8,-1.83 6.16,-5.48 10.07,-11.03l0 -52.46c0,-7.41 -0.68,-11.99 -2.04,-13.82 -1.37,-1.83 -4.23,-3.01 -8.56,-3.58l0 -3.87 40 0zm64.77 0l0 12.68c5.05,-5.45 9.89,-9.42 14.5,-11.89 4.62,-2.47 9.57,-3.73 14.9,-3.73 6.34,0 11.64,1.76 15.83,5.3 4.19,3.55 6.98,7.92 8.38,13.15 1.11,3.97 1.68,11.63 1.68,22.98l0 38.18c0,7.55 0.68,12.28 2.04,14.11 1.36,1.86 4.23,3.04 8.56,3.54l0 3.76 -49.63 0 0 -3.76c3.72,-0.5 6.37,-2.04 7.98,-4.62 1.11,-1.75 1.69,-6.12 1.69,-13.03l0 -43.62c0,-8.05 -0.32,-13.1 -0.93,-15.22 -0.65,-2.11 -1.72,-3.72 -3.23,-4.87 -1.5,-1.18 -3.15,-1.75 -4.97,-1.75 -6.02,0 -11.61,4.3 -16.8,12.93l0 52.53c0,7.34 0.68,11.99 2.04,13.96 1.4,1.97 3.94,3.19 7.63,3.69l0 3.76 -49.63 0 0 -3.76c4.12,-0.43 7.05,-1.75 8.81,-4.01 1.18,-1.54 1.79,-6.09 1.79,-13.64l0 -55.4c0,-7.41 -0.68,-11.99 -2.04,-13.82 -1.36,-1.83 -4.23,-3.01 -8.56,-3.58l0 -3.87 39.96 0zm142.34 1.15l33.05 0 0 11.53 -18.8 0c3.44,3.43 5.84,6.55 7.16,9.34 1.69,3.76 2.51,7.74 2.51,11.86 0,6.98 -1.93,13.07 -5.84,18.19 -3.86,5.15 -9.13,9.16 -15.82,12.06 -6.7,2.9 -12.61,4.37 -17.8,4.37 -0.39,0 -4.58,-0.18 -12.57,-0.53 -3.15,0 -5.8,1.03 -7.91,3.11 -2.15,2.04 -3.23,4.51 -3.23,7.38 0,2.54 0.97,4.58 2.91,6.19 1.89,1.61 5.04,2.4 9.38,2.4l18.15 -0.18c14.68,0 24.78,1.61 30.33,4.8 7.91,4.48 11.85,11.39 11.85,20.66 0,5.95 -1.82,11.35 -5.47,16.22 -3.62,4.87 -8.42,8.45 -14.36,10.75 -9.03,3.43 -19.41,5.15 -31.16,5.15 -8.81,0 -16.86,-0.86 -24.13,-2.58 -7.27,-1.72 -12.5,-4.08 -15.65,-7.12 -3.12,-3.05 -4.69,-6.27 -4.69,-9.6 0,-3.22 1.22,-6.12 3.62,-8.66 2.39,-2.55 6.91,-4.7 13.46,-6.45 -9.1,-4.48 -13.64,-10.71 -13.64,-18.69 0,-4.84 1.86,-9.49 5.58,-14.04 3.69,-4.55 9.56,-8.52 17.62,-11.85 -9.38,-3.44 -16.19,-7.95 -20.37,-13.54 -4.19,-5.58 -6.27,-12.06 -6.27,-19.4 0,-9.57 3.9,-17.87 11.74,-24.93 7.85,-7.02 17.91,-10.53 30.19,-10.53 6.52,0 13.25,1.37 20.16,4.09zm-18.15 2.4c-4.05,0 -7.49,2.04 -10.28,6.16 -2.79,4.08 -4.19,12.56 -4.19,25.42 0,10.42 1.4,17.58 4.15,21.45 2.76,3.9 6.02,5.83 9.78,5.83 4.19,0 7.7,-1.93 10.49,-5.76 2.83,-3.83 4.23,-11.32 4.23,-22.45 0,-12.53 -1.58,-21.06 -4.73,-25.6 -2.26,-3.37 -5.41,-5.05 -9.45,-5.05zm-6.2 109c-7.12,0 -11.85,0.61 -14.14,1.79 -3.98,2.18 -5.98,5.12 -5.98,8.81 0,3.58 2.07,6.8 6.19,9.7 4.12,2.9 11.85,4.37 23.28,4.37 9.7,0 17.36,-1.29 22.91,-3.9 5.55,-2.58 8.35,-6.2 8.35,-10.89 0,-1.76 -0.54,-3.22 -1.58,-4.4 -1.9,-2.12 -4.72,-3.55 -8.56,-4.3 -3.79,-0.79 -13.96,-1.18 -30.47,-1.18zm246.93 -156.74l0 38.53 -3.76 0c-2.25,-8.91 -4.72,-15.29 -7.44,-19.15 -2.76,-3.91 -6.48,-6.99 -11.25,-9.28 -2.65,-1.25 -7.3,-1.9 -13.93,-1.9l-10.6 0 0 109.72c0,7.27 0.4,11.82 1.19,13.64 0.82,1.83 2.4,3.41 4.72,4.77 2.33,1.39 5.55,2.07 9.6,2.07l4.73 0 0 3.87 -74.49 0 0 -3.87 4.73 0c4.12,0 7.45,-0.75 9.96,-2.22 1.82,-0.96 3.25,-2.65 4.29,-5.05 0.79,-1.68 1.18,-6.08 1.18,-13.21l0 -109.72 -10.31 0c-9.56,0 -16.54,2.04 -20.87,6.09 -6.06,5.66 -9.92,13.75 -11.53,24.24l-3.98 0 0 -38.53 127.76 0zm69.11 127.8c-11.96,10.57 -22.7,15.83 -32.22,15.83 -5.59,0 -10.24,-1.83 -13.93,-5.51 -3.69,-3.69 -5.55,-8.28 -5.55,-13.79 0,-7.48 3.22,-14.22 9.63,-20.2 6.45,-5.98 20.48,-13.93 42.07,-23.84l0 -9.89c0,-7.41 -0.39,-12.06 -1.21,-14 -0.83,-1.93 -2.33,-3.61 -4.55,-5.05 -2.26,-1.43 -4.76,-2.15 -7.56,-2.15 -4.54,0 -8.3,1.01 -11.24,3.05 -1.83,1.25 -2.72,2.72 -2.72,4.4 0,1.47 0.97,3.3 2.93,5.48 2.69,3.01 4.02,5.91 4.02,8.7 0,3.4 -1.29,6.34 -3.84,8.78 -2.54,2.39 -5.9,3.61 -10.02,3.61 -4.41,0 -8.1,-1.32 -11.07,-4.01 -2.97,-2.65 -4.47,-5.76 -4.47,-9.31 0,-5.05 2,-9.85 5.98,-14.43 3.97,-4.58 9.56,-8.09 16.68,-10.56 7.13,-2.44 14.54,-3.66 22.24,-3.66 9.31,0 16.69,1.97 22.09,5.91 5.41,3.98 8.92,8.24 10.53,12.86 0.97,2.93 1.47,9.7 1.47,20.27l0 38.06c0,4.48 0.18,7.31 0.54,8.45 0.36,1.15 0.89,2.01 1.57,2.58 0.68,0.54 1.51,0.82 2.4,0.82 1.83,0 3.69,-1.29 5.59,-3.86l3.11 2.5c-3.47,5.19 -7.09,8.95 -10.85,11.28 -3.76,2.33 -7.98,3.51 -12.74,3.51 -5.59,0 -9.96,-1.32 -13.11,-3.94 -3.15,-2.61 -5.08,-6.59 -5.77,-11.89zm0 -7.66l0 -32.84c-8.48,4.98 -14.75,10.28 -18.87,15.94 -2.75,3.76 -4.11,7.59 -4.11,11.42 0,3.22 1.14,6.05 3.47,8.52 1.75,1.9 4.19,2.83 7.34,2.83 3.51,0 7.56,-1.97 12.17,-5.87zm4.52 -127.58l21.3 40.07 -8.09 0 -24.96 -21.6 -25.71 20.99 -8.59 0 22.34 -39.46 23.71 0zm89.48 51.63l0 12.89c5.37,-5.87 10.35,-9.99 14.93,-12.32 4.59,-2.32 9.6,-3.51 15.08,-3.51 6.27,0 11.56,1.47 15.83,4.41 4.26,2.94 7.55,7.41 9.88,13.43 5.59,-6.3 10.96,-10.85 16.08,-13.65 5.15,-2.79 10.52,-4.19 16.11,-4.19 6.77,0 12.18,1.54 16.22,4.66 4.01,3.12 6.81,7.05 8.38,11.85 1.58,4.8 2.36,12.43 2.36,22.92l0 40.18c0,7.55 0.68,12.24 2.05,14.07 1.36,1.83 4.22,3.01 8.55,3.58l0 3.76 -50.67 0 0 -3.76c3.98,-0.36 6.92,-1.9 8.81,-4.62 1.26,-1.9 1.9,-6.23 1.9,-13.03l0 -42.15c0,-8.77 -0.36,-14.32 -1.07,-16.69 -0.68,-2.4 -1.79,-4.15 -3.3,-5.3 -1.5,-1.18 -3.26,-1.75 -5.3,-1.75 -3,0 -6.05,1.11 -9.13,3.33 -3.08,2.18 -6.19,5.51 -9.34,9.92l0 52.64c0,7.05 0.61,11.49 1.79,13.32 1.61,2.61 4.69,4.04 9.24,4.33l0 3.76 -50.78 0 0 -3.76c2.72,-0.14 4.87,-0.82 6.44,-2.08 1.58,-1.21 2.62,-2.68 3.16,-4.4 0.53,-1.68 0.78,-5.41 0.78,-11.17l0 -42.15c0,-8.88 -0.35,-14.43 -1.04,-16.69 -0.68,-2.25 -1.86,-4.01 -3.5,-5.26 -1.65,-1.25 -3.41,-1.86 -5.3,-1.86 -2.8,0 -5.34,0.71 -7.67,2.18 -3.29,2.19 -6.8,5.87 -10.49,11.14l0 52.64c0,6.91 0.68,11.49 2.04,13.71 1.36,2.19 4.23,3.51 8.56,3.94l0 3.76 -50.56 0 0 -3.76c4.12,-0.43 7.05,-1.75 8.81,-4.01 1.18,-1.54 1.79,-6.09 1.79,-13.64l0 -55.4c0,-7.41 -0.68,-11.99 -2.08,-13.82 -1.36,-1.83 -4.19,-3.01 -8.52,-3.58l0 -3.87 39.96 0zm328.15 -47.41l0 49.27 -4.08 0c-3.08,-12.85 -8.81,-22.73 -17.23,-29.57 -8.38,-6.84 -17.9,-10.28 -28.54,-10.28 -8.88,0 -17.01,2.54 -24.42,7.66 -7.41,5.12 -12.85,11.78 -16.25,20.05 -4.41,10.57 -6.63,22.31 -6.63,35.24 0,12.71 1.61,24.31 4.83,34.77 3.23,10.46 8.28,18.37 15.12,23.7 6.84,5.34 15.72,8.03 26.64,8.03 8.95,0 17.15,-1.97 24.6,-5.88 7.45,-3.9 15.29,-10.67 23.56,-20.23l0 12.28c-7.99,8.31 -16.29,14.33 -24.92,18.09 -8.63,3.76 -18.73,5.62 -30.3,5.62 -15.14,0 -28.64,-3.05 -40.42,-9.13 -11.79,-6.09 -20.88,-14.83 -27.29,-26.21 -6.41,-11.43 -9.6,-23.57 -9.6,-36.42 0,-13.57 3.55,-26.43 10.67,-38.6 7.09,-12.18 16.65,-21.63 28.72,-28.33 12.07,-6.69 24.89,-10.06 38.46,-10.06 9.99,0 20.55,2.15 31.69,6.48 6.41,2.54 10.53,3.8 12.28,3.8 2.22,0 4.16,-0.83 5.8,-2.47 1.65,-1.65 2.72,-4.26 3.23,-7.81l4.08 0zm59.05 3.22l0 56.76c5.4,-5.66 10.31,-9.67 14.79,-12 4.47,-2.32 9.13,-3.51 13.96,-3.51 6.16,0 11.42,1.76 15.79,5.23 4.37,3.51 7.27,7.63 8.7,12.32 1.44,4.73 2.15,12.68 2.15,23.88l0 38.28c0,7.49 0.72,12.18 2.11,14.01 1.4,1.86 4.23,3.04 8.49,3.54l0 3.76 -49.74 0 0 -3.76c3.51,-0.5 6.13,-1.9 7.88,-4.23 1.25,-1.82 1.9,-6.26 1.9,-13.32l0 -43.72c0,-8.13 -0.32,-13.21 -0.97,-15.29 -0.61,-2.04 -1.68,-3.65 -3.19,-4.8 -1.5,-1.18 -3.18,-1.75 -5.08,-1.75 -2.79,0 -5.51,0.97 -8.16,2.9 -2.69,1.9 -5.55,5.26 -8.63,10.1l0 52.56c0,6.99 0.53,11.36 1.57,13.11 1.33,2.4 4.08,3.87 8.2,4.44l0 3.76 -49.74 0 0 -3.76c4.12,-0.43 7.06,-1.75 8.81,-4.01 1.18,-1.54 1.79,-6.05 1.79,-13.54l0 -99.65c0,-7.41 -0.68,-12.03 -2.04,-13.86 -1.36,-1.82 -4.22,-3.01 -8.56,-3.54l0 -3.91 39.97 0zm133.53 127.8c-11.96,10.57 -22.71,15.83 -32.23,15.83 -5.59,0 -10.24,-1.83 -13.93,-5.51 -3.69,-3.69 -5.55,-8.28 -5.55,-13.79 0,-7.48 3.22,-14.22 9.63,-20.2 6.45,-5.98 20.48,-13.93 42.08,-23.84l0 -9.89c0,-7.41 -0.4,-12.06 -1.22,-14 -0.83,-1.93 -2.33,-3.61 -4.55,-5.05 -2.26,-1.43 -4.76,-2.15 -7.56,-2.15 -4.54,0 -8.3,1.01 -11.24,3.05 -1.83,1.25 -2.72,2.72 -2.72,4.4 0,1.47 0.97,3.3 2.94,5.48 2.68,3.01 4.01,5.91 4.01,8.7 0,3.4 -1.29,6.34 -3.84,8.78 -2.54,2.39 -5.9,3.61 -10.02,3.61 -4.41,0 -8.09,-1.32 -11.07,-4.01 -2.97,-2.65 -4.47,-5.76 -4.47,-9.31 0,-5.05 2,-9.85 5.98,-14.43 3.97,-4.58 9.56,-8.09 16.68,-10.56 7.13,-2.44 14.54,-3.66 22.24,-3.66 9.31,0 16.69,1.97 22.09,5.91 5.41,3.98 8.92,8.24 10.53,12.86 0.97,2.93 1.47,9.7 1.47,20.27l0 38.06c0,4.48 0.18,7.31 0.54,8.45 0.36,1.15 0.89,2.01 1.57,2.58 0.68,0.54 1.51,0.82 2.4,0.82 1.83,0 3.69,-1.29 5.59,-3.86l3.11 2.5c-3.47,5.19 -7.09,8.95 -10.85,11.28 -3.76,2.33 -7.98,3.51 -12.74,3.51 -5.59,0 -9.96,-1.32 -13.11,-3.94 -3.15,-2.61 -5.08,-6.59 -5.76,-11.89zm0 -7.66l0 -32.84c-8.49,4.98 -14.76,10.28 -18.88,15.94 -2.75,3.76 -4.11,7.59 -4.11,11.42 0,3.22 1.14,6.05 3.47,8.52 1.75,1.9 4.19,2.83 7.34,2.83 3.51,0 7.56,-1.97 12.18,-5.87zm18.15 -123.36l6.8 0c-0.46,9.92 -3.83,18.01 -10.06,24.21 -6.23,6.23 -13.39,9.34 -21.52,9.34 -8.06,0 -15.22,-3.11 -21.48,-9.34 -6.31,-6.2 -9.78,-14.29 -10.39,-24.21l6.91 0c1.76,4.41 4.48,7.7 8.24,9.96 3.76,2.25 9.06,3.36 15.9,3.36 7.77,0 13.5,-1.07 17.19,-3.26 3.72,-2.18 6.51,-5.51 8.41,-10.06zm75.84 47.41l0 12.89c5.37,-5.87 10.35,-9.99 14.93,-12.32 4.59,-2.32 9.6,-3.51 15.08,-3.51 6.27,0 11.57,1.47 15.83,4.41 4.26,2.94 7.55,7.41 9.88,13.43 5.59,-6.3 10.96,-10.85 16.08,-13.65 5.15,-2.79 10.53,-4.19 16.11,-4.19 6.77,0 12.18,1.54 16.22,4.66 4.01,3.12 6.81,7.05 8.38,11.85 1.58,4.8 2.36,12.43 2.36,22.92l0 40.18c0,7.55 0.69,12.24 2.05,14.07 1.36,1.83 4.22,3.01 8.55,3.58l0 3.76 -50.66 0 0 -3.76c3.97,-0.36 6.91,-1.9 8.8,-4.62 1.26,-1.9 1.9,-6.23 1.9,-13.03l0 -42.15c0,-8.77 -0.36,-14.32 -1.07,-16.69 -0.68,-2.4 -1.79,-4.15 -3.3,-5.3 -1.5,-1.18 -3.25,-1.75 -5.3,-1.75 -3,0 -6.05,1.11 -9.13,3.33 -3.08,2.18 -6.19,5.51 -9.34,9.92l0 52.64c0,7.05 0.61,11.49 1.79,13.32 1.61,2.61 4.69,4.04 9.24,4.33l0 3.76 -50.78 0 0 -3.76c2.72,-0.14 4.87,-0.82 6.45,-2.08 1.57,-1.21 2.61,-2.68 3.15,-4.4 0.53,-1.68 0.78,-5.41 0.78,-11.17l0 -42.15c0,-8.88 -0.35,-14.43 -1.03,-16.69 -0.68,-2.25 -1.87,-4.01 -3.51,-5.26 -1.65,-1.25 -3.41,-1.86 -5.3,-1.86 -2.8,0 -5.34,0.71 -7.67,2.18 -3.29,2.19 -6.8,5.87 -10.49,11.14l0 52.64c0,6.91 0.68,11.49 2.04,13.71 1.36,2.19 4.23,3.51 8.56,3.94l0 3.76 -50.56 0 0 -3.76c4.12,-0.43 7.05,-1.75 8.81,-4.01 1.18,-1.54 1.79,-6.09 1.79,-13.64l0 -55.4c0,-7.41 -0.68,-11.99 -2.08,-13.82 -1.36,-1.83 -4.19,-3.01 -8.52,-3.58l0 -3.87 39.96 0zm285.64 -47.41l1.19 47.41 -4.34 0c-2,-11.89 -6.98,-21.45 -14.93,-28.72 -7.95,-7.23 -16.54,-10.85 -25.74,-10.85 -7.13,0 -12.79,1.9 -16.94,5.73 -4.19,3.83 -6.27,8.2 -6.27,13.18 0,3.12 0.75,5.91 2.22,8.38 2.04,3.29 5.27,6.55 9.74,9.74 3.3,2.33 10.89,6.41 22.78,12.28 16.65,8.2 27.85,15.94 33.66,23.2 5.76,7.27 8.63,15.58 8.63,24.96 0,11.89 -4.66,22.13 -13.93,30.69 -9.28,8.56 -21.02,12.86 -35.28,12.86 -4.47,0 -8.73,-0.47 -12.71,-1.36 -3.97,-0.9 -8.99,-2.62 -15,-5.16 -3.33,-1.4 -6.09,-2.08 -8.27,-2.08 -1.83,0 -3.73,0.68 -5.77,2.08 -2.04,1.4 -3.69,3.54 -4.94,6.41l-3.87 0 0 -53.71 3.87 0c3.08,15.11 9.02,26.64 17.8,34.55 8.77,7.95 18.22,11.93 28.36,11.93 7.84,0 14.07,-2.15 18.73,-6.41 4.65,-4.27 6.98,-9.24 6.98,-14.9 0,-3.37 -0.9,-6.63 -2.69,-9.78 -1.79,-3.11 -4.51,-6.12 -8.13,-8.95 -3.61,-2.83 -10.06,-6.52 -19.3,-11.06 -12.92,-6.38 -22.23,-11.78 -27.89,-16.26 -5.7,-4.48 -10.03,-9.49 -13.07,-15 -3.05,-5.55 -4.59,-11.64 -4.59,-18.27 0,-11.35 4.16,-20.98 12.5,-28.93 8.35,-7.98 18.84,-11.96 31.48,-11.96 4.62,0 9.09,0.54 13.43,1.65 3.29,0.86 7.3,2.43 11.99,4.69 4.73,2.26 8.02,3.4 9.92,3.4 1.83,0 3.26,-0.57 4.3,-1.68 1.04,-1.11 2.04,-3.8 2.93,-8.06l3.15 0zm72.05 44.47c8.56,0 16.47,2.19 23.81,6.59 7.34,4.41 12.93,10.67 16.73,18.8 3.83,8.13 5.73,17.01 5.73,26.64 0,13.93 -3.55,25.57 -10.6,34.92 -8.53,11.35 -20.31,17.01 -35.35,17.01 -14.75,0 -26.1,-5.2 -34.09,-15.54 -7.98,-10.35 -11.96,-22.31 -11.96,-35.96 0,-14.07 4.09,-26.32 12.21,-36.77 8.13,-10.46 19.31,-15.69 33.52,-15.69zm0.43 7.45c-3.58,0 -6.62,1.36 -9.17,4.05 -2.54,2.69 -4.22,7.98 -5.05,15.93 -0.82,7.92 -1.21,18.95 -1.21,33.09 0,7.48 0.5,14.5 1.47,20.98 0.75,4.98 2.39,8.74 4.94,11.32 2.5,2.61 5.37,3.9 8.59,3.9 3.15,0 5.77,-0.86 7.88,-2.61 2.72,-2.4 4.55,-5.73 5.44,-9.99 1.4,-6.63 2.11,-20.05 2.11,-40.29 0,-11.88 -0.68,-20.05 -2,-24.49 -1.33,-4.44 -3.3,-7.66 -5.87,-9.7 -1.83,-1.47 -4.19,-2.19 -7.13,-2.19zm31.58 -53.49l-34.73 36.38 -9.02 0 12.17 -36.38 31.58 0zm109.22 121.78l3.22 2.51c-4.62,8.7 -10.35,15.14 -17.26,19.37 -6.87,4.22 -14.18,6.34 -21.95,6.34 -13.07,0 -23.52,-4.95 -31.37,-14.79 -7.84,-9.85 -11.74,-21.7 -11.74,-35.56 0,-13.36 3.54,-25.14 10.67,-35.27 8.63,-12.21 20.48,-18.34 35.59,-18.34 10.14,0 18.19,2.55 24.17,7.67 5.98,5.08 8.96,10.78 8.96,17.08 0,3.97 -1.22,7.16 -3.62,9.56 -2.4,2.36 -5.59,3.54 -9.49,3.54 -4.12,0 -7.56,-1.36 -10.24,-4.08 -2.69,-2.72 -4.33,-7.59 -4.98,-14.57 -0.39,-4.41 -1.43,-7.49 -3.04,-9.24 -1.61,-1.75 -3.48,-2.61 -5.66,-2.61 -3.37,0 -6.23,1.79 -8.59,5.33 -3.62,5.41 -5.45,13.64 -5.45,24.78 0,9.2 1.47,18.05 4.41,26.46 2.93,8.42 6.94,14.72 12.03,18.84 3.87,3.01 8.41,4.51 13.64,4.51 3.44,0 6.7,-0.79 9.78,-2.4 3.08,-1.61 6.73,-4.65 10.92,-9.13zm162.68 -120.21l1.18 47.41 -4.34 0c-2,-11.89 -6.98,-21.45 -14.93,-28.72 -7.95,-7.23 -16.54,-10.85 -25.74,-10.85 -7.13,0 -12.79,1.9 -16.94,5.73 -4.19,3.83 -6.27,8.2 -6.27,13.18 0,3.12 0.75,5.91 2.22,8.38 2.04,3.29 5.27,6.55 9.74,9.74 3.3,2.33 10.89,6.41 22.78,12.28 16.65,8.2 27.86,15.94 33.66,23.2 5.76,7.27 8.63,15.58 8.63,24.96 0,11.89 -4.66,22.13 -13.93,30.69 -9.28,8.56 -21.02,12.86 -35.27,12.86 -4.48,0 -8.74,-0.47 -12.72,-1.36 -3.97,-0.9 -8.98,-2.62 -15,-5.16 -3.33,-1.4 -6.09,-2.08 -8.27,-2.08 -1.83,0 -3.73,0.68 -5.77,2.08 -2.04,1.4 -3.68,3.54 -4.94,6.41l-3.87 0 0 -53.71 3.87 0c3.08,15.11 9.03,26.64 17.8,34.55 8.77,7.95 18.22,11.93 28.36,11.93 7.84,0 14.07,-2.15 18.73,-6.41 4.65,-4.27 6.98,-9.24 6.98,-14.9 0,-3.37 -0.9,-6.63 -2.69,-9.78 -1.79,-3.11 -4.51,-6.12 -8.12,-8.95 -3.62,-2.83 -10.07,-6.52 -19.31,-11.06 -12.92,-6.38 -22.23,-11.78 -27.89,-16.26 -5.69,-4.48 -10.03,-9.49 -13.07,-15 -3.04,-5.55 -4.58,-11.64 -4.58,-18.27 0,-11.35 4.15,-20.98 12.49,-28.93 8.35,-7.98 18.84,-11.96 31.48,-11.96 4.62,0 9.09,0.54 13.43,1.65 3.29,0.86 7.3,2.43 11.99,4.69 4.73,2.26 8.02,3.4 9.92,3.4 1.83,0 3.26,-0.57 4.3,-1.68 1.04,-1.11 2.04,-3.8 2.93,-8.06l3.16 0zm133.42 71.55c0.82,-0.43 1.57,-1.33 2.22,-2.65 0.25,-0.68 0.25,-1.29 0,-1.76 -0.29,-0.57 -1.69,-1.61 -4.23,-3.15 -1.04,-0.72 -1.93,-1.68 -2.61,-2.94 -1.68,-2.9 -2.15,-5.65 -1.47,-8.3 0.75,-2.8 2.61,-4.98 5.55,-6.59 2.94,-1.61 6.05,-1.94 9.35,-0.97 6.44,1.97 9.66,6.48 9.66,13.54 0,1.89 -0.35,3.86 -1.07,5.98 -1.54,4.69 -5.05,8.05 -10.6,10.17 -5.16,2.04 -11.71,3 -19.69,2.93l0 46.37c0,7.2 0.68,11.89 2.07,14.08 1.19,1.82 4.05,2.97 8.53,3.47l0 3.76 -40 0 0 -13.11c-8.95,10.71 -18.87,16.05 -29.79,16.05 -5.38,0 -10.28,-1.72 -14.69,-5.16 -4.26,-3.19 -7.16,-7.13 -8.66,-11.75 -1.51,-4.61 -2.26,-12.56 -2.26,-23.92l0 -38.92c0,-7.2 -0.68,-11.78 -2.07,-13.82 -1.19,-1.83 -4.01,-3.01 -8.49,-3.58l0 -3.87 39.96 0 0 67.03c0,10.07 1.4,16.12 4.19,18.16 1.4,1.04 3.04,1.57 4.94,1.57 5.12,0 10.74,-4.33 16.87,-13.03l0 -52.46c0,-7.2 -0.68,-11.78 -2.08,-13.82 -1.18,-1.83 -4.05,-3.01 -8.52,-3.58l0 -3.87 40 0 0 26.54c5.65,-0.29 9.95,-1.08 12.89,-2.4zm-22.02 -73.12l-34.74 36.38 -9.02 0 12.17 -36.38 31.59 0zm123.36 121.78l3.22 2.51c-4.62,8.7 -10.35,15.14 -17.26,19.37 -6.88,4.22 -14.18,6.34 -21.95,6.34 -13.07,0 -23.53,-4.95 -31.37,-14.79 -7.84,-9.85 -11.75,-21.7 -11.75,-35.56 0,-13.36 3.55,-25.14 10.68,-35.27 8.63,-12.21 20.48,-18.34 35.59,-18.34 10.13,0 18.19,2.55 24.17,7.67 5.98,5.08 8.95,10.78 8.95,17.08 0,3.97 -1.22,7.16 -3.62,9.56 -2.39,2.36 -5.58,3.54 -9.48,3.54 -4.12,0 -7.56,-1.36 -10.25,-4.08 -2.68,-2.72 -4.33,-7.59 -4.97,-14.57 -0.4,-4.41 -1.44,-7.49 -3.05,-9.24 -1.61,-1.75 -3.47,-2.61 -5.65,-2.61 -3.37,0 -6.23,1.79 -8.6,5.33 -3.61,5.41 -5.44,13.64 -5.44,24.78 0,9.2 1.47,18.05 4.4,26.46 2.94,8.42 6.95,14.72 12.03,18.84 3.87,3.01 8.42,4.51 13.65,4.51 3.44,0 6.69,-0.79 9.77,-2.4 3.08,-1.61 6.74,-4.65 10.93,-9.13zm151.25 -62.52l50.02 62.63c7.06,8.81 13.14,14.79 18.27,17.94 3.72,2.25 7.62,3.36 11.74,3.36l0 3.87 -74.05 0 0 -3.87c4.69,-0.43 7.7,-1.18 9.06,-2.22 1.4,-1.04 2.08,-2.32 2.08,-3.86 0,-2.94 -3.23,-8.46 -9.67,-16.58l-32.62 -41.04 -5.27 4.4 0 38.82c0,7.41 0.43,12.03 1.29,13.86 0.82,1.82 2.44,3.36 4.8,4.65 2.4,1.33 6.19,1.97 11.46,1.97l0 3.87 -71.76 0 0 -3.87 4.73 0c4.11,0 7.41,-0.75 9.95,-2.22 1.83,-0.96 3.22,-2.65 4.19,-5.05 0.75,-1.68 1.15,-6.08 1.15,-13.21l0 -93.57c0,-7.27 -0.4,-11.81 -1.15,-13.64 -0.75,-1.83 -2.33,-3.4 -4.66,-4.76 -2.32,-1.36 -5.51,-2.04 -9.48,-2.04l-4.73 0 0 -3.91 70.79 0 0 3.91c-4.83,0 -8.49,0.68 -10.99,2.07 -1.83,0.97 -3.26,2.62 -4.3,4.95 -0.86,1.75 -1.29,6.23 -1.29,13.42l0 44.26 52.78 -42.68c7.34,-5.95 11.03,-10.71 11.03,-14.25 0,-2.69 -1.5,-4.77 -4.51,-6.3 -1.54,-0.76 -5.37,-1.26 -11.46,-1.47l0 -3.91 55.5 0 0 3.91c-4.97,0.32 -8.88,1.21 -11.7,2.65 -2.83,1.46 -9.35,6.3 -19.56,14.53l-41.64 33.38z"/>
   <path class="fil1" d="M3066.91 232l0 56.76c5.41,-5.66 10.31,-9.67 14.79,-12 4.47,-2.32 9.13,-3.51 13.96,-3.51 6.16,0 11.43,1.76 15.79,5.23 4.37,3.51 7.27,7.63 8.71,12.32 1.43,4.73 2.14,12.68 2.14,23.88l0 38.28c0,7.49 0.72,12.18 2.12,14.01 1.39,1.86 4.22,3.04 8.48,3.54l0 3.76 -49.73 0 0 -3.76c3.5,-0.5 6.12,-1.9 7.87,-4.23 1.26,-1.82 1.9,-6.26 1.9,-13.32l0 -43.72c0,-8.13 -0.32,-13.21 -0.97,-15.29 -0.6,-2.04 -1.68,-3.65 -3.18,-4.8 -1.51,-1.18 -3.19,-1.75 -5.09,-1.75 -2.79,0 -5.51,0.97 -8.16,2.9 -2.69,1.9 -5.55,5.26 -8.63,10.1l0 52.56c0,6.99 0.54,11.36 1.57,13.11 1.33,2.4 4.09,3.87 8.2,4.44l0 3.76 -49.73 0 0 -3.76c4.11,-0.43 7.05,-1.75 8.81,-4.01 1.18,-1.54 1.79,-6.05 1.79,-13.54l0 -99.65c0,-7.41 -0.68,-12.03 -2.05,-13.86 -1.36,-1.82 -4.22,-3.01 -8.55,-3.54l0 -3.91 39.96 0zm125.65 41.25c8.56,0 16.47,2.19 23.81,6.59 7.34,4.41 12.93,10.67 16.72,18.8 3.84,8.13 5.73,17.01 5.73,26.64 0,13.93 -3.54,25.57 -10.6,34.92 -8.52,11.35 -20.3,17.01 -35.34,17.01 -14.75,0 -26.1,-5.2 -34.09,-15.54 -7.98,-10.35 -11.96,-22.31 -11.96,-35.96 0,-14.07 4.08,-26.32 12.21,-36.77 8.13,-10.46 19.3,-15.69 33.52,-15.69zm0.43 7.45c-3.58,0 -6.62,1.36 -9.17,4.05 -2.54,2.69 -4.22,7.98 -5.05,15.93 -0.82,7.92 -1.21,18.95 -1.21,33.09 0,7.48 0.5,14.5 1.46,20.98 0.76,4.98 2.4,8.74 4.95,11.32 2.5,2.61 5.37,3.9 8.59,3.9 3.15,0 5.76,-0.86 7.88,-2.61 2.72,-2.4 4.55,-5.73 5.44,-9.99 1.4,-6.63 2.11,-20.05 2.11,-40.29 0,-11.88 -0.68,-20.05 -2,-24.49 -1.33,-4.44 -3.3,-7.66 -5.87,-9.7 -1.83,-1.47 -4.19,-2.19 -7.13,-2.19zm16.36 -30.76c-5.8,3.44 -9.31,5.84 -10.49,7.17 -1.18,1.32 -1.97,3.47 -2.33,6.48l-5.65 0c0.64,-6.02 3.08,-11.14 7.34,-15.4 3.08,-3.08 4.62,-6.02 4.62,-8.85 0,-5.15 -3.51,-7.73 -10.5,-7.73 -2.43,0 -4.51,0.36 -6.19,1.04 -1.68,0.68 -2.51,1.36 -2.51,2 0,0.54 0.61,1.44 1.83,2.65 1.25,1.26 1.86,2.22 1.86,2.9 0,2.44 -2.15,3.66 -6.41,3.66 -2.79,0 -5.05,-0.54 -6.77,-1.62 -1.71,-1.07 -2.57,-2.54 -2.57,-4.36 0,-2.87 2.22,-5.27 6.62,-7.17 4.41,-1.93 9.99,-2.9 16.79,-2.9 8.74,0 15.22,1.36 19.48,4.09 3.16,2.04 4.73,4.29 4.73,6.84 0,3.54 -3.29,7.3 -9.85,11.2zm127.45 71.76l-53.79 0c0.61,13 4.08,23.31 10.39,30.87 4.83,5.8 10.63,8.7 17.4,8.7 4.19,0 8.02,-1.18 11.42,-3.51 3.44,-2.36 7.13,-6.59 11.03,-12.64l3.55 2.29c-5.3,10.85 -11.18,18.52 -17.62,23.03 -6.41,4.51 -13.86,6.77 -22.35,6.77 -14.53,0 -25.56,-5.59 -33.05,-16.8 -6.01,-9.02 -9.02,-20.19 -9.02,-33.55 0,-16.36 4.44,-29.4 13.28,-39.1 8.85,-9.67 19.23,-14.51 31.12,-14.51 9.92,0 18.55,4.09 25.85,12.22 7.31,8.12 11.25,20.23 11.79,36.23zm-25.79 -7.02c0,-11.27 -0.61,-19.01 -1.86,-23.2 -1.22,-4.19 -3.11,-7.34 -5.69,-9.52 -1.47,-1.26 -3.44,-1.9 -5.87,-1.9 -3.66,0 -6.63,1.79 -8.92,5.37 -4.12,6.19 -6.2,14.72 -6.2,25.57l0 3.68 28.54 0z"/>
  </g>
  <path class="fil1" d="M1097.69 466.73l1.18 47.41 -4.33 0c-2.01,-11.89 -6.99,-21.45 -14.94,-28.72 -7.95,-7.23 -16.54,-10.85 -25.74,-10.85 -7.13,0 -12.79,1.9 -16.94,5.73 -4.19,3.83 -6.27,8.2 -6.27,13.18 0,3.11 0.76,5.9 2.22,8.38 2.05,3.29 5.27,6.55 9.74,9.73 3.3,2.33 10.89,6.41 22.78,12.29 16.65,8.2 27.86,15.93 33.66,23.2 5.76,7.27 8.63,15.58 8.63,24.96 0,11.89 -4.66,22.13 -13.93,30.69 -9.28,8.56 -21.02,12.85 -35.27,12.85 -4.48,0 -8.74,-0.46 -12.71,-1.36 -3.98,-0.89 -8.99,-2.61 -15.01,-5.15 -3.33,-1.4 -6.09,-2.08 -8.27,-2.08 -1.83,0 -3.72,0.68 -5.77,2.08 -2.04,1.39 -3.68,3.54 -4.94,6.4l-3.86 0 0 -53.71 3.86 0c3.08,15.11 9.03,26.64 17.8,34.56 8.77,7.95 18.23,11.92 28.36,11.92 7.84,0 14.07,-2.15 18.73,-6.41 4.65,-4.26 6.98,-9.24 6.98,-14.89 0,-3.37 -0.89,-6.63 -2.69,-9.78 -1.79,-3.12 -4.51,-6.12 -8.12,-8.95 -3.62,-2.83 -10.07,-6.52 -19.3,-11.07 -12.93,-6.37 -22.24,-11.78 -27.9,-16.25 -5.69,-4.48 -10.03,-9.49 -13.07,-15.01 -3.04,-5.55 -4.58,-11.64 -4.58,-18.26 0,-11.35 4.15,-20.98 12.49,-28.93 8.35,-7.99 18.84,-11.96 31.48,-11.96 4.62,0 9.1,0.53 13.43,1.64 3.29,0.86 7.3,2.44 11.99,4.7 4.73,2.25 8.03,3.4 9.92,3.4 1.83,0 3.26,-0.58 4.3,-1.69 1.04,-1.11 2.04,-3.79 2.94,-8.05l3.15 0zm49.38 -0.11c4.54,0 8.41,1.58 11.56,4.76 3.12,3.19 4.69,7.02 4.69,11.5 0,4.47 -1.57,8.27 -4.76,11.42 -3.19,3.15 -7.02,4.73 -11.49,4.73 -4.48,0 -8.27,-1.58 -11.43,-4.73 -3.15,-3.15 -4.72,-6.95 -4.72,-11.42 0,-4.48 1.57,-8.31 4.72,-11.5 3.16,-3.18 6.95,-4.76 11.43,-4.76zm14.68 47.52l0 77.74c0,6.91 0.82,11.35 2.43,13.25 1.61,1.93 4.77,3.04 9.46,3.33l0 3.76 -53 0 0 -3.76c4.33,-0.15 7.56,-1.4 9.67,-3.8 1.4,-1.61 2.08,-5.87 2.08,-12.78l0 -57.3c0,-6.91 -0.79,-11.35 -2.4,-13.28 -1.62,-1.9 -4.73,-3.01 -9.35,-3.3l0 -3.86 41.11 0zm61.45 0l0 12.67c5.04,-5.44 9.88,-9.41 14.5,-11.88 4.62,-2.48 9.56,-3.73 14.89,-3.73 6.34,0 11.64,1.76 15.83,5.3 4.19,3.55 6.98,7.91 8.38,13.14 1.11,3.98 1.68,11.64 1.68,22.99l0 38.17c0,7.56 0.68,12.29 2.04,14.11 1.37,1.86 4.23,3.05 8.56,3.55l0 3.76 -49.63 0 0 -3.76c3.73,-0.5 6.38,-2.04 7.99,-4.62 1.11,-1.76 1.68,-6.13 1.68,-13.04l0 -43.61c0,-8.06 -0.32,-13.11 -0.93,-15.22 -0.64,-2.11 -1.72,-3.72 -3.22,-4.87 -1.51,-1.18 -3.15,-1.75 -4.98,-1.75 -6.02,0 -11.6,4.29 -16.79,12.92l0 52.53c0,7.34 0.68,12 2.04,13.97 1.39,1.97 3.94,3.19 7.62,3.69l0 3.76 -49.63 0 0 -3.76c4.12,-0.43 7.06,-1.76 8.81,-4.01 1.18,-1.54 1.79,-6.09 1.79,-13.65l0 -55.39c0,-7.41 -0.68,-12 -2.04,-13.82 -1.36,-1.83 -4.22,-3.01 -8.56,-3.59l0 -3.86 39.97 0zm119.45 -44.19l0 56.76c5.41,-5.66 10.31,-9.67 14.79,-12 4.48,-2.33 9.13,-3.51 13.97,-3.51 6.15,0 11.42,1.76 15.79,5.23 4.37,3.51 7.27,7.63 8.7,12.32 1.43,4.72 2.15,12.67 2.15,23.88l0 38.28c0,7.48 0.71,12.18 2.11,14 1.4,1.86 4.23,3.05 8.49,3.55l0 3.76 -49.74 0 0 -3.76c3.51,-0.5 6.12,-1.9 7.88,-4.23 1.25,-1.83 1.89,-6.27 1.89,-13.32l0 -43.72c0,-8.13 -0.32,-13.21 -0.96,-15.29 -0.61,-2.04 -1.69,-3.65 -3.19,-4.8 -1.5,-1.18 -3.19,-1.75 -5.08,-1.75 -2.8,0 -5.52,0.96 -8.17,2.9 -2.68,1.89 -5.55,5.26 -8.63,10.09l0 52.57c0,6.98 0.54,11.35 1.58,13.11 1.32,2.4 4.08,3.86 8.2,4.44l0 3.76 -49.74 0 0 -3.76c4.12,-0.43 7.05,-1.76 8.81,-4.01 1.18,-1.54 1.79,-6.06 1.79,-13.54l0 -99.65c0,-7.42 -0.68,-12.04 -2.04,-13.86 -1.36,-1.83 -4.23,-3.01 -8.56,-3.55l0 -3.9 39.96 0zm226.78 -3.22l1.18 47.41 -4.34 0c-2,-11.89 -6.98,-21.45 -14.93,-28.72 -7.95,-7.23 -16.54,-10.85 -25.74,-10.85 -7.13,0 -12.79,1.9 -16.94,5.73 -4.19,3.83 -6.27,8.2 -6.27,13.18 0,3.11 0.75,5.9 2.22,8.38 2.04,3.29 5.27,6.55 9.74,9.73 3.3,2.33 10.89,6.41 22.78,12.29 16.65,8.2 27.86,15.93 33.66,23.2 5.76,7.27 8.63,15.58 8.63,24.96 0,11.89 -4.66,22.13 -13.93,30.69 -9.28,8.56 -21.02,12.85 -35.27,12.85 -4.48,0 -8.74,-0.46 -12.72,-1.36 -3.97,-0.89 -8.98,-2.61 -15,-5.15 -3.33,-1.4 -6.09,-2.08 -8.27,-2.08 -1.83,0 -3.73,0.68 -5.77,2.08 -2.04,1.39 -3.69,3.54 -4.94,6.4l-3.87 0 0 -53.71 3.87 0c3.08,15.11 9.03,26.64 17.8,34.56 8.77,7.95 18.22,11.92 28.36,11.92 7.84,0 14.07,-2.15 18.73,-6.41 4.65,-4.26 6.98,-9.24 6.98,-14.89 0,-3.37 -0.9,-6.63 -2.69,-9.78 -1.79,-3.12 -4.51,-6.12 -8.13,-8.95 -3.61,-2.83 -10.06,-6.52 -19.3,-11.07 -12.92,-6.37 -22.23,-11.78 -27.89,-16.25 -5.69,-4.48 -10.03,-9.49 -13.07,-15.01 -3.04,-5.55 -4.58,-11.64 -4.58,-18.26 0,-11.35 4.15,-20.98 12.49,-28.93 8.35,-7.99 18.84,-11.96 31.48,-11.96 4.62,0 9.09,0.53 13.43,1.64 3.29,0.86 7.3,2.44 11.99,4.7 4.73,2.25 8.02,3.4 9.92,3.4 1.83,0 3.26,-0.58 4.3,-1.69 1.04,-1.11 2.04,-3.79 2.93,-8.05l3.16 0zm79.92 131.02c-11.96,10.56 -22.7,15.83 -32.23,15.83 -5.58,0 -10.24,-1.83 -13.93,-5.52 -3.69,-3.69 -5.55,-8.27 -5.55,-13.78 0,-7.49 3.23,-14.22 9.64,-20.2 6.44,-5.98 20.48,-13.93 42.07,-23.85l0 -9.88c0,-7.41 -0.39,-12.07 -1.22,-14 -0.82,-1.94 -2.33,-3.62 -4.55,-5.05 -2.25,-1.43 -4.76,-2.15 -7.55,-2.15 -4.55,0 -8.31,1 -11.24,3.04 -1.83,1.26 -2.73,2.73 -2.73,4.41 0,1.47 0.97,3.29 2.94,5.48 2.69,3.01 4.01,5.91 4.01,8.7 0,3.4 -1.29,6.34 -3.83,8.77 -2.54,2.4 -5.91,3.62 -10.03,3.62 -4.4,0 -8.09,-1.33 -11.06,-4.01 -2.97,-2.65 -4.48,-5.77 -4.48,-9.31 0,-5.05 2.01,-9.85 5.98,-14.43 3.98,-4.59 9.56,-8.1 16.69,-10.57 7.12,-2.43 14.54,-3.65 22.24,-3.65 9.31,0 16.68,1.97 22.09,5.91 5.41,3.97 8.92,8.24 10.53,12.85 0.96,2.94 1.47,9.71 1.47,20.27l0 38.07c0,4.47 0.17,7.3 0.53,8.45 0.36,1.14 0.9,2 1.58,2.58 0.68,0.53 1.5,0.82 2.4,0.82 1.82,0 3.69,-1.29 5.58,-3.87l3.12 2.51c-3.47,5.19 -7.09,8.95 -10.85,11.28 -3.76,2.33 -7.99,3.51 -12.75,3.51 -5.59,0 -9.95,-1.33 -13.1,-3.94 -3.16,-2.62 -5.09,-6.59 -5.77,-11.89zm0 -7.66l0 -32.84c-8.49,4.98 -14.75,10.28 -18.87,15.94 -2.76,3.76 -4.12,7.59 -4.12,11.42 0,3.22 1.15,6.05 3.47,8.52 1.76,1.9 4.19,2.83 7.35,2.83 3.5,0 7.55,-1.97 12.17,-5.87zm8.92 -102.2c-5.8,3.44 -9.31,5.84 -10.5,7.16 -1.18,1.33 -1.97,3.48 -2.32,6.48l-5.66 0c0.64,-6.01 3.08,-11.13 7.34,-15.39 3.08,-3.08 4.62,-6.02 4.62,-8.85 0,-5.16 -3.51,-7.73 -10.49,-7.73 -2.44,0 -4.51,0.35 -6.2,1.03 -1.68,0.68 -2.5,1.37 -2.5,2.01 0,0.54 0.6,1.43 1.82,2.65 1.26,1.25 1.86,2.22 1.86,2.9 0,2.44 -2.14,3.65 -6.41,3.65 -2.79,0 -5.04,-0.53 -6.76,-1.61 -1.72,-1.07 -2.58,-2.54 -2.58,-4.37 0,-2.86 2.22,-5.26 6.62,-7.16 4.41,-1.93 9.99,-2.9 16.8,-2.9 8.73,0 15.22,1.36 19.48,4.08 3.15,2.04 4.72,4.3 4.72,6.84 0,3.55 -3.29,7.31 -9.84,11.21zm84.43 26.25l0 12.67c5.05,-5.44 9.89,-9.41 14.5,-11.88 4.62,-2.48 9.57,-3.73 14.9,-3.73 6.34,0 11.64,1.76 15.83,5.3 4.19,3.55 6.98,7.91 8.38,13.14 1.11,3.98 1.68,11.64 1.68,22.99l0 38.17c0,7.56 0.68,12.29 2.04,14.11 1.36,1.86 4.23,3.05 8.56,3.55l0 3.76 -49.63 0 0 -3.76c3.72,-0.5 6.37,-2.04 7.98,-4.62 1.11,-1.76 1.69,-6.13 1.69,-13.04l0 -43.61c0,-8.06 -0.32,-13.11 -0.93,-15.22 -0.65,-2.11 -1.72,-3.72 -3.23,-4.87 -1.5,-1.18 -3.15,-1.75 -4.97,-1.75 -6.02,0 -11.61,4.29 -16.8,12.92l0 52.53c0,7.34 0.68,12 2.04,13.97 1.4,1.97 3.94,3.19 7.63,3.69l0 3.76 -49.63 0 0 -3.76c4.12,-0.43 7.05,-1.76 8.81,-4.01 1.18,-1.54 1.79,-6.09 1.79,-13.65l0 -55.39c0,-7.41 -0.68,-12 -2.04,-13.82 -1.36,-1.83 -4.23,-3.01 -8.56,-3.59l0 -3.86 39.96 0zm257.5 -44.19l0 38.53 -3.76 0c-2.26,-8.92 -4.73,-15.29 -7.45,-19.16 -2.76,-3.9 -6.48,-6.98 -11.24,-9.27 -2.65,-1.26 -7.31,-1.9 -13.93,-1.9l-10.6 0 0 109.72c0,7.27 0.39,11.81 1.18,13.64 0.82,1.83 2.4,3.4 4.73,4.76 2.32,1.4 5.55,2.08 9.59,2.08l4.73 0 0 3.87 -74.48 0 0 -3.87 4.73 0c4.11,0 7.44,-0.75 9.95,-2.22 1.83,-0.97 3.26,-2.65 4.3,-5.05 0.79,-1.68 1.18,-6.09 1.18,-13.21l0 -109.72 -10.31 0c-9.56,0 -16.55,2.04 -20.88,6.09 -6.05,5.66 -9.92,13.75 -11.53,24.24l-3.97 0 0 -38.53 127.76 0zm52.96 132.31l0 36.49c0,5.05 0.39,8.45 1.18,10.28 0.83,1.82 2.04,3.15 3.73,4.01 1.68,0.82 4.97,1.25 9.88,1.25l0 3.87 -55.93 0 0 -3.87c4.33,-0.14 7.55,-1.36 9.66,-3.69 1.4,-1.61 2.08,-5.76 2.08,-12.46l0 -103.56c0,-6.91 -0.79,-11.35 -2.4,-13.28 -1.61,-1.9 -4.72,-3.01 -9.34,-3.3l0 -3.86 41.14 0 0 12.89c3.4,-5.05 6.91,-8.67 10.49,-10.92 5.12,-3.26 10.67,-4.91 16.65,-4.91 7.2,0 13.79,2.26 19.7,6.8 5.91,4.55 10.38,10.85 13.46,18.84 3.08,7.99 4.62,16.62 4.62,25.85 0,9.92 -1.58,19.02 -4.76,27.22 -3.19,8.23 -7.81,14.5 -13.86,18.8 -6.05,4.29 -12.78,6.44 -20.2,6.44 -5.37,0 -10.42,-1.18 -15.11,-3.58 -3.47,-1.82 -7.16,-4.9 -10.99,-9.31zm0 -10.6c6.02,8.52 12.46,12.79 19.3,12.79 3.76,0 6.88,-2.01 9.35,-5.98 3.61,-5.88 5.44,-17.05 5.44,-33.56 0,-16.93 -2.01,-28.5 -5.98,-34.73 -2.65,-4.12 -6.23,-6.2 -10.71,-6.2 -7.05,0 -12.85,5.13 -17.4,15.33l0 52.35zm101.09 -11.74c4.9,0 9.02,1.72 12.42,5.12 3.4,3.44 5.09,7.55 5.09,12.39 0,4.83 -1.72,8.91 -5.12,12.32 -3.44,3.4 -7.56,5.08 -12.39,5.08 -4.84,0 -8.92,-1.68 -12.32,-5.08 -3.4,-3.41 -5.09,-7.49 -5.09,-12.32 0,-4.84 1.69,-8.95 5.09,-12.39 3.4,-3.4 7.48,-5.12 12.32,-5.12zm85.61 -36.1l0 44.05c0,7.27 0.4,11.81 1.19,13.64 0.82,1.83 2.4,3.4 4.72,4.76 2.33,1.4 5.52,2.08 9.49,2.08l4.73 0 0 3.87 -74.38 0 0 -3.87 4.73 0c4.12,0 7.45,-0.75 9.96,-2.22 1.82,-0.97 3.22,-2.65 4.19,-5.05 0.78,-1.68 1.18,-6.09 1.18,-13.21l0 -93.57c0,-7.27 -0.4,-11.82 -1.18,-13.64 -0.76,-1.83 -2.33,-3.41 -4.66,-4.77 -2.33,-1.36 -5.51,-2.04 -9.49,-2.04l-4.73 0 0 -3.9 74.38 0 0 3.9 -4.73 0c-4.12,0 -7.45,0.72 -9.95,2.19 -1.83,0.96 -3.26,2.65 -4.3,5.05 -0.75,1.68 -1.15,6.08 -1.15,13.21l0 40.28 50.24 0 0 -40.28c0,-7.27 -0.39,-11.82 -1.14,-13.64 -0.79,-1.83 -2.37,-3.41 -4.73,-4.77 -2.4,-1.36 -5.59,-2.04 -9.56,-2.04l-4.62 0 0 -3.9 74.3 0 0 3.9 -4.62 0c-4.19,0 -7.52,0.72 -9.99,2.19 -1.82,0.96 -3.26,2.65 -4.29,5.05 -0.76,1.68 -1.15,6.08 -1.15,13.21l0 93.57c0,7.27 0.39,11.81 1.15,13.64 0.75,1.83 2.32,3.4 4.72,4.76 2.4,1.4 5.59,2.08 9.56,2.08l4.62 0 0 3.87 -74.3 0 0 -3.87 4.62 0c4.19,0 7.52,-0.75 9.99,-2.22 1.83,-0.97 3.26,-2.65 4.3,-5.05 0.75,-1.68 1.14,-6.09 1.14,-13.21l0 -44.05 -50.24 0zm251.74 -77.09l0 49.27 -4.09 0c-3.07,-12.86 -8.8,-22.74 -17.22,-29.58 -8.38,-6.84 -17.9,-10.28 -28.54,-10.28 -8.88,0 -17.01,2.55 -24.42,7.67 -7.41,5.12 -12.86,11.78 -16.26,20.05 -4.4,10.56 -6.62,22.31 -6.62,35.24 0,12.71 1.61,24.31 4.83,34.77 3.23,10.45 8.27,18.37 15.11,23.7 6.84,5.34 15.72,8.02 26.65,8.02 8.95,0 17.15,-1.97 24.6,-5.87 7.44,-3.9 15.29,-10.67 23.56,-20.23l0 12.28c-7.99,8.31 -16.3,14.32 -24.93,18.08 -8.62,3.76 -18.72,5.62 -30.29,5.62 -15.15,0 -28.65,-3.04 -40.43,-9.13 -11.78,-6.08 -20.87,-14.82 -27.28,-26.21 -6.41,-11.42 -9.6,-23.56 -9.6,-36.42 0,-13.57 3.55,-26.42 10.67,-38.6 7.09,-12.17 16.65,-21.62 28.72,-28.32 12.07,-6.7 24.89,-10.06 38.46,-10.06 9.99,0 20.55,2.15 31.69,6.48 6.41,2.54 10.53,3.79 12.28,3.79 2.22,0 4.15,-0.82 5.8,-2.47 1.65,-1.64 2.72,-4.26 3.22,-7.8l4.09 0zm114.12 97l38.63 -93.78 57.91 0 0 3.9 -4.62 0c-4.19,0 -7.56,0.72 -10.06,2.19 -1.76,0.96 -3.19,2.61 -4.23,4.94 -0.75,1.68 -1.15,6.05 -1.15,13.1l0 93.79c0,7.27 0.4,11.81 1.15,13.64 0.79,1.83 2.36,3.4 4.73,4.76 2.4,1.4 5.58,2.08 9.56,2.08l4.62 0 0 3.87 -74.31 0 0 -3.87 4.62 0c4.19,0 7.56,-0.75 10.1,-2.22 1.76,-0.97 3.15,-2.65 4.19,-5.05 0.75,-1.68 1.15,-6.09 1.15,-13.21l0 -105.42 -54.54 129.77 -2.54 0 -55.4 -128.84 0 100.19c0,6.98 0.18,11.32 0.54,12.93 0.9,3.47 2.9,6.33 5.94,8.52 3.05,2.22 7.81,3.33 14.29,3.33l0 3.87 -48.66 0 0 -3.87 1.47 0c3.15,0.07 6.08,-0.43 8.81,-1.54 2.72,-1.07 4.79,-2.51 6.19,-4.33 1.4,-1.83 2.51,-4.41 3.26,-7.67 0.14,-0.78 0.21,-4.37 0.21,-10.7l0 -90.03c0,-7.19 -0.39,-11.7 -1.14,-13.46 -0.79,-1.79 -2.37,-3.37 -4.73,-4.73 -2.4,-1.36 -5.58,-2.04 -9.56,-2.04l-4.51 0 0 -3.9 58.12 0 39.96 93.78z"/>
 </g>
</svg>
